<?xml version="1.0" standalone="no"?>
<!DOCTYPE svg PUBLIC "-//W3C//DTD SVG 1.1//EN" "http://www.w3.org/Graphics/SVG/1.1/DTD/svg11.dtd" >
<svg xmlns="http://www.w3.org/2000/svg" xmlns:xlink="http://www.w3.org/1999/xlink" version="1.1">
<metadata>
Created by FontForge 20170731 at Tue Oct  1 18:51:09 2019
 By Aleksey,,,
Copyright (c) 2019 by Christoph York. All rights reserved. Modification of this file requires prior written permission from Brink Type.
</metadata>
<defs>
<font id="BRHendrix-Regular" horiz-adv-x="0" >
  <font-face 
    font-family="BR Hendrix"
    font-weight="400"
    font-stretch="normal"
    units-per-em="1000"
    panose-1="0 0 5 0 0 0 0 0 0 0"
    ascent="800"
    descent="-200"
    x-height="470"
    cap-height="700"
    bbox="-470 -280 1243 975"
    underline-thickness="50"
    underline-position="-270"
    unicode-range="U+000D-2B51"
  />
<missing-glyph horiz-adv-x="768" 
d="M96 0v700h576v-700h-576zM335 265h76v28q0 20 5 29.5t23 24.5l29 24q59 49 59 103q0 52 -37.5 84t-98.5 32q-66 0 -106.5 -38t-41.5 -104h76q5 70 71 70q59 0 59 -47q0 -27 -30 -51l-32 -26q-32 -26 -42 -45t-10 -53v-31zM373 105q23 0 37 14.5t14 37.5t-14 37.5
t-37 14.5t-37 -14.5t-14 -37.5t14 -37.5t37 -14.5z" />
    <glyph glyph-name=".notdef" horiz-adv-x="768" 
d="M96 0v700h576v-700h-576zM335 265h76v28q0 20 5 29.5t23 24.5l29 24q59 49 59 103q0 52 -37.5 84t-98.5 32q-66 0 -106.5 -38t-41.5 -104h76q5 70 71 70q59 0 59 -47q0 -27 -30 -51l-32 -26q-32 -26 -42 -45t-10 -53v-31zM373 105q23 0 37 14.5t14 37.5t-14 37.5
t-37 14.5t-37 -14.5t-14 -37.5t14 -37.5t37 -14.5z" />
    <glyph glyph-name=".null" 
 />
    <glyph glyph-name="nonmarkingreturn" horiz-adv-x="333" 
 />
    <glyph glyph-name="CR" unicode="&#xd;" horiz-adv-x="240" 
 />
    <glyph glyph-name="space" unicode=" " horiz-adv-x="240" 
 />
    <glyph glyph-name="exclam" unicode="!" horiz-adv-x="278" 
d="M105 216l-12 484h92l-12 -484h-68zM139 -7q-27 0 -45 18t-18 45t18 45t45 18t45 -18t18 -45t-18 -45t-45 -18z" />
    <glyph glyph-name="quotedbl" unicode="&#x22;" horiz-adv-x="358" 
d="M66 442l-16 270h92l-16 -270h-60zM232 442l-16 270h92l-16 -270h-60z" />
    <glyph glyph-name="numbersign" unicode="#" horiz-adv-x="704" 
d="M654 427h-121l-30 -154h109v-70h-123l-37 -188h-80l37 188h-172l-37 -188h-80l37 188h-107v70h121l30 154h-109v70h123l37 188h80l-37 -188h172l37 188h80l-37 -188h107v-70zM423 273l30 154h-172l-30 -154h172z" />
    <glyph glyph-name="dollar" unicode="$" horiz-adv-x="543" 
d="M501 219q0 -81 -56 -134t-147 -60v-67h-56v68q-89 8 -145 62.5t-59 140.5h92q7 -106 112 -124v216l-19 4q-171 37 -171 166q0 75 53.5 126t140.5 58v67h56v-67q83 -8 134.5 -55.5t56.5 -128.5h-92q-6 93 -99 105v-206l28 -6q171 -37 171 -165zM141 494q0 -35 23 -55.5
t82 -35.5v193q-50 -6 -77.5 -33t-27.5 -69zM298 104q53 6 83.5 35.5t30.5 73.5q0 36 -25.5 58t-88.5 37v-204z" />
    <glyph glyph-name="percent" unicode="%" horiz-adv-x="871" 
d="M217 356q-75 0 -126 51.5t-51 126.5t51 126.5t126 51.5t126 -51.5t51 -126.5t-51 -126.5t-126 -51.5zM164 0l454 700h89l-454 -700h-89zM217 425q46 0 74 30.5t28 78.5t-28 78.5t-74 30.5t-74 -30.5t-28 -78.5t28 -78.5t74 -30.5zM654 -12q-75 0 -126 51.5t-51 126.5
t51 126.5t126 51.5t126 -51.5t51 -126.5t-51 -126.5t-126 -51.5zM654 57q46 0 74 30.5t28 78.5t-28 78.5t-74 30.5t-74 -30.5t-28 -78.5t28 -78.5t74 -30.5z" />
    <glyph glyph-name="ampersand" unicode="&#x26;" horiz-adv-x="652" 
d="M632 0h-100l-64 73q-79 -85 -199 -85q-97 0 -160.5 53.5t-63.5 136.5q0 114 144 197l8 4l-1 1q-48 55 -68.5 94t-20.5 78q0 68 52 114t132 46q78 0 130 -44t52 -113q0 -105 -119 -174l-37 -21l144 -165q30 59 37 140h81q-11 -118 -62 -203zM191 553q0 -50 58 -116l19 -21
l49 28q74 43 74 103q0 42 -28.5 66.5t-71.5 24.5q-44 0 -72 -24.5t-28 -60.5zM267 66q89 0 149 63l-170 194l-8 -4q-105 -61 -105 -138q0 -53 37 -84t97 -31z" />
    <glyph glyph-name="quotesingle" unicode="'" horiz-adv-x="192" 
d="M66 442l-16 270h92l-16 -270h-60z" />
    <glyph glyph-name="parenleft" unicode="(" horiz-adv-x="328" 
d="M228 -124q-76 89 -117 203.5t-41 235.5t41 235.5t117 203.5l66 -48q-58 -70 -96 -177t-38 -214t38 -214t96 -177z" />
    <glyph glyph-name="parenright" unicode=")" horiz-adv-x="328" 
d="M100 -124l-66 48q58 70 96 177t38 214t-38 214t-96 177l66 48q76 -89 117 -203.5t41 -235.5t-41 -235.5t-117 -203.5z" />
    <glyph glyph-name="asterisk" unicode="*" horiz-adv-x="466" 
d="M198 712h70l-5 -154l146 52l22 -67l-147 -43l94 -123l-58 -41l-87 128l-87 -128l-58 41l94 123l-147 43l22 67l146 -52z" />
    <glyph glyph-name="plus" unicode="+" horiz-adv-x="650" 
d="M545 356v-78h-179v-191h-82v191h-179v78h179v191h82v-191h179z" />
    <glyph glyph-name="comma" unicode="," horiz-adv-x="264" 
d="M127 119q33 0 54 -25.5t21 -70.5q0 -110 -101 -195l-33 35q69 69 69 135q-5 -1 -14 -1q-27 0 -44 17.5t-17 43.5t18.5 43.5t46.5 17.5z" />
    <glyph glyph-name="hyphen" unicode="-" horiz-adv-x="414" 
d="M52 238v78h310v-78h-310z" />
    <glyph glyph-name="period" unicode="." horiz-adv-x="250" 
d="M125 -7q-27 0 -45 18t-18 45t18 45t45 18t45 -18t18 -45t-18 -45t-45 -18z" />
    <glyph glyph-name="slash" unicode="/" horiz-adv-x="488" 
d="M15 -92l370 834h88l-370 -834h-88z" />
    <glyph glyph-name="zero" unicode="0" horiz-adv-x="646" 
d="M323 -12q-118 0 -182.5 69t-64.5 192v202q0 123 64.5 192t182.5 69t182.5 -69t64.5 -192v-202q0 -123 -64.5 -192t-182.5 -69zM323 68q75 0 116 45.5t41 135.5v202q0 90 -41 135.5t-116 45.5t-116 -45.5t-41 -135.5v-202q0 -90 41 -135.5t116 -45.5z" />
    <glyph glyph-name="one" unicode="1" horiz-adv-x="412" 
d="M237 700h70v-700h-90v548h-137v72h30q63 0 89 16.5t38 63.5z" />
    <glyph glyph-name="two" unicode="2" horiz-adv-x="573" 
d="M154 80h363v-80h-456v42q0 84 43 144.5t159 132.5q93 58 126.5 101t33.5 92q0 57 -33.5 89t-93.5 32q-66 0 -103.5 -41t-40.5 -123h-90q2 114 67 178.5t169 64.5q96 0 155.5 -55t59.5 -149q0 -69 -41.5 -124t-148.5 -121q-91 -56 -127 -95.5t-42 -87.5z" />
    <glyph glyph-name="three" unicode="3" horiz-adv-x="594" 
d="M292 -12q-103 0 -165.5 56t-64.5 156h90q3 -63 41.5 -97.5t102.5 -34.5q67 0 106.5 36.5t39.5 94.5t-40 90.5t-113 32.5h-61v77h61q66 0 99.5 31.5t33.5 85.5q0 55 -33 85.5t-95 30.5q-126 0 -135 -133h-90q4 99 66 156t161 57q96 0 155.5 -53.5t59.5 -139.5
q0 -106 -95 -156v-3q56 -22 86 -64.5t30 -100.5q0 -90 -66.5 -148.5t-173.5 -58.5z" />
    <glyph glyph-name="four" unicode="4" horiz-adv-x="588" 
d="M562 212v-76h-97v-136h-85v136h-340v72l318 492h107v-488h97zM132 212h248v384z" />
    <glyph glyph-name="five" unicode="5" horiz-adv-x="591" 
d="M320 455q96 0 159.5 -64t63.5 -165q0 -105 -68.5 -171.5t-177.5 -66.5q-97 0 -160.5 56t-68.5 154h90q7 -63 45 -96.5t97 -33.5q70 0 111.5 43.5t41.5 116.5q0 71 -39.5 111t-106.5 40q-93 0 -145 -70h-78l42 391h370v-80h-293l-24 -211q61 46 141 46z" />
    <glyph glyph-name="six" unicode="6" horiz-adv-x="587" 
d="M307 464q98 0 166.5 -67.5t68.5 -167.5q0 -101 -71.5 -171t-177.5 -70q-104 0 -174.5 67.5t-70.5 167.5q0 94 87 223l170 254h102l-168 -247q33 11 68 11zM295 68q67 0 112 45t45 115t-45 115t-112 45t-112 -45t-45 -115t45 -115t112 -45z" />
    <glyph glyph-name="seven" unicode="7" horiz-adv-x="522" 
d="M42 700h442v-72l-283 -628h-96l282 620h-345v80z" />
    <glyph glyph-name="eight" unicode="8" horiz-adv-x="602" 
d="M301 -12q-107 0 -173 55t-66 143q0 60 32 106.5t86 69.5v2q-52 23 -78 64t-26 93q0 84 62.5 137.5t162.5 53.5t162.5 -53.5t62.5 -137.5q0 -52 -26 -93t-78 -64v-2q54 -23 86 -69.5t32 -106.5q0 -88 -66 -143t-173 -55zM301 400q65 0 101 31.5t36 85.5t-36 85.5
t-101 31.5t-101 -31.5t-36 -85.5t36 -85.5t101 -31.5zM301 66q68 0 109 34t41 92t-41.5 94.5t-108.5 36.5t-108.5 -36.5t-41.5 -94.5t41 -92t109 -34z" />
    <glyph glyph-name="nine" unicode="9" horiz-adv-x="587" 
d="M294 712q104 0 174.5 -67.5t70.5 -167.5q0 -94 -87 -223l-170 -254h-102l168 247q-33 -11 -68 -11q-98 0 -166.5 67.5t-68.5 167.5q0 101 71.5 171t177.5 70zM292 312q67 0 112 45t45 115t-45 115t-112 45t-112 -45t-45 -115t45 -115t112 -45z" />
    <glyph glyph-name="colon" unicode=":" horiz-adv-x="260" 
d="M135 344q-27 0 -45 18t-18 45t18 45t45 18t45 -18t18 -45t-18 -45t-45 -18zM135 -7q-27 0 -45 18t-18 45t18 45t45 18t45 -18t18 -45t-18 -45t-45 -18z" />
    <glyph glyph-name="semicolon" unicode=";" horiz-adv-x="274" 
d="M135 344q-27 0 -45 18t-18 45t18 45t45 18t45 -18t18 -45t-18 -45t-45 -18zM137 119q33 0 54 -25.5t21 -70.5q0 -110 -101 -195l-33 35q69 69 69 135q-5 -1 -14 -1q-27 0 -44 17.5t-17 43.5t18.5 43.5t46.5 17.5z" />
    <glyph glyph-name="less" unicode="&#x3c;" horiz-adv-x="650" 
d="M545 533v-86l-338 -130l338 -130v-86l-440 174v84z" />
    <glyph glyph-name="equal" unicode="=" horiz-adv-x="650" 
d="M105 378v79h440v-79h-440zM105 177v79h440v-79h-440z" />
    <glyph glyph-name="greater" unicode="&#x3e;" horiz-adv-x="650" 
d="M105 533l440 -174v-84l-440 -174v86l338 130l-338 130v86z" />
    <glyph glyph-name="question" unicode="?" horiz-adv-x="481" 
d="M177 216v46q0 50 15.5 81t62.5 70l49 41q53 45 53 90q0 41 -27 65.5t-74 24.5q-55 0 -87.5 -33t-33.5 -91h-89q3 93 61 147.5t148 54.5q83 0 136.5 -46t53.5 -119q0 -81 -90 -156l-49 -41q-26 -22 -33.5 -38t-7.5 -50v-46h-88zM221 -7q-27 0 -45 18t-18 45t18 45t45 18
t45 -18t18 -45t-18 -45t-45 -18z" />
    <glyph glyph-name="at" unicode="@" horiz-adv-x="945" 
d="M494 -193q-192 0 -316 117.5t-124 302.5q0 186 125.5 308t306.5 122q171 0 291 -109.5t120 -279.5q0 -110 -50.5 -178t-126.5 -68q-43 0 -74.5 23t-43.5 67h-3q-18 -44 -55.5 -67t-85.5 -23q-78 0 -129.5 57.5t-51.5 148.5t51.5 148.5t129.5 57.5q91 0 126 -73h3l6 59h67
v-248q0 -84 61 -84q46 0 72.5 45t26.5 126q0 149 -94 236.5t-238 87.5q-154 0 -253 -99.5t-99 -254.5q0 -156 100 -252.5t260 -96.5q112 0 197 44v-77q-91 -40 -199 -40zM473 95q50 0 82 35.5t32 97.5t-32 97.5t-82 35.5t-82 -35.5t-32 -97.5t32 -97.5t82 -35.5z" />
    <glyph glyph-name="A" unicode="A" horiz-adv-x="647" 
d="M538 0l-63 175h-303l-63 -175h-93l258 700h99l258 -700h-93zM200 255h247l-122 339h-3z" />
    <glyph glyph-name="B" unicode="B" horiz-adv-x="646" 
d="M472 357q118 -36 118 -164q0 -92 -59.5 -142.5t-170.5 -50.5h-264v700h237q107 0 169 -52.5t62 -138.5q0 -105 -92 -149v-3zM472 504q0 116 -139 116h-145v-230h145q139 0 139 114zM356 80q140 0 140 116t-140 116h-168v-232h168z" />
    <glyph glyph-name="C" unicode="C" horiz-adv-x="761" 
d="M395 -12q-147 0 -244.5 101.5t-97.5 260.5t98 260.5t245 101.5q125 0 213.5 -73.5t101.5 -192.5h-94q-16 88 -74 135t-144 47q-110 0 -181 -75.5t-71 -202.5t71 -202.5t181 -75.5q87 0 147 48.5t76 133.5h91q-13 -119 -102 -192.5t-216 -73.5z" />
    <glyph glyph-name="D" unicode="D" horiz-adv-x="694" 
d="M268 700q168 0 270 -95t102 -255t-102 -255t-270 -95h-172v700h172zM272 84q125 0 199.5 69.5t74.5 196.5t-74.5 196.5t-199.5 69.5h-84v-532h84z" />
    <glyph glyph-name="E" unicode="E" horiz-adv-x="588" 
d="M522 616h-334v-222h306v-84h-306v-226h334v-84h-426v700h426v-84z" />
    <glyph glyph-name="F" unicode="F" horiz-adv-x="578" 
d="M522 616h-334v-240h314v-84h-314v-292h-92v700h426v-84z" />
    <glyph glyph-name="G" unicode="G" horiz-adv-x="781" 
d="M410 280v82h301v-362h-73l-11 104h-3q-34 -55 -96.5 -85.5t-138.5 -30.5q-144 0 -240 101t-96 260q0 160 98 261.5t250 101.5q121 0 206 -65t104 -177h-96q-14 74 -71 116.5t-141 42.5q-113 0 -184.5 -76t-71.5 -203t70.5 -203t180.5 -76q93 0 155.5 56t73.5 153h-217z
" />
    <glyph glyph-name="H" unicode="H" horiz-adv-x="710" 
d="M522 700h92v-700h-92v298h-334v-298h-92v700h92v-318h334v318z" />
    <glyph glyph-name="I" unicode="I" horiz-adv-x="284" 
d="M96 0v700h92v-700h-92z" />
    <glyph glyph-name="J" unicode="J" horiz-adv-x="604" 
d="M130 700h388v-461q0 -124 -62 -187.5t-176 -63.5t-176 63.5t-62 187.5v77h92v-71q0 -173 146 -173t146 173v371h-296v84z" />
    <glyph glyph-name="K" unicode="K" horiz-adv-x="629" 
d="M282 352l335 -352h-122l-304 319h-3v-319h-92v700h92v-325h3l304 325h114z" />
    <glyph glyph-name="L" unicode="L" horiz-adv-x="540" 
d="M188 84h320v-84h-412v700h92v-616z" />
    <glyph glyph-name="M" unicode="M" horiz-adv-x="917" 
d="M721 700h100v-700h-90v509h-3l-234 -509h-71l-234 509h-3v-509h-90v700h100l261 -577h3z" />
    <glyph glyph-name="N" unicode="N" horiz-adv-x="747" 
d="M559 700h92v-700h-97l-363 551h-3v-551h-92v700h97l363 -551h3v551z" />
    <glyph glyph-name="O" unicode="O" horiz-adv-x="796" 
d="M398 -12q-149 0 -247 102t-98 260t98 260t247 102t247 -102t98 -260t-98 -260t-247 -102zM398 72q110 0 180.5 76t70.5 202t-70.5 202t-180.5 76t-180.5 -76t-70.5 -202t70.5 -202t180.5 -76z" />
    <glyph glyph-name="P" unicode="P" horiz-adv-x="631" 
d="M321 700q122 0 193.5 -63t71.5 -171t-71.5 -171t-193.5 -63h-133v-232h-92v700h225zM319 316q173 0 173 150t-173 150h-131v-300h131z" />
    <glyph glyph-name="Q" unicode="Q" horiz-adv-x="796" 
d="M743 350q0 -168 -109 -271l84 -100l-65 -54l-87 104q-77 -41 -168 -41q-149 0 -247 102t-98 260t98 260t247 102t247 -102t98 -260zM398 72q62 0 111 24l-134 160l65 54l137 -163q72 77 72 203t-70.5 202t-180.5 76t-180.5 -76t-70.5 -202t70.5 -202t180.5 -76z" />
    <glyph glyph-name="R" unicode="R" horiz-adv-x="649" 
d="M482 0l-181 244h-113v-244h-92v700h223q123 0 195 -62t72 -166q0 -84 -48 -141.5t-133 -77.5l190 -253h-113zM188 616v-288h131q84 0 128.5 37.5t44.5 106.5t-44.5 106.5t-128.5 37.5h-131z" />
    <glyph glyph-name="S" unicode="S" horiz-adv-x="596" 
d="M303 -12q-111 0 -182.5 63t-74.5 169h94q7 -72 51.5 -110.5t114.5 -38.5q69 0 111 34.5t42 89.5q0 43 -33.5 70t-116.5 45l-64 14q-189 41 -189 184q0 89 67.5 146.5t173.5 57.5q104 0 170 -56.5t75 -155.5h-94q-19 129 -153 129q-67 0 -106.5 -32t-39.5 -85
q0 -43 32.5 -68.5t116.5 -43.5l64 -14q99 -22 144.5 -67t45.5 -116q0 -95 -69.5 -155t-179.5 -60z" />
    <glyph glyph-name="T" unicode="T" horiz-adv-x="564" 
d="M542 700v-84h-214v-616h-92v616h-214v84h520z" />
    <glyph glyph-name="U" unicode="U" horiz-adv-x="706" 
d="M353 -12q-122 0 -194.5 77t-72.5 209v426h92v-430q0 -95 47 -146.5t128 -51.5t128 51.5t47 146.5v430h92v-426q0 -132 -72.5 -209t-194.5 -77z" />
    <glyph glyph-name="V" unicode="V" horiz-adv-x="639" 
d="M266 0l-250 700h94l208 -593h3l208 593h94l-250 -700h-107z" />
    <glyph glyph-name="W" unicode="W" horiz-adv-x="1001" 
d="M238 0l-217 700h93l171 -559h3l168 559h89l168 -559h3l171 559h93l-217 -700h-92l-169 566h-3l-169 -566h-92z" />
    <glyph glyph-name="X" unicode="X" horiz-adv-x="596" 
d="M578 0h-100l-180 296l-180 -296h-100l225 365l-215 335h102l168 -267l168 267h102l-215 -335z" />
    <glyph glyph-name="Y" unicode="Y" horiz-adv-x="624" 
d="M266 0v275l-258 425h104l199 -339h2l199 339h104l-258 -425v-275h-92z" />
    <glyph glyph-name="Z" unicode="Z" horiz-adv-x="574" 
d="M161 84h363v-84h-474v70l355 546h-347v84h458v-70z" />
    <glyph glyph-name="bracketleft" unicode="[" horiz-adv-x="363" 
d="M328 664h-144v-700h144v-78h-232v856h232v-78z" />
    <glyph glyph-name="backslash" unicode="\" horiz-adv-x="488" 
d="M473 -92h-88l-370 834h88z" />
    <glyph glyph-name="bracketright" unicode="]" horiz-adv-x="363" 
d="M35 742h232v-856h-232v78h144v700h-144v78z" />
    <glyph glyph-name="asciicircum" unicode="^" horiz-adv-x="579" 
d="M549 349h-100l-159 248l-160 -248h-100l218 327h83z" />
    <glyph glyph-name="underscore" unicode="_" horiz-adv-x="410" 
d="M10 -131v76h390v-76h-390z" />
    <glyph glyph-name="grave" unicode="`" horiz-adv-x="600" 
d="M290 544l-99 140h109l67 -140h-77z" />
    <glyph glyph-name="a" unicode="a" horiz-adv-x="542" 
d="M274 482q93 0 143.5 -48t50.5 -135v-299h-79l-6 64h-3q-23 -34 -68 -55t-98 -21q-71 0 -114.5 37.5t-43.5 97.5q0 58 42.5 95.5t122.5 48.5l160 22v10q0 108 -110 108q-103 0 -109 -88h-90q5 76 58.5 119.5t143.5 43.5zM233 61q65 0 106.5 40t41.5 101v20l-131 -18
q-104 -14 -104 -78q0 -30 22.5 -47.5t64.5 -17.5z" />
    <glyph glyph-name="b" unicode="b" horiz-adv-x="599" 
d="M325 482q96 0 160.5 -69.5t64.5 -177.5t-64 -177.5t-161 -69.5q-52 0 -95 21t-64 54h-3l-6 -63h-79v700h88v-292h3q21 34 64 54t92 20zM311 64q67 0 108 46t41 125t-41 125t-108 46q-68 0 -108.5 -46t-40.5 -125t40.5 -125t108.5 -46z" />
    <glyph glyph-name="c" unicode="c" horiz-adv-x="548" 
d="M289 -12q-106 0 -173 69t-67 178t68 178t175 69q90 0 148.5 -49t68.5 -135h-90q-7 49 -41.5 78.5t-86.5 29.5q-67 0 -109.5 -46.5t-42.5 -124.5t42.5 -124.5t108.5 -46.5q53 0 90.5 29.5t44.5 78.5h87q-10 -85 -71 -134.5t-152 -49.5z" />
    <glyph glyph-name="d" unicode="d" horiz-adv-x="599" 
d="M433 700h88v-700h-79l-6 63h-3q-21 -33 -64 -54t-95 -21q-97 0 -161 69.5t-64 177.5t64.5 177.5t160.5 69.5q49 0 92 -20t64 -54h3v292zM288 64q68 0 108.5 46t40.5 125t-40.5 125t-108.5 46q-67 0 -108 -46t-41 -125t41 -125t108 -46z" />
    <glyph glyph-name="e" unicode="e" horiz-adv-x="559" 
d="M513 252q0 -18 -3 -38h-372q5 -72 47 -111t107 -39q94 0 131 74h83q-19 -69 -78 -109.5t-139 -40.5q-106 0 -173.5 68t-67.5 176q0 110 69 180t173 70q98 0 160.5 -63.5t62.5 -166.5zM290 409q-57 0 -96.5 -33t-51.5 -93h282q-8 62 -43.5 94t-90.5 32z" />
    <glyph glyph-name="f" unicode="f" horiz-adv-x="346" 
d="M287 636q-48 0 -70.5 -24t-22.5 -81v-61h128v-75h-128v-395h-88v395h-88v75h88v59q0 89 42.5 136t119.5 47q32 0 58 -7v-73q-18 4 -39 4z" />
    <glyph glyph-name="g" unicode="g" horiz-adv-x="501" 
d="M489 482v-54l-87 -7q40 -45 40 -111q0 -76 -52 -124t-136 -48q-45 0 -85 16q-20 -4 -32.5 -17t-12.5 -31q0 -41 58 -41h152q74 0 114.5 -36t40.5 -102q0 -77 -60 -120t-180 -43q-110 0 -167.5 37.5t-57.5 103.5q0 73 67 106q-47 28 -47 82q0 34 19.5 59t51.5 37
q-49 47 -49 121q0 76 52 124t136 48h235zM254 208q49 0 77.5 28t28.5 74q0 47 -28.5 75t-77.5 28t-77.5 -28t-28.5 -75q0 -46 28.5 -74t77.5 -28zM405 -75q0 63 -89 63h-132q-34 0 -55 -19.5t-21 -50.5q0 -79 147 -79q150 0 150 86z" />
    <glyph glyph-name="h" unicode="h" horiz-adv-x="563" 
d="M319 482q78 0 124 -49t46 -136v-297h-88v263q0 76 -26.5 108.5t-79.5 32.5q-60 0 -94.5 -37.5t-34.5 -110.5v-256h-88v700h88v-293h3q49 75 150 75z" />
    <glyph glyph-name="i" unicode="i" horiz-adv-x="244" 
d="M122 554q-25 0 -42.5 17.5t-17.5 42.5t17.5 42.5t42.5 17.5t42.5 -17.5t17.5 -42.5t-17.5 -42.5t-42.5 -17.5zM78 0v470h88v-470h-88z" />
    <glyph glyph-name="j" unicode="j" horiz-adv-x="244" 
d="M122 554q-25 0 -42.5 17.5t-17.5 42.5t17.5 42.5t42.5 17.5t42.5 -17.5t17.5 -42.5t-17.5 -42.5t-42.5 -17.5zM31 -236q-27 0 -49 5v73q16 -2 30 -2q36 0 51 16.5t15 59.5v554h88v-554q0 -80 -32.5 -116t-102.5 -36z" />
    <glyph glyph-name="k" unicode="k" horiz-adv-x="506" 
d="M496 0h-115l-212 223h-3v-223h-88v700h88v-431h2l209 201h113l-231 -222z" />
    <glyph glyph-name="l" unicode="l" horiz-adv-x="244" 
d="M78 0v700h88v-700h-88z" />
    <glyph glyph-name="m" unicode="m" horiz-adv-x="858" 
d="M620 482q74 0 119 -49t45 -136v-297h-88v267q0 137 -99 137q-55 0 -88.5 -38.5t-33.5 -107.5v-258h-88v267q0 137 -98 137q-55 0 -89 -38t-34 -108v-258h-88v470h79l6 -63h3q22 35 62 55t85 20q102 0 141 -88h3q24 40 67.5 64t95.5 24z" />
    <glyph glyph-name="n" unicode="n" horiz-adv-x="563" 
d="M319 482q78 0 124 -49t46 -136v-297h-88v263q0 76 -26.5 108.5t-79.5 32.5q-60 0 -94.5 -37.5t-34.5 -110.5v-256h-88v470h79l6 -63h3q48 75 153 75z" />
    <glyph glyph-name="o" unicode="o" horiz-adv-x="580" 
d="M290 -12q-105 0 -173.5 69.5t-68.5 177.5t68.5 177.5t173.5 69.5t173.5 -69.5t68.5 -177.5t-68.5 -177.5t-173.5 -69.5zM290 64q67 0 109.5 47t42.5 124t-42.5 124t-109.5 47t-109.5 -47t-42.5 -124t42.5 -124t109.5 -47z" />
    <glyph glyph-name="p" unicode="p" horiz-adv-x="599" 
d="M325 482q97 0 161 -69.5t64 -177.5t-64.5 -177.5t-160.5 -69.5q-49 0 -92 20t-64 54h-3v-286h-88v694h79l6 -63h3q21 33 64 54t95 21zM311 64q66 0 107.5 46.5t41.5 124.5t-41.5 124.5t-107.5 46.5t-107.5 -46.5t-41.5 -124.5t41.5 -124.5t107.5 -46.5z" />
    <glyph glyph-name="q" unicode="q" horiz-adv-x="599" 
d="M442 470h79v-694h-88v286h-3q-21 -34 -64 -54t-92 -20q-96 0 -160.5 69.5t-64.5 177.5t64 177.5t161 69.5q52 0 95 -21t64 -54h3zM288 64q66 0 107.5 46.5t41.5 124.5t-41.5 124.5t-107.5 46.5t-107.5 -46.5t-41.5 -124.5t41.5 -124.5t107.5 -46.5z" />
    <glyph glyph-name="r" unicode="r" horiz-adv-x="367" 
d="M296 479q26 0 47 -8v-76q-21 3 -41 3q-136 0 -136 -152v-246h-88v470h78l7 -72h3q16 37 51 59t79 22z" />
    <glyph glyph-name="s" unicode="s" horiz-adv-x="462" 
d="M237 -12q-85 0 -137.5 41.5t-57.5 112.5h88q5 -40 33.5 -61.5t74.5 -21.5q45 0 72.5 20t27.5 52q0 26 -21.5 42t-73.5 26l-57 11q-137 27 -137 128q0 63 50 103.5t135 40.5q80 0 127.5 -37t53.5 -104h-88q-8 70 -98 70q-45 0 -70 -18.5t-25 -49.5q0 -23 19.5 -37
t74.5 -25l57 -11q71 -13 104.5 -45.5t33.5 -86.5q0 -67 -50 -108.5t-136 -41.5z" />
    <glyph glyph-name="t" unicode="t" horiz-adv-x="361" 
d="M282 63q25 0 45 4v-72q-26 -7 -63 -7q-83 0 -122.5 41t-39.5 135v231h-86v75h86v119h88v-119h133v-75h-133v-231q0 -58 20.5 -79.5t71.5 -21.5z" />
    <glyph glyph-name="u" unicode="u" horiz-adv-x="557" 
d="M391 470h88v-470h-79l-6 63h-3q-22 -35 -62.5 -55t-87.5 -20q-75 0 -121 49t-46 136v297h88v-263q0 -75 26 -108t77 -33q58 0 92 38t34 110v256z" />
    <glyph glyph-name="v" unicode="v" horiz-adv-x="497" 
d="M204 0l-192 470h92l143 -365h3l143 365h92l-192 -470h-89z" />
    <glyph glyph-name="w" unicode="w" horiz-adv-x="788" 
d="M179 0l-157 470h91l113 -357h3l125 357h80l125 -357h3l113 357h91l-157 -470h-90l-124 355h-2l-124 -355h-90z" />
    <glyph glyph-name="x" unicode="x" horiz-adv-x="489" 
d="M471 0h-98l-128 180l-129 -180h-98l175 243l-165 227h97l120 -165l119 165h97l-165 -227z" />
    <glyph glyph-name="y" unicode="y" horiz-adv-x="499" 
d="M396 470h91l-285 -694h-89l92 224l-193 470h93l143 -365h3z" />
    <glyph glyph-name="z" unicode="z" horiz-adv-x="446" 
d="M149 76h259v-76h-370v58l254 337h-250v75h360v-58z" />
    <glyph glyph-name="braceleft" unicode="{" horiz-adv-x="371" 
d="M254 -114q-73 0 -106.5 30.5t-33.5 96.5v204q0 30 -15 44t-49 14h-12v78h12q34 0 49 14t15 44v204q0 66 33.5 96.5t106.5 30.5h82v-78h-76q-58 0 -58 -57v-189q0 -79 -67 -102v-4q67 -23 67 -102v-189q0 -57 58 -57h76v-78h-82z" />
    <glyph glyph-name="bar" unicode="|" horiz-adv-x="316" 
d="M116 -100v865h84v-865h-84z" />
    <glyph glyph-name="braceright" unicode="}" horiz-adv-x="371" 
d="M117 -114h-82v78h76q58 0 58 57v189q0 79 67 102v4q-67 23 -67 102v189q0 57 -58 57h-76v78h82q73 0 106.5 -30.5t33.5 -96.5v-204q0 -30 15 -44t49 -14h12v-78h-12q-34 0 -49 -14t-15 -44v-204q0 -66 -33.5 -96.5t-106.5 -30.5z" />
    <glyph glyph-name="asciitilde" unicode="~" horiz-adv-x="650" 
d="M430 257q-36 0 -104 21t-105 21q-56 0 -116 -41v78q54 40 118 40q35 0 104 -21t102 -21q66 0 116 41v-78q-56 -40 -115 -40z" />
    <glyph glyph-name="uni00A0" unicode="&#xa0;" horiz-adv-x="240" 
 />
    <glyph glyph-name="exclamdown" unicode="&#xa1;" horiz-adv-x="278" 
d="M139 482q27 0 45 -18t18 -45t-18 -45t-45 -18t-45 18t-18 45t18 45t45 18zM105 259h68l12 -484h-92z" />
    <glyph glyph-name="cent" unicode="&#xa2;" horiz-adv-x="562" 
d="M520 287q-9 -79 -64 -127.5t-139 -55.5v-104h-58v105q-93 11 -149.5 78.5t-56.5 166.5q0 98 57 165t149 80v105h58v-104q84 -5 137.5 -54t62.5 -129h-86q-6 46 -36 74.5t-78 34.5v-344q49 6 81.5 35t38.5 74h83zM140 350q0 -68 32.5 -113t86.5 -56v338q-54 -11 -86.5 -56
t-32.5 -113z" />
    <glyph glyph-name="sterling" unicode="&#xa3;" horiz-adv-x="539" 
d="M189 78h314v-78h-457v61q130 65 130 169q0 26 -9 60h-117v70h87q-1 1 -7.5 14.5t-7.5 16t-7 15t-7.5 16t-6 15t-6 17t-4.5 16t-4 18t-2 17t-1 18.5q0 82 58.5 135.5t153.5 53.5t150.5 -56t55.5 -157h-87q-3 140 -119 140q-57 0 -91 -33t-34 -85q0 -15 2.5 -30t10 -35.5
t11 -28.5t16.5 -35.5t15 -31.5h190v-70h-164q9 -38 9 -64q0 -92 -72 -148z" />
    <glyph glyph-name="currency" unicode="&#xa4;" horiz-adv-x="548" 
d="M466 350q0 -62 -32 -111l74 -75l-48 -48l-74 73q-47 -33 -112 -33q-63 0 -112 33l-73 -73l-49 48l75 75q-32 47 -32 111t32 111l-75 75l49 48l73 -73q49 33 112 33q65 0 112 -33l74 73l48 -48l-74 -75q32 -49 32 -111zM274 231q51 0 82.5 33t31.5 86t-31.5 86t-82.5 33
t-82 -33t-31 -86t31 -86t82 -33z" />
    <glyph glyph-name="yen" unicode="&#xa5;" horiz-adv-x="562" 
d="M544 700l-190 -355h150v-62h-180v-88h180v-62h-180v-133h-86v133h-180v62h180v88h-180v62h150l-190 355h95l168 -326l168 326h95z" />
    <glyph glyph-name="brokenbar" unicode="&#xa6;" horiz-adv-x="316" 
d="M116 407v358h84v-358h-84zM116 -100v350h84v-350h-84z" />
    <glyph glyph-name="section" unicode="&#xa7;" horiz-adv-x="543" 
d="M390 165q88 -42 88 -130q0 -72 -56.5 -119t-147.5 -47t-147 48.5t-59 136.5h92q2 -52 32.5 -78.5t83.5 -26.5q51 0 81 23.5t30 59.5q0 29 -24.5 48t-87.5 33l-54 12q-76 17 -116 52.5t-40 99.5q0 47 23.5 85t64.5 54q-88 42 -88 130q0 72 56 119t144 47q86 0 140 -46.5
t59 -128.5h-92q-8 95 -110 95q-49 0 -77.5 -23t-28.5 -60q0 -30 24 -48t88 -33l54 -12q76 -17 116 -52.5t40 -99.5q0 -47 -23.5 -85t-64.5 -54zM288 194q36 -8 68 21.5t32 77.5q0 35 -21.5 54t-76.5 32l-35 8q-36 8 -68 -21.5t-32 -77.5q0 -35 21.5 -54t76.5 -32z" />
    <glyph glyph-name="dieresis" unicode="&#xa8;" horiz-adv-x="600" 
d="M200 554q-25 0 -42.5 17.5t-17.5 42.5t17.5 42.5t42.5 17.5t42.5 -17.5t17.5 -42.5t-17.5 -42.5t-42.5 -17.5zM400 554q-25 0 -42.5 17.5t-17.5 42.5t17.5 42.5t42.5 17.5t42.5 -17.5t17.5 -42.5t-17.5 -42.5t-42.5 -17.5z" />
    <glyph glyph-name="copyright" unicode="&#xa9;" horiz-adv-x="836" 
d="M418 -12q-153 0 -259 105t-106 257t106 257t259 105t259 -105t106 -257t-106 -257t-259 -105zM418 56q124 0 207.5 85.5t83.5 208.5t-83.5 208.5t-207.5 85.5t-207.5 -85.5t-83.5 -208.5t83.5 -208.5t207.5 -85.5zM427 150q-86 0 -141 56t-55 144t55 144t141 56
q73 0 121.5 -41.5t53.5 -113.5h-83q-4 37 -29 59t-64 22q-48 0 -79 -34.5t-31 -91.5t31 -91.5t79 -34.5q42 0 67.5 22t29.5 59h81q-7 -72 -55.5 -113.5t-121.5 -41.5z" />
    <glyph glyph-name="ordfeminine" unicode="&#xaa;" horiz-adv-x="497" 
d="M363 702h78v-403h-78l-5 54h-3q-17 -29 -53 -46.5t-79 -17.5q-81 0 -135 59t-54 152t54 152.5t135 59.5q43 0 79 -17.5t53 -46.5h3zM241 364q53 0 86 37t33 99q0 63 -33 99.5t-86 36.5t-86 -36.5t-33 -99.5q0 -62 33 -99t86 -37z" />
    <glyph glyph-name="guillemotleft" unicode="&#xab;" horiz-adv-x="560" 
d="M295 500l-149 -214l149 -214h-100l-150 214l150 214h100zM510 500l-149 -214l149 -214h-100l-150 214l150 214h100z" />
    <glyph glyph-name="logicalnot" unicode="&#xac;" horiz-adv-x="650" 
d="M105 356h440v-183h-82v105h-358v78z" />
    <glyph glyph-name="registered" unicode="&#xae;" horiz-adv-x="473" 
d="M237 712q84 0 142.5 -59t58.5 -142t-58.5 -142t-142.5 -59t-143 59t-59 142q0 84 59 142.5t143 58.5zM237 350q66 0 111.5 47t45.5 114t-45.5 114t-111.5 47q-67 0 -112.5 -47t-45.5 -114t45.5 -114t112.5 -47zM326 550q0 -55 -49 -66l56 -76h-58l-49 73h-21v-73h-48v213
h96q34 0 53.5 -18.5t19.5 -52.5zM205 572v-46h45q25 0 25 23t-25 23h-45z" />
    <glyph glyph-name="macron" unicode="&#xaf;" horiz-adv-x="600" 
d="M169 575v68h262v-68h-262z" />
    <glyph glyph-name="degree" unicode="&#xb0;" horiz-adv-x="376" 
d="M188 420q-64 0 -106 42t-42 104t42 104t106 42t106 -42t42 -104t-42 -104t-106 -42zM188 488q35 0 55.5 22t20.5 56t-20.5 56t-55.5 22t-55.5 -22t-20.5 -56t20.5 -56t55.5 -22z" />
    <glyph glyph-name="plusminus" unicode="&#xb1;" horiz-adv-x="650" 
d="M105 337v78h179v180h83v-180h178v-78h-178v-179h-83v179h-179zM105 0v78h440v-78h-440z" />
    <glyph glyph-name="uni00B2" unicode="&#xb2;" horiz-adv-x="370" 
d="M215 433q-80 -48 -91 -91h207v-71h-289v40q0 57 23.5 91.5t96.5 79.5q55 34 73.5 55t18.5 46q0 28 -16.5 43.5t-46.5 15.5q-33 0 -53.5 -20.5t-21.5 -61.5h-79q1 71 43.5 111.5t111.5 40.5q64 0 102 -35t38 -93q0 -42 -26 -76.5t-91 -74.5z" />
    <glyph glyph-name="uni00B3" unicode="&#xb3;" horiz-adv-x="378" 
d="M267 494q73 -28 73 -104q0 -55 -42 -90.5t-109 -35.5q-68 0 -108 37.5t-40 104.5h79q0 -33 19.5 -52t51.5 -19t51.5 18.5t19.5 46.5t-19.5 44t-54.5 16h-43v65h42q32 0 49 15.5t17 42.5t-17 42.5t-47 15.5q-63 0 -66 -64h-79q3 61 43 98t105 37q62 0 100 -33t38 -88
q0 -70 -63 -97z" />
    <glyph glyph-name="acute" unicode="&#xb4;" horiz-adv-x="600" 
d="M225 544l67 140h109l-99 -140h-77z" />
    <glyph glyph-name="uni00B5" unicode="&#xb5;" horiz-adv-x="561" 
d="M395 470h88v-470h-79l-6 63h-3q-48 -75 -126 -75q-65 0 -103 52v-264h-88v694h88v-266q0 -136 111 -136q54 0 86 37.5t32 108.5v256z" />
    <glyph glyph-name="paragraph" unicode="&#xb6;" horiz-adv-x="662" 
d="M70 550q0 67 50 108.5t140 41.5h93v-828h-88v528h-15q-83 0 -131.5 42t-48.5 108zM458 700h88v-828h-88v828z" />
    <glyph glyph-name="periodcentered" unicode="&#xb7;" horiz-adv-x="250" 
d="M125 252q-27 0 -45 18t-18 45t18 45t45 18t45 -18t18 -45t-18 -45t-45 -18z" />
    <glyph glyph-name="cedilla" unicode="&#xb8;" horiz-adv-x="600" 
d="M297 -53q42 -5 64.5 -26t22.5 -56q0 -42 -32.5 -66.5t-93.5 -24.5q-20 0 -43 3v63q14 -2 37 -2q60 0 60 33q0 14 -17 21t-67 7l8 101h62z" />
    <glyph glyph-name="uni00B9" unicode="&#xb9;" horiz-adv-x="283" 
d="M152 700h63v-434h-78v322h-93v55h18q45 0 63.5 12t26.5 45z" />
    <glyph glyph-name="ordmasculine" unicode="&#xba;" horiz-adv-x="484" 
d="M242 289q-90 0 -149 59t-59 152t59 152.5t149 59.5t149 -59.5t59 -152.5t-59 -152t-149 -59zM242 364q53 0 87 38t34 98q0 61 -34 98.5t-87 37.5q-52 0 -86 -37.5t-34 -98.5t34 -98.5t86 -37.5z" />
    <glyph glyph-name="guillemotright" unicode="&#xbb;" horiz-adv-x="560" 
d="M150 500l150 -214l-150 -214h-100l149 214l-149 214h100zM365 500l150 -214l-150 -214h-100l149 214l-149 214h100z" />
    <glyph glyph-name="onequarter" unicode="&#xbc;" horiz-adv-x="878" 
d="M153 266v322h-93v55h18q45 0 63.5 12t26.5 45h63v-434h-78zM601 700h89l-454 -700h-89zM808 149v-67h-53v-82h-73v82h-209v62l189 290h93v-285h53zM553 149h129v198z" />
    <glyph glyph-name="onehalf" unicode="&#xbd;" horiz-adv-x="904" 
d="M153 266v322h-93v55h18q45 0 63.5 12t26.5 45h63v-434h-78zM597 700h89l-454 -700h-89zM717 162q-80 -48 -91 -91h207v-71h-289v40q0 57 23.5 91.5t96.5 79.5q55 34 73.5 55t18.5 46q0 28 -16.5 43.5t-46.5 15.5q-33 0 -53.5 -20.5t-21.5 -61.5h-79q1 71 43.5 111.5
t111.5 40.5q64 0 102 -35t38 -93q0 -42 -26 -76.5t-91 -74.5z" />
    <glyph glyph-name="threequarters" unicode="&#xbe;" horiz-adv-x="977" 
d="M364 390q0 -55 -42 -90.5t-109 -35.5q-68 0 -108 37.5t-40 104.5h79q0 -33 19.5 -52t51.5 -19t51.5 18.5t19.5 46.5t-19.5 44t-54.5 16h-43v65h42q32 0 49 15.5t17 42.5t-17 42.5t-47 15.5q-63 0 -66 -64h-79q3 61 43 98t105 37q62 0 100 -33t38 -88q0 -70 -63 -97
q73 -28 73 -104zM700 700h89l-454 -700h-89zM907 149v-67h-53v-82h-73v82h-209v62l189 290h93v-285h53zM652 149h129v198z" />
    <glyph glyph-name="questiondown" unicode="&#xbf;" horiz-adv-x="491" 
d="M270 483q27 0 45 -18t18 -45t-18 -45t-45 -18t-45 18t-18 45t18 45t45 18zM314 260v-46q0 -50 -15.5 -81t-62.5 -70l-49 -41q-53 -45 -53 -90q0 -41 27 -65.5t74 -24.5q55 0 87.5 33t33.5 91h89q-3 -93 -61 -147.5t-148 -54.5q-83 0 -136.5 46t-53.5 119q0 81 90 156
l49 41q26 22 33.5 38t7.5 50v46h88z" />
    <glyph glyph-name="Agrave" unicode="&#xc0;" horiz-adv-x="647" 
d="M380 770h-81l-105 148h115zM538 0l-63 175h-303l-63 -175h-93l258 700h99l258 -700h-93zM200 255h247l-122 339h-3z" />
    <glyph glyph-name="Aacute" unicode="&#xc1;" horiz-adv-x="647" 
d="M450 918l-105 -148h-81l71 148h115zM538 0l-63 175h-303l-63 -175h-93l258 700h99l258 -700h-93zM200 255h247l-122 339h-3z" />
    <glyph glyph-name="Acircumflex" unicode="&#xc2;" horiz-adv-x="647" 
d="M324 862l-76 -92h-89l124 148h82l124 -148h-89zM538 0l-63 175h-303l-63 -175h-93l258 700h99l258 -700h-93zM200 255h247l-122 339h-3z" />
    <glyph glyph-name="Atilde" unicode="&#xc3;" horiz-adv-x="647" 
d="M254 856q-35 0 -35 -80h-65q0 71 27 108t72 37q46 0 92 -53q31 -35 50 -35q35 0 35 80h65q0 -71 -27 -108t-72 -37t-92 53q-32 35 -50 35zM538 0l-63 175h-303l-63 -175h-93l258 700h99l258 -700h-93zM200 255h247l-122 339h-3z" />
    <glyph glyph-name="Adieresis" unicode="&#xc4;" horiz-adv-x="647" 
d="M218 780q-26 0 -45 18.5t-19 45.5t19 45.5t45 18.5t45 -18.5t19 -45.5t-19 -45.5t-45 -18.5zM430 780q-26 0 -45 18.5t-19 45.5t19 45.5t45 18.5t45 -18.5t19 -45.5t-19 -45.5t-45 -18.5zM538 0l-63 175h-303l-63 -175h-93l258 700h99l258 -700h-93zM200 255h247
l-122 339h-3z" />
    <glyph glyph-name="Aring" unicode="&#xc5;" horiz-adv-x="647" 
d="M538 0l-63 175h-303l-63 -175h-93l243 659q-47 31 -47 88q0 45 32 76t80 31t80 -31t32 -76q0 -58 -48 -88l243 -659h-93zM324 794q-21 0 -34 -13.5t-13 -33.5t13 -33.5t34 -13.5t34 13.5t13 33.5t-13 33.5t-34 13.5zM200 255h247l-122 339h-3z" />
    <glyph glyph-name="AE" unicode="&#xc6;" horiz-adv-x="1008" 
d="M942 616h-334v-222h306v-84h-306v-226h334v-84h-426v183h-281l-116 -183h-107l454 700h476v-84zM286 263h230v353h-6z" />
    <glyph glyph-name="Ccedilla" unicode="&#xc7;" horiz-adv-x="761" 
d="M713 254q-13 -116 -98 -189t-208 -77l-1 -41q42 -5 64.5 -26t22.5 -56q0 -42 -32.5 -66.5t-93.5 -24.5q-21 0 -43 3v63q14 -2 37 -2q60 0 60 33q0 14 -17 21t-67 7l7 92q-128 18 -209.5 116.5t-81.5 242.5q0 159 98 260.5t245 101.5q125 0 213.5 -73.5t101.5 -192.5h-94
q-16 88 -74 135t-144 47q-110 0 -181 -75.5t-71 -202.5t71 -202.5t181 -75.5q87 0 147 48.5t76 133.5h91z" />
    <glyph glyph-name="Egrave" unicode="&#xc8;" horiz-adv-x="588" 
d="M365 770h-81l-105 148h115zM522 616h-334v-222h306v-84h-306v-226h334v-84h-426v700h426v-84z" />
    <glyph glyph-name="Eacute" unicode="&#xc9;" horiz-adv-x="588" 
d="M435 918l-105 -148h-81l71 148h115zM522 616h-334v-222h306v-84h-306v-226h334v-84h-426v700h426v-84z" />
    <glyph glyph-name="Ecircumflex" unicode="&#xca;" horiz-adv-x="588" 
d="M309 862l-76 -92h-89l124 148h82l124 -148h-89zM522 616h-334v-222h306v-84h-306v-226h334v-84h-426v700h426v-84z" />
    <glyph glyph-name="Edieresis" unicode="&#xcb;" horiz-adv-x="588" 
d="M203 780q-26 0 -45 18.5t-19 45.5t19 45.5t45 18.5t45 -18.5t19 -45.5t-19 -45.5t-45 -18.5zM415 780q-26 0 -45 18.5t-19 45.5t19 45.5t45 18.5t45 -18.5t19 -45.5t-19 -45.5t-45 -18.5zM522 616h-334v-222h306v-84h-306v-226h334v-84h-426v700h426v-84z" />
    <glyph glyph-name="Igrave" unicode="&#xcc;" horiz-adv-x="284" 
d="M117 770l-105 148h115l71 -148h-81zM96 0v700h92v-700h-92z" />
    <glyph glyph-name="Iacute" unicode="&#xcd;" horiz-adv-x="284" 
d="M82 770l71 148h115l-105 -148h-81zM96 0v700h92v-700h-92z" />
    <glyph glyph-name="Icircumflex" unicode="&#xce;" horiz-adv-x="284" 
d="M183 918l124 -148h-89l-76 92l-76 -92h-89l124 148h82zM96 0v700h92v-700h-92z" />
    <glyph glyph-name="Idieresis" unicode="&#xcf;" horiz-adv-x="284" 
d="M36 780q-26 0 -45 18.5t-19 45.5t19 45.5t45 18.5t45 -18.5t19 -45.5t-19 -45.5t-45 -18.5zM248 780q-26 0 -45 18.5t-19 45.5t19 45.5t45 18.5t45 -18.5t19 -45.5t-19 -45.5t-45 -18.5zM96 0v700h92v-700h-92z" />
    <glyph glyph-name="Eth" unicode="&#xd0;" horiz-adv-x="702" 
d="M276 700q168 0 270 -95t102 -255t-102 -255t-270 -95h-172v313h-104v74h104v313h172zM280 84q125 0 199.5 69.5t74.5 196.5t-74.5 196.5t-199.5 69.5h-84v-229h158v-74h-158v-229h84z" />
    <glyph glyph-name="Ntilde" unicode="&#xd1;" horiz-adv-x="747" 
d="M304 856q-35 0 -35 -80h-65q0 71 27 108t72 37q46 0 92 -53q31 -35 50 -35q35 0 35 80h65q0 -71 -27 -108t-72 -37t-92 53q-32 35 -50 35zM559 700h92v-700h-97l-363 551h-3v-551h-92v700h97l363 -551h3v551z" />
    <glyph glyph-name="Ograve" unicode="&#xd2;" horiz-adv-x="796" 
d="M373 770l-105 148h115l71 -148h-81zM398 -12q-149 0 -247 102t-98 260t98 260t247 102t247 -102t98 -260t-98 -260t-247 -102zM398 72q110 0 180.5 76t70.5 202t-70.5 202t-180.5 76t-180.5 -76t-70.5 -202t70.5 -202t180.5 -76z" />
    <glyph glyph-name="Oacute" unicode="&#xd3;" horiz-adv-x="796" 
d="M338 770l71 148h115l-105 -148h-81zM398 -12q-149 0 -247 102t-98 260t98 260t247 102t247 -102t98 -260t-98 -260t-247 -102zM398 72q110 0 180.5 76t70.5 202t-70.5 202t-180.5 76t-180.5 -76t-70.5 -202t70.5 -202t180.5 -76z" />
    <glyph glyph-name="Ocircumflex" unicode="&#xd4;" horiz-adv-x="796" 
d="M398 862l-76 -92h-89l124 148h82l124 -148h-89zM398 712q149 0 247 -102t98 -260t-98 -260t-247 -102t-247 102t-98 260t98 260t247 102zM398 72q110 0 180.5 76t70.5 202t-70.5 202t-180.5 76t-180.5 -76t-70.5 -202t70.5 -202t180.5 -76z" />
    <glyph glyph-name="Otilde" unicode="&#xd5;" horiz-adv-x="796" 
d="M470 768q-45 0 -92 53q-32 35 -50 35q-35 0 -35 -80h-65q0 71 27 108t72 37q46 0 92 -53q31 -35 50 -35q35 0 35 80h65q0 -71 -27 -108t-72 -37zM398 -12q-149 0 -247 102t-98 260t98 260t247 102t247 -102t98 -260t-98 -260t-247 -102zM398 72q110 0 180.5 76t70.5 202
t-70.5 202t-180.5 76t-180.5 -76t-70.5 -202t70.5 -202t180.5 -76z" />
    <glyph glyph-name="Odieresis" unicode="&#xd6;" horiz-adv-x="796" 
d="M292 780q-26 0 -45 18.5t-19 45.5t19 45.5t45 18.5t45 -18.5t19 -45.5t-19 -45.5t-45 -18.5zM504 780q-26 0 -45 18.5t-19 45.5t19 45.5t45 18.5t45 -18.5t19 -45.5t-19 -45.5t-45 -18.5zM398 -12q-149 0 -247 102t-98 260t98 260t247 102t247 -102t98 -260t-98 -260
t-247 -102zM398 72q110 0 180.5 76t70.5 202t-70.5 202t-180.5 76t-180.5 -76t-70.5 -202t70.5 -202t180.5 -76z" />
    <glyph glyph-name="multiply" unicode="&#xd7;" horiz-adv-x="650" 
d="M173 112l-53 53l152 152l-152 152l53 53l152 -152l152 152l53 -53l-152 -152l152 -152l-53 -53l-152 152z" />
    <glyph glyph-name="Oslash" unicode="&#xd8;" horiz-adv-x="810" 
d="M762 652l-79 -79q67 -96 67 -223q0 -158 -98 -260t-247 -102q-131 0 -226 81l-76 -76l-55 55l79 79q-67 96 -67 223q0 158 98 260t247 102q131 0 226 -81l76 76zM405 628q-110 0 -180.5 -76t-70.5 -202q0 -91 39 -158l376 376q-66 60 -164 60zM405 72q110 0 180.5 76
t70.5 202q0 91 -39 158l-376 -376q66 -60 164 -60z" />
    <glyph glyph-name="Ugrave" unicode="&#xd9;" horiz-adv-x="706" 
d="M328 770l-105 148h115l71 -148h-81zM353 -12q-122 0 -194.5 77t-72.5 209v426h92v-430q0 -95 47 -146.5t128 -51.5t128 51.5t47 146.5v430h92v-426q0 -132 -72.5 -209t-194.5 -77z" />
    <glyph glyph-name="Uacute" unicode="&#xda;" horiz-adv-x="706" 
d="M293 770l71 148h115l-105 -148h-81zM353 -12q-122 0 -194.5 77t-72.5 209v426h92v-430q0 -95 47 -146.5t128 -51.5t128 51.5t47 146.5v430h92v-426q0 -132 -72.5 -209t-194.5 -77z" />
    <glyph glyph-name="Ucircumflex" unicode="&#xdb;" horiz-adv-x="706" 
d="M353 862l-76 -92h-89l124 148h82l124 -148h-89zM528 700h92v-426q0 -132 -72.5 -209t-194.5 -77t-194.5 77t-72.5 209v426h92v-430q0 -95 47 -146.5t128 -51.5t128 51.5t47 146.5v430z" />
    <glyph glyph-name="Udieresis" unicode="&#xdc;" horiz-adv-x="706" 
d="M247 780q-26 0 -45 18.5t-19 45.5t19 45.5t45 18.5t45 -18.5t19 -45.5t-19 -45.5t-45 -18.5zM459 780q-26 0 -45 18.5t-19 45.5t19 45.5t45 18.5t45 -18.5t19 -45.5t-19 -45.5t-45 -18.5zM353 -12q-122 0 -194.5 77t-72.5 209v426h92v-430q0 -95 47 -146.5t128 -51.5
t128 51.5t47 146.5v430h92v-426q0 -132 -72.5 -209t-194.5 -77z" />
    <glyph glyph-name="Yacute" unicode="&#xdd;" horiz-adv-x="624" 
d="M252 770l71 148h115l-105 -148h-81zM266 0v275l-258 425h104l199 -339h2l199 339h104l-258 -425v-275h-92z" />
    <glyph glyph-name="Thorn" unicode="&#xde;" horiz-adv-x="635" 
d="M317 583q127 0 198 -62.5t71 -170.5q0 -109 -71 -172t-198 -63h-129v-115h-92v700h92v-117h129zM309 199q183 0 183 151q0 149 -183 149h-121v-300h121z" />
    <glyph glyph-name="germandbls" unicode="&#xdf;" horiz-adv-x="577" 
d="M316 -12q-40 0 -73 9v74q27 -7 55 -7q71 0 107 32.5t36 90.5q0 59 -35.5 91t-103.5 32h-54v80h17q69 0 104 34.5t35 96.5q0 115 -115 115q-123 0 -123 -147v-489h-88v493q0 104 55.5 161.5t153.5 57.5q94 0 149.5 -51t55.5 -136q0 -62 -30.5 -106t-86.5 -60v-2
q74 -11 115 -57.5t41 -117.5q0 -87 -58 -140.5t-157 -53.5z" />
    <glyph glyph-name="agrave" unicode="&#xe0;" horiz-adv-x="542" 
d="M318 544h-77l-99 140h109zM274 482q93 0 143.5 -48t50.5 -135v-299h-79l-6 64h-3q-23 -34 -68 -55t-98 -21q-71 0 -114.5 37.5t-43.5 97.5q0 58 42.5 95.5t122.5 48.5l160 22v10q0 108 -110 108q-103 0 -109 -88h-90q5 76 58.5 119.5t143.5 43.5zM233 61q65 0 106.5 40
t41.5 101v20l-131 -18q-104 -14 -104 -78q0 -30 22.5 -47.5t64.5 -17.5z" />
    <glyph glyph-name="aacute" unicode="&#xe1;" horiz-adv-x="542" 
d="M388 684l-99 -140h-77l67 140h109zM274 482q93 0 143.5 -48t50.5 -135v-299h-79l-6 64h-3q-23 -34 -68 -55t-98 -21q-71 0 -114.5 37.5t-43.5 97.5q0 58 42.5 95.5t122.5 48.5l160 22v10q0 108 -110 108q-103 0 -109 -88h-90q5 76 58.5 119.5t143.5 43.5zM233 61
q65 0 106.5 40t41.5 101v20l-131 -18q-104 -14 -104 -78q0 -30 22.5 -47.5t64.5 -17.5z" />
    <glyph glyph-name="acircumflex" unicode="&#xe2;" horiz-adv-x="542" 
d="M267 631l-72 -87h-84l117 140h78l117 -140h-84zM274 482q93 0 143.5 -48t50.5 -135v-299h-79l-6 64h-3q-23 -34 -68 -55t-98 -21q-71 0 -114.5 37.5t-43.5 97.5q0 58 42.5 95.5t122.5 48.5l160 22v10q0 108 -110 108q-103 0 -109 -88h-90q5 76 58.5 119.5t143.5 43.5z
M233 61q65 0 106.5 40t41.5 101v20l-131 -18q-104 -14 -104 -78q0 -30 22.5 -47.5t64.5 -17.5z" />
    <glyph glyph-name="atilde" unicode="&#xe3;" horiz-adv-x="542" 
d="M201 625q-33 0 -33 -75h-61q0 67 25.5 102t67.5 35q44 0 87 -50q28 -33 47 -33q33 0 33 75h61q0 -67 -25.5 -102t-67.5 -35q-43 0 -87 50q-29 33 -47 33zM274 482q93 0 143.5 -48t50.5 -135v-299h-79l-6 64h-3q-23 -34 -68 -55t-98 -21q-71 0 -114.5 37.5t-43.5 97.5
q0 58 42.5 95.5t122.5 48.5l160 22v10q0 108 -110 108q-103 0 -109 -88h-90q5 76 58.5 119.5t143.5 43.5zM233 61q65 0 106.5 40t41.5 101v20l-131 -18q-104 -14 -104 -78q0 -30 22.5 -47.5t64.5 -17.5z" />
    <glyph glyph-name="adieresis" unicode="&#xe4;" horiz-adv-x="542" 
d="M167 554q-25 0 -42.5 17.5t-17.5 42.5t17.5 42.5t42.5 17.5t42.5 -17.5t17.5 -42.5t-17.5 -42.5t-42.5 -17.5zM367 554q-25 0 -42.5 17.5t-17.5 42.5t17.5 42.5t42.5 17.5t42.5 -17.5t17.5 -42.5t-17.5 -42.5t-42.5 -17.5zM274 482q93 0 143.5 -48t50.5 -135v-299h-79
l-6 64h-3q-23 -34 -68 -55t-98 -21q-71 0 -114.5 37.5t-43.5 97.5q0 58 42.5 95.5t122.5 48.5l160 22v10q0 108 -110 108q-103 0 -109 -88h-90q5 76 58.5 119.5t143.5 43.5zM233 61q65 0 106.5 40t41.5 101v20l-131 -18q-104 -14 -104 -78q0 -30 22.5 -47.5t64.5 -17.5z" />
    <glyph glyph-name="aring" unicode="&#xe5;" horiz-adv-x="542" 
d="M267 537q-45 0 -75.5 29t-30.5 72t30.5 72t75.5 29t75.5 -29t30.5 -72t-30.5 -72t-75.5 -29zM267 682q-20 0 -32 -12.5t-12 -31.5t12 -31.5t32 -12.5t32 12.5t12 31.5t-12 31.5t-32 12.5zM274 482q93 0 143.5 -48t50.5 -135v-299h-79l-6 64h-3q-23 -34 -68 -55t-98 -21
q-71 0 -114.5 37.5t-43.5 97.5q0 58 42.5 95.5t122.5 48.5l160 22v10q0 108 -110 108q-103 0 -109 -88h-90q5 76 58.5 119.5t143.5 43.5zM233 61q65 0 106.5 40t41.5 101v20l-131 -18q-104 -14 -104 -78q0 -30 22.5 -47.5t64.5 -17.5z" />
    <glyph glyph-name="ae" unicode="&#xe6;" horiz-adv-x="894" 
d="M848 252q0 -18 -3 -38h-364q5 -72 46 -111t100 -39q92 0 129 74h84q-19 -69 -78 -109.5t-138 -40.5q-62 0 -114 27.5t-80 74.5h-3q-25 -48 -77.5 -75t-121.5 -27q-81 0 -126.5 38t-45.5 101q0 70 56 110.5t164 40.5h115v15q0 59 -28 86.5t-86 27.5q-109 0 -115 -88h-90
q5 76 59.5 119.5t148.5 43.5q124 0 167 -81h3q67 81 179 81q96 0 157.5 -63.5t61.5 -166.5zM629 407q-55 0 -93.5 -32t-50.5 -92h274q-8 62 -42.5 93t-87.5 31zM237 63q69 0 111.5 40t42.5 101v4h-116q-129 0 -129 -77q0 -68 91 -68z" />
    <glyph glyph-name="ccedilla" unicode="&#xe7;" horiz-adv-x="548" 
d="M512 172q-9 -82 -66.5 -131t-142.5 -53l-1 -41q42 -5 64.5 -26t22.5 -56q0 -42 -32.5 -66.5t-93.5 -24.5q-21 0 -43 3v63q14 -2 37 -2q60 0 60 33q0 14 -17 21t-67 7l7 93q-87 16 -139 81.5t-52 161.5q0 109 68 178t175 69q90 0 148.5 -49t68.5 -135h-90
q-7 49 -41.5 78.5t-86.5 29.5q-67 0 -109.5 -46.5t-42.5 -124.5t42.5 -124.5t108.5 -46.5q53 0 90.5 29.5t44.5 78.5h87z" />
    <glyph glyph-name="egrave" unicode="&#xe8;" horiz-adv-x="559" 
d="M340 544h-77l-99 140h109zM513 252q0 -18 -3 -38h-372q5 -72 47 -111t107 -39q94 0 131 74h83q-19 -69 -78 -109.5t-139 -40.5q-106 0 -173.5 68t-67.5 176q0 110 69 180t173 70q98 0 160.5 -63.5t62.5 -166.5zM290 409q-57 0 -96.5 -33t-51.5 -93h282q-8 62 -43.5 94
t-90.5 32z" />
    <glyph glyph-name="eacute" unicode="&#xe9;" horiz-adv-x="559" 
d="M410 684l-99 -140h-77l67 140h109zM513 252q0 -18 -3 -38h-372q5 -72 47 -111t107 -39q94 0 131 74h83q-19 -69 -78 -109.5t-139 -40.5q-106 0 -173.5 68t-67.5 176q0 110 69 180t173 70q98 0 160.5 -63.5t62.5 -166.5zM290 409q-57 0 -96.5 -33t-51.5 -93h282
q-8 62 -43.5 94t-90.5 32z" />
    <glyph glyph-name="ecircumflex" unicode="&#xea;" horiz-adv-x="559" 
d="M289 631l-72 -87h-84l117 140h78l117 -140h-84zM513 252q0 -18 -3 -38h-372q5 -72 47 -111t107 -39q94 0 131 74h83q-19 -69 -78 -109.5t-139 -40.5q-106 0 -173.5 68t-67.5 176q0 110 69 180t173 70q98 0 160.5 -63.5t62.5 -166.5zM290 409q-57 0 -96.5 -33t-51.5 -93
h282q-8 62 -43.5 94t-90.5 32z" />
    <glyph glyph-name="edieresis" unicode="&#xeb;" horiz-adv-x="559" 
d="M189 554q-25 0 -42.5 17.5t-17.5 42.5t17.5 42.5t42.5 17.5t42.5 -17.5t17.5 -42.5t-17.5 -42.5t-42.5 -17.5zM389 554q-25 0 -42.5 17.5t-17.5 42.5t17.5 42.5t42.5 17.5t42.5 -17.5t17.5 -42.5t-17.5 -42.5t-42.5 -17.5zM513 252q0 -18 -3 -38h-372q5 -72 47 -111
t107 -39q94 0 131 74h83q-19 -69 -78 -109.5t-139 -40.5q-106 0 -173.5 68t-67.5 176q0 110 69 180t173 70q98 0 160.5 -63.5t62.5 -166.5zM290 409q-57 0 -96.5 -33t-51.5 -93h282q-8 62 -43.5 94t-90.5 32z" />
    <glyph glyph-name="igrave" unicode="&#xec;" horiz-adv-x="244" 
d="M96 544l-79 140h109l47 -140h-77zM78 0v470h88v-470h-88z" />
    <glyph glyph-name="iacute" unicode="&#xed;" horiz-adv-x="244" 
d="M67 544l47 140h109l-79 -140h-77zM78 0v470h88v-470h-88z" />
    <glyph glyph-name="icircumflex" unicode="&#xee;" horiz-adv-x="244" 
d="M157 684l107 -140h-80l-62 84l-62 -84h-80l107 140h70zM78 0v470h88v-470h-88z" />
    <glyph glyph-name="idieresis" unicode="&#xef;" horiz-adv-x="244" 
d="M35 554q-25 0 -42.5 17.5t-17.5 42.5t17.5 42.5t42.5 17.5t42.5 -17.5t17.5 -42.5t-17.5 -42.5t-42.5 -17.5zM209 554q-25 0 -42.5 17.5t-17.5 42.5t17.5 42.5t42.5 17.5t42.5 -17.5t17.5 -42.5t-17.5 -42.5t-42.5 -17.5zM78 0v470h88v-470h-88z" />
    <glyph glyph-name="eth" unicode="&#xf0;" horiz-adv-x="579" 
d="M384 627q71 -66 109 -157t38 -196q0 -123 -60 -200q-67 -86 -181 -86q-107 0 -174.5 73t-67.5 173q0 99 67 171t170 72q96 0 146 -67q-31 106 -109 172l-97 -71l-31 42l82 60q-45 28 -112 49l25 71q88 -25 153 -72l92 68l32 -42zM289 64q68 0 111.5 49t43.5 121
q0 73 -43 120t-112 47q-68 0 -110.5 -47.5t-42.5 -119.5q0 -73 42.5 -121.5t110.5 -48.5z" />
    <glyph glyph-name="ntilde" unicode="&#xf1;" horiz-adv-x="563" 
d="M219 625q-33 0 -33 -75h-61q0 67 25.5 102t67.5 35q44 0 87 -50q28 -33 47 -33q33 0 33 75h61q0 -67 -25.5 -102t-67.5 -35q-43 0 -87 50q-29 33 -47 33zM319 482q78 0 124 -49t46 -136v-297h-88v263q0 76 -26.5 108.5t-79.5 32.5q-60 0 -94.5 -37.5t-34.5 -110.5v-256
h-88v470h79l6 -63h3q48 75 153 75z" />
    <glyph glyph-name="ograve" unicode="&#xf2;" horiz-adv-x="580" 
d="M264 544l-99 140h109l67 -140h-77zM290 -12q-105 0 -173.5 69.5t-68.5 177.5t68.5 177.5t173.5 69.5t173.5 -69.5t68.5 -177.5t-68.5 -177.5t-173.5 -69.5zM290 64q67 0 109.5 47t42.5 124t-42.5 124t-109.5 47t-109.5 -47t-42.5 -124t42.5 -124t109.5 -47z" />
    <glyph glyph-name="oacute" unicode="&#xf3;" horiz-adv-x="580" 
d="M235 544l67 140h109l-99 -140h-77zM290 -12q-105 0 -173.5 69.5t-68.5 177.5t68.5 177.5t173.5 69.5t173.5 -69.5t68.5 -177.5t-68.5 -177.5t-173.5 -69.5zM290 64q67 0 109.5 47t42.5 124t-42.5 124t-109.5 47t-109.5 -47t-42.5 -124t42.5 -124t109.5 -47z" />
    <glyph glyph-name="ocircumflex" unicode="&#xf4;" horiz-adv-x="580" 
d="M290 631l-72 -87h-84l117 140h78l117 -140h-84zM290 482q105 0 173.5 -69.5t68.5 -177.5t-68.5 -177.5t-173.5 -69.5t-173.5 69.5t-68.5 177.5t68.5 177.5t173.5 69.5zM290 64q67 0 109.5 47t42.5 124t-42.5 124t-109.5 47t-109.5 -47t-42.5 -124t42.5 -124t109.5 -47z
" />
    <glyph glyph-name="otilde" unicode="&#xf5;" horiz-adv-x="580" 
d="M358 542q-43 0 -87 50q-29 33 -47 33q-33 0 -33 -75h-61q0 67 25.5 102t67.5 35q44 0 87 -50q28 -33 47 -33q33 0 33 75h61q0 -67 -25.5 -102t-67.5 -35zM290 -12q-105 0 -173.5 69.5t-68.5 177.5t68.5 177.5t173.5 69.5t173.5 -69.5t68.5 -177.5t-68.5 -177.5
t-173.5 -69.5zM290 64q67 0 109.5 47t42.5 124t-42.5 124t-109.5 47t-109.5 -47t-42.5 -124t42.5 -124t109.5 -47z" />
    <glyph glyph-name="odieresis" unicode="&#xf6;" horiz-adv-x="580" 
d="M190 554q-25 0 -42.5 17.5t-17.5 42.5t17.5 42.5t42.5 17.5t42.5 -17.5t17.5 -42.5t-17.5 -42.5t-42.5 -17.5zM390 554q-25 0 -42.5 17.5t-17.5 42.5t17.5 42.5t42.5 17.5t42.5 -17.5t17.5 -42.5t-17.5 -42.5t-42.5 -17.5zM290 -12q-105 0 -173.5 69.5t-68.5 177.5
t68.5 177.5t173.5 69.5t173.5 -69.5t68.5 -177.5t-68.5 -177.5t-173.5 -69.5zM290 64q67 0 109.5 47t42.5 124t-42.5 124t-109.5 47t-109.5 -47t-42.5 -124t42.5 -124t109.5 -47z" />
    <glyph glyph-name="divide" unicode="&#xf7;" horiz-adv-x="650" 
d="M325 434q-27 0 -44 17t-17 42q0 26 17 43t44 17q26 0 43 -17t17 -43q0 -25 -17 -42t-43 -17zM104 278v78h441v-78h-441zM325 81q-27 0 -44 17t-17 43q0 25 17 42t44 17q26 0 43 -17t17 -42q0 -26 -17 -43t-43 -17z" />
    <glyph glyph-name="oslash" unicode="&#xf8;" horiz-adv-x="587" 
d="M557 451l-66 -66q45 -66 45 -150q0 -108 -68.5 -177.5t-173.5 -69.5q-86 0 -151 49l-66 -66l-47 47l67 67q-45 66 -45 150q0 108 68.5 177.5t173.5 69.5q86 0 151 -49l65 65zM294 409q-68 0 -111.5 -48t-43.5 -126q0 -52 20 -92l232 232q-40 34 -97 34zM294 61
q68 0 111.5 48t43.5 126q0 52 -20 92l-232 -232q40 -34 97 -34z" />
    <glyph glyph-name="ugrave" unicode="&#xf9;" horiz-adv-x="557" 
d="M330 544h-77l-99 140h109zM391 470h88v-470h-79l-6 63h-3q-22 -35 -62.5 -55t-87.5 -20q-75 0 -121 49t-46 136v297h88v-263q0 -75 26 -108t77 -33q58 0 92 38t34 110v256z" />
    <glyph glyph-name="uacute" unicode="&#xfa;" horiz-adv-x="557" 
d="M400 684l-99 -140h-77l67 140h109zM391 470h88v-470h-79l-6 63h-3q-22 -35 -62.5 -55t-87.5 -20q-75 0 -121 49t-46 136v297h88v-263q0 -75 26 -108t77 -33q58 0 92 38t34 110v256z" />
    <glyph glyph-name="ucircumflex" unicode="&#xfb;" horiz-adv-x="557" 
d="M279 631l-72 -87h-84l117 140h78l117 -140h-84zM391 470h88v-470h-79l-6 63h-3q-22 -35 -62.5 -55t-87.5 -20q-75 0 -121 49t-46 136v297h88v-263q0 -75 26 -108t77 -33q58 0 92 38t34 110v256z" />
    <glyph glyph-name="udieresis" unicode="&#xfc;" horiz-adv-x="557" 
d="M179 554q-25 0 -42.5 17.5t-17.5 42.5t17.5 42.5t42.5 17.5t42.5 -17.5t17.5 -42.5t-17.5 -42.5t-42.5 -17.5zM379 554q-25 0 -42.5 17.5t-17.5 42.5t17.5 42.5t42.5 17.5t42.5 -17.5t17.5 -42.5t-17.5 -42.5t-42.5 -17.5zM391 470h88v-470h-79l-6 63h-3
q-22 -35 -62.5 -55t-87.5 -20q-75 0 -121 49t-46 136v297h88v-263q0 -75 26 -108t77 -33q58 0 92 38t34 110v256z" />
    <glyph glyph-name="yacute" unicode="&#xfd;" horiz-adv-x="499" 
d="M371 684l-99 -140h-77l67 140h109zM396 470h91l-285 -694h-89l92 224l-193 470h93l143 -365h3z" />
    <glyph glyph-name="thorn" unicode="&#xfe;" horiz-adv-x="599" 
d="M325 482q97 0 161 -69.5t64 -177.5t-64.5 -177.5t-160.5 -69.5q-49 0 -92 20t-64 54h-3v-286h-88v924h88v-292h3q20 33 62.5 53.5t93.5 20.5zM311 64q66 0 107.5 46.5t41.5 124.5t-41.5 124.5t-107.5 46.5t-107.5 -46.5t-41.5 -124.5t41.5 -124.5t107.5 -46.5z" />
    <glyph glyph-name="ydieresis" unicode="&#xff;" horiz-adv-x="499" 
d="M150 554q-25 0 -42.5 17.5t-17.5 42.5t17.5 42.5t42.5 17.5t42.5 -17.5t17.5 -42.5t-17.5 -42.5t-42.5 -17.5zM350 554q-25 0 -42.5 17.5t-17.5 42.5t17.5 42.5t42.5 17.5t42.5 -17.5t17.5 -42.5t-17.5 -42.5t-42.5 -17.5zM396 470h91l-285 -694h-89l92 224l-193 470h93
l143 -365h3z" />
    <glyph glyph-name="Amacron" unicode="&#x100;" horiz-adv-x="647" 
d="M463 875v-72h-278v72h278zM538 0l-63 175h-303l-63 -175h-93l258 700h99l258 -700h-93zM200 255h247l-122 339h-3z" />
    <glyph glyph-name="amacron" unicode="&#x101;" horiz-adv-x="542" 
d="M398 643v-68h-262v68h262zM274 482q93 0 143.5 -48t50.5 -135v-299h-79l-6 64h-3q-23 -34 -68 -55t-98 -21q-71 0 -114.5 37.5t-43.5 97.5q0 58 42.5 95.5t122.5 48.5l160 22v10q0 108 -110 108q-103 0 -109 -88h-90q5 76 58.5 119.5t143.5 43.5zM233 61q65 0 106.5 40
t41.5 101v20l-131 -18q-104 -14 -104 -78q0 -30 22.5 -47.5t64.5 -17.5z" />
    <glyph glyph-name="Abreve" unicode="&#x102;" horiz-adv-x="647" 
d="M324 770q-67 0 -105 37t-38 102v5h76q0 -82 67 -82t67 82h76v-5q0 -65 -38 -102t-105 -37zM538 0l-63 175h-303l-63 -175h-93l258 700h99l258 -700h-93zM200 255h247l-122 339h-3z" />
    <glyph glyph-name="abreve" unicode="&#x103;" horiz-adv-x="542" 
d="M267 544q-63 0 -99 35t-36 96v5h72q0 -77 63 -77t63 77h72v-5q0 -61 -36 -96t-99 -35zM274 482q93 0 143.5 -48t50.5 -135v-299h-79l-6 64h-3q-23 -34 -68 -55t-98 -21q-71 0 -114.5 37.5t-43.5 97.5q0 58 42.5 95.5t122.5 48.5l160 22v10q0 108 -110 108
q-103 0 -109 -88h-90q5 76 58.5 119.5t143.5 43.5zM233 61q65 0 106.5 40t41.5 101v20l-131 -18q-104 -14 -104 -78q0 -30 22.5 -47.5t64.5 -17.5z" />
    <glyph glyph-name="Aogonek" unicode="&#x104;" horiz-adv-x="647" 
d="M548 -111q0 -42 50 -42q18 0 33 5v-74q-23 -5 -47 -5q-55 0 -87 27t-32 73q0 37 23 71t66 56h-16l-63 175h-303l-63 -175h-93l258 700h99l258 -700q-83 -63 -83 -111zM200 255h247l-122 339h-3z" />
    <glyph glyph-name="aogonek" unicode="&#x105;" horiz-adv-x="542" 
d="M468 0q-78 -59 -78 -105q0 -39 47 -39q16 0 31 4v-69q-22 -5 -44 -5q-52 0 -82 25.5t-30 68.5q0 77 84 120h-7l-6 64h-3q-23 -34 -68 -55t-98 -21q-71 0 -114.5 37.5t-43.5 97.5q0 58 42.5 95.5t122.5 48.5l160 22v10q0 108 -110 108q-103 0 -109 -88h-90
q5 76 58.5 119.5t143.5 43.5q93 0 143.5 -48t50.5 -135v-299zM233 61q65 0 106.5 40t41.5 101v20l-131 -18q-104 -14 -104 -78q0 -30 22.5 -47.5t64.5 -17.5z" />
    <glyph glyph-name="Cacute" unicode="&#x106;" horiz-adv-x="761" 
d="M335 770l71 148h115l-105 -148h-81zM395 -12q-147 0 -244.5 101.5t-97.5 260.5t98 260.5t245 101.5q125 0 213.5 -73.5t101.5 -192.5h-94q-16 88 -74 135t-144 47q-110 0 -181 -75.5t-71 -202.5t71 -202.5t181 -75.5q87 0 147 48.5t76 133.5h91q-13 -119 -102 -192.5
t-216 -73.5z" />
    <glyph glyph-name="cacute" unicode="&#x107;" horiz-adv-x="548" 
d="M232 544l67 140h109l-99 -140h-77zM289 -12q-106 0 -173 69t-67 178t68 178t175 69q90 0 148.5 -49t68.5 -135h-90q-7 49 -41.5 78.5t-86.5 29.5q-67 0 -109.5 -46.5t-42.5 -124.5t42.5 -124.5t108.5 -46.5q53 0 90.5 29.5t44.5 78.5h87q-10 -85 -71 -134.5t-152 -49.5z
" />
    <glyph glyph-name="Ccircumflex" unicode="&#x108;" horiz-adv-x="761" 
d="M395 862l-76 -92h-89l124 148h82l124 -148h-89zM622 254h91q-13 -119 -102 -192.5t-216 -73.5q-147 0 -244.5 101.5t-97.5 260.5t98 260.5t245 101.5q125 0 213.5 -73.5t101.5 -192.5h-94q-16 88 -74 135t-144 47q-110 0 -181 -75.5t-71 -202.5t71 -202.5t181 -75.5
q87 0 147 48.5t76 133.5z" />
    <glyph glyph-name="ccircumflex" unicode="&#x109;" horiz-adv-x="548" 
d="M287 631l-72 -87h-84l117 140h78l117 -140h-84zM425 172h87q-10 -85 -71 -134.5t-152 -49.5q-106 0 -173 69t-67 178t68 178t175 69q90 0 148.5 -49t68.5 -135h-90q-7 49 -41.5 78.5t-86.5 29.5q-67 0 -109.5 -46.5t-42.5 -124.5t42.5 -124.5t108.5 -46.5q53 0 90.5 29.5
t44.5 78.5z" />
    <glyph glyph-name="Cdotaccent" unicode="&#x10a;" horiz-adv-x="761" 
d="M395 780q-26 0 -45 18.5t-19 45.5t19 45.5t45 18.5t45 -18.5t19 -45.5t-19 -45.5t-45 -18.5zM395 -12q-147 0 -244.5 101.5t-97.5 260.5t98 260.5t245 101.5q125 0 213.5 -73.5t101.5 -192.5h-94q-16 88 -74 135t-144 47q-110 0 -181 -75.5t-71 -202.5t71 -202.5
t181 -75.5q87 0 147 48.5t76 133.5h91q-13 -119 -102 -192.5t-216 -73.5z" />
    <glyph glyph-name="cdotaccent" unicode="&#x10b;" horiz-adv-x="548" 
d="M287 554q-25 0 -42.5 17.5t-17.5 42.5t17.5 42.5t42.5 17.5t42.5 -17.5t17.5 -42.5t-17.5 -42.5t-42.5 -17.5zM289 -12q-106 0 -173 69t-67 178t68 178t175 69q90 0 148.5 -49t68.5 -135h-90q-7 49 -41.5 78.5t-86.5 29.5q-67 0 -109.5 -46.5t-42.5 -124.5t42.5 -124.5
t108.5 -46.5q53 0 90.5 29.5t44.5 78.5h87q-10 -85 -71 -134.5t-152 -49.5z" />
    <glyph glyph-name="Ccaron" unicode="&#x10c;" horiz-adv-x="761" 
d="M436 770h-82l-124 148h89l76 -92l76 92h89zM622 254h91q-13 -119 -102 -192.5t-216 -73.5q-147 0 -244.5 101.5t-97.5 260.5t98 260.5t245 101.5q125 0 213.5 -73.5t101.5 -192.5h-94q-16 88 -74 135t-144 47q-110 0 -181 -75.5t-71 -202.5t71 -202.5t181 -75.5
q87 0 147 48.5t76 133.5z" />
    <glyph glyph-name="ccaron" unicode="&#x10d;" horiz-adv-x="548" 
d="M326 544h-78l-117 140h84l72 -87l72 87h84zM425 172h87q-10 -85 -71 -134.5t-152 -49.5q-106 0 -173 69t-67 178t68 178t175 69q90 0 148.5 -49t68.5 -135h-90q-7 49 -41.5 78.5t-86.5 29.5q-67 0 -109.5 -46.5t-42.5 -124.5t42.5 -124.5t108.5 -46.5q53 0 90.5 29.5
t44.5 78.5z" />
    <glyph glyph-name="Dcaron" unicode="&#x10e;" horiz-adv-x="694" 
d="M358 770h-82l-124 148h89l76 -92l76 92h89zM268 700q168 0 270 -95t102 -255t-102 -255t-270 -95h-172v700h172zM272 84q125 0 199.5 69.5t74.5 196.5t-74.5 196.5t-199.5 69.5h-84v-532h84z" />
    <glyph glyph-name="dcaron" unicode="&#x10f;" horiz-adv-x="677" 
d="M656 712q31 0 51 -24.5t20 -66.5q0 -88 -87 -153l-31 33q60 53 59 98q-10 -2 -16 -2q-25 0 -41 16.5t-16 41.5q0 24 17.5 40.5t43.5 16.5zM433 408v292h88v-700h-79l-6 63h-3q-21 -33 -64 -54t-95 -21q-97 0 -161 69.5t-64 177.5t64.5 177.5t160.5 69.5q49 0 92 -20
t64 -54h3zM288 64q68 0 108.5 46t40.5 125t-40.5 125t-108.5 46q-67 0 -108 -46t-41 -125t41 -125t108 -46z" />
    <glyph glyph-name="Dcroat" unicode="&#x110;" horiz-adv-x="702" 
d="M276 700q168 0 270 -95t102 -255t-102 -255t-270 -95h-172v313h-104v74h104v313h172zM280 84q125 0 199.5 69.5t74.5 196.5t-74.5 196.5t-199.5 69.5h-84v-229h158v-74h-158v-229h84z" />
    <glyph glyph-name="dcroat" unicode="&#x111;" horiz-adv-x="599" 
d="M620 609v-66h-99v-543h-79l-6 63h-3q-21 -33 -64 -54t-95 -21q-97 0 -161 69.5t-64 177.5t64.5 177.5t160.5 69.5q49 0 92 -20t64 -54h3v135h-147v66h147v91h88v-91h99zM288 64q68 0 108.5 46t40.5 125t-40.5 125t-108.5 46q-67 0 -108 -46t-41 -125t41 -125t108 -46z
" />
    <glyph glyph-name="Emacron" unicode="&#x112;" horiz-adv-x="588" 
d="M448 875v-72h-278v72h278zM522 616h-334v-222h306v-84h-306v-226h334v-84h-426v700h426v-84z" />
    <glyph glyph-name="emacron" unicode="&#x113;" horiz-adv-x="559" 
d="M420 643v-68h-262v68h262zM513 252q0 -18 -3 -38h-372q5 -72 47 -111t107 -39q94 0 131 74h83q-19 -69 -78 -109.5t-139 -40.5q-106 0 -173.5 68t-67.5 176q0 110 69 180t173 70q98 0 160.5 -63.5t62.5 -166.5zM290 409q-57 0 -96.5 -33t-51.5 -93h282q-8 62 -43.5 94
t-90.5 32z" />
    <glyph glyph-name="Ebreve" unicode="&#x114;" horiz-adv-x="588" 
d="M309 770q-67 0 -105 37t-38 102v5h76q0 -82 67 -82t67 82h76v-5q0 -65 -38 -102t-105 -37zM522 616h-334v-222h306v-84h-306v-226h334v-84h-426v700h426v-84z" />
    <glyph glyph-name="ebreve" unicode="&#x115;" horiz-adv-x="559" 
d="M289 544q-63 0 -99 35t-36 96v5h72q0 -77 63 -77t63 77h72v-5q0 -61 -36 -96t-99 -35zM513 252q0 -18 -3 -38h-372q5 -72 47 -111t107 -39q94 0 131 74h83q-19 -69 -78 -109.5t-139 -40.5q-106 0 -173.5 68t-67.5 176q0 110 69 180t173 70q98 0 160.5 -63.5t62.5 -166.5z
M290 409q-57 0 -96.5 -33t-51.5 -93h282q-8 62 -43.5 94t-90.5 32z" />
    <glyph glyph-name="Edotaccent" unicode="&#x116;" horiz-adv-x="588" 
d="M309 780q-26 0 -45 18.5t-19 45.5t19 45.5t45 18.5t45 -18.5t19 -45.5t-19 -45.5t-45 -18.5zM522 616h-334v-222h306v-84h-306v-226h334v-84h-426v700h426v-84z" />
    <glyph glyph-name="edotaccent" unicode="&#x117;" horiz-adv-x="559" 
d="M289 554q-25 0 -42.5 17.5t-17.5 42.5t17.5 42.5t42.5 17.5t42.5 -17.5t17.5 -42.5t-17.5 -42.5t-42.5 -17.5zM513 252q0 -18 -3 -38h-372q5 -72 47 -111t107 -39q94 0 131 74h83q-19 -69 -78 -109.5t-139 -40.5q-106 0 -173.5 68t-67.5 176q0 110 69 180t173 70
q98 0 160.5 -63.5t62.5 -166.5zM290 409q-57 0 -96.5 -33t-51.5 -93h282q-8 62 -43.5 94t-90.5 32z" />
    <glyph glyph-name="Eogonek" unicode="&#x118;" horiz-adv-x="588" 
d="M522 616h-334v-222h306v-84h-306v-226h334v-84q-83 -63 -83 -111q0 -42 50 -42q18 0 33 5v-74q-23 -5 -47 -5q-55 0 -87 27t-32 73q0 37 23 71t66 56h-349v700h426v-84z" />
    <glyph glyph-name="eogonek" unicode="&#x119;" horiz-adv-x="559" 
d="M513 252q0 -18 -3 -38h-372q5 -72 47 -111t107 -39q94 0 131 74h83q-26 -98 -127 -135q-77 -58 -77 -104q0 -39 47 -39q16 0 31 4v-69q-22 -5 -44 -5q-52 0 -82 25.5t-30 68.5q0 61 58 104q-103 2 -168.5 70t-65.5 174q0 110 69 180t173 70q98 0 160.5 -63.5t62.5 -166.5
zM290 409q-57 0 -96.5 -33t-51.5 -93h282q-8 62 -43.5 94t-90.5 32z" />
    <glyph glyph-name="Ecaron" unicode="&#x11a;" horiz-adv-x="588" 
d="M350 770h-82l-124 148h89l76 -92l76 92h89zM522 616h-334v-222h306v-84h-306v-226h334v-84h-426v700h426v-84z" />
    <glyph glyph-name="ecaron" unicode="&#x11b;" horiz-adv-x="559" 
d="M328 544h-78l-117 140h84l72 -87l72 87h84zM513 252q0 -18 -3 -38h-372q5 -72 47 -111t107 -39q94 0 131 74h83q-19 -69 -78 -109.5t-139 -40.5q-106 0 -173.5 68t-67.5 176q0 110 69 180t173 70q98 0 160.5 -63.5t62.5 -166.5zM290 409q-57 0 -96.5 -33t-51.5 -93h282
q-8 62 -43.5 94t-90.5 32z" />
    <glyph glyph-name="Gcircumflex" unicode="&#x11c;" horiz-adv-x="781" 
d="M400 862l-76 -92h-89l124 148h82l124 -148h-89zM410 280v82h301v-362h-73l-11 104h-3q-34 -55 -96.5 -85.5t-138.5 -30.5q-144 0 -240 101t-96 260q0 160 98 261.5t250 101.5q121 0 206 -65t104 -177h-96q-14 74 -71 116.5t-141 42.5q-113 0 -184.5 -76t-71.5 -203
t70.5 -203t180.5 -76q93 0 155.5 56t73.5 153h-217z" />
    <glyph glyph-name="gcircumflex" unicode="&#x11d;" horiz-adv-x="501" 
d="M260 631l-72 -87h-84l117 140h78l117 -140h-84zM489 482v-54l-87 -7q40 -45 40 -111q0 -76 -52 -124t-136 -48q-45 0 -85 16q-20 -4 -32.5 -17t-12.5 -31q0 -41 58 -41h152q74 0 114.5 -36t40.5 -102q0 -77 -60 -120t-180 -43q-110 0 -167.5 37.5t-57.5 103.5
q0 73 67 106q-47 28 -47 82q0 34 19.5 59t51.5 37q-49 47 -49 121q0 76 52 124t136 48h235zM254 208q49 0 77.5 28t28.5 74q0 47 -28.5 75t-77.5 28t-77.5 -28t-28.5 -75q0 -46 28.5 -74t77.5 -28zM405 -75q0 63 -89 63h-132q-34 0 -55 -19.5t-21 -50.5q0 -79 147 -79
q150 0 150 86z" />
    <glyph glyph-name="Gbreve" unicode="&#x11e;" horiz-adv-x="781" 
d="M400 770q-67 0 -105 37t-38 102v5h76q0 -82 67 -82t67 82h76v-5q0 -65 -38 -102t-105 -37zM410 280v82h301v-362h-73l-11 104h-3q-34 -55 -96.5 -85.5t-138.5 -30.5q-144 0 -240 101t-96 260q0 160 98 261.5t250 101.5q121 0 206 -65t104 -177h-96q-14 74 -71 116.5
t-141 42.5q-113 0 -184.5 -76t-71.5 -203t70.5 -203t180.5 -76q93 0 155.5 56t73.5 153h-217z" />
    <glyph glyph-name="gbreve" unicode="&#x11f;" horiz-adv-x="501" 
d="M260 544q-63 0 -99 35t-36 96v5h72q0 -77 63 -77t63 77h72v-5q0 -61 -36 -96t-99 -35zM489 482v-54l-87 -7q40 -45 40 -111q0 -76 -52 -124t-136 -48q-45 0 -85 16q-20 -4 -32.5 -17t-12.5 -31q0 -41 58 -41h152q74 0 114.5 -36t40.5 -102q0 -77 -60 -120t-180 -43
q-110 0 -167.5 37.5t-57.5 103.5q0 73 67 106q-47 28 -47 82q0 34 19.5 59t51.5 37q-49 47 -49 121q0 76 52 124t136 48h235zM254 208q49 0 77.5 28t28.5 74q0 47 -28.5 75t-77.5 28t-77.5 -28t-28.5 -75q0 -46 28.5 -74t77.5 -28zM405 -75q0 63 -89 63h-132
q-34 0 -55 -19.5t-21 -50.5q0 -79 147 -79q150 0 150 86z" />
    <glyph glyph-name="Gdotaccent" unicode="&#x120;" horiz-adv-x="781" 
d="M400 780q-26 0 -45 18.5t-19 45.5t19 45.5t45 18.5t45 -18.5t19 -45.5t-19 -45.5t-45 -18.5zM410 280v82h301v-362h-73l-11 104h-3q-34 -55 -96.5 -85.5t-138.5 -30.5q-144 0 -240 101t-96 260q0 160 98 261.5t250 101.5q121 0 206 -65t104 -177h-96q-14 74 -71 116.5
t-141 42.5q-113 0 -184.5 -76t-71.5 -203t70.5 -203t180.5 -76q93 0 155.5 56t73.5 153h-217z" />
    <glyph glyph-name="gdotaccent" unicode="&#x121;" horiz-adv-x="501" 
d="M260 554q-25 0 -42.5 17.5t-17.5 42.5t17.5 42.5t42.5 17.5t42.5 -17.5t17.5 -42.5t-17.5 -42.5t-42.5 -17.5zM489 482v-54l-87 -7q40 -45 40 -111q0 -76 -52 -124t-136 -48q-45 0 -85 16q-20 -4 -32.5 -17t-12.5 -31q0 -41 58 -41h152q74 0 114.5 -36t40.5 -102
q0 -77 -60 -120t-180 -43q-110 0 -167.5 37.5t-57.5 103.5q0 73 67 106q-47 28 -47 82q0 34 19.5 59t51.5 37q-49 47 -49 121q0 76 52 124t136 48h235zM254 208q49 0 77.5 28t28.5 74q0 47 -28.5 75t-77.5 28t-77.5 -28t-28.5 -75q0 -46 28.5 -74t77.5 -28zM405 -75
q0 63 -89 63h-132q-34 0 -55 -19.5t-21 -50.5q0 -79 147 -79q150 0 150 86z" />
    <glyph glyph-name="uni0122" unicode="&#x122;" horiz-adv-x="781" 
d="M410 280v82h301v-362h-73l-11 104h-3q-34 -55 -96.5 -85.5t-138.5 -30.5q-144 0 -240 101t-96 260q0 160 98 261.5t250 101.5q121 0 206 -65t104 -177h-96q-14 74 -71 116.5t-141 42.5q-113 0 -184.5 -76t-71.5 -203t70.5 -203t180.5 -76q93 0 155.5 56t73.5 153h-217z
M392 -79q31 0 51 -24.5t20 -66.5q0 -63 -46 -110h-54q42 48 41 88q-10 -2 -16 -2q-25 0 -41 16.5t-16 41.5q0 24 17.5 40.5t43.5 16.5z" />
    <glyph glyph-name="uni0123" unicode="&#x123;" horiz-adv-x="501" 
d="M265 549q-31 0 -51 24.5t-20 66.5q0 63 46 110h54q-42 -48 -41 -88q10 2 16 2q25 0 41 -16.5t16 -41.5q0 -24 -17.5 -40.5t-43.5 -16.5zM489 482v-54l-87 -7q40 -45 40 -111q0 -76 -52 -124t-136 -48q-45 0 -85 16q-20 -4 -32.5 -17t-12.5 -31q0 -41 58 -41h152
q74 0 114.5 -36t40.5 -102q0 -77 -60 -120t-180 -43q-110 0 -167.5 37.5t-57.5 103.5q0 73 67 106q-47 28 -47 82q0 34 19.5 59t51.5 37q-49 47 -49 121q0 76 52 124t136 48h235zM254 208q49 0 77.5 28t28.5 74q0 47 -28.5 75t-77.5 28t-77.5 -28t-28.5 -75q0 -46 28.5 -74
t77.5 -28zM405 -75q0 63 -89 63h-132q-34 0 -55 -19.5t-21 -50.5q0 -79 147 -79q150 0 150 86z" />
    <glyph glyph-name="Hcircumflex" unicode="&#x124;" horiz-adv-x="710" 
d="M355 862l-76 -92h-89l124 148h82l124 -148h-89zM522 700h92v-700h-92v298h-334v-298h-92v700h92v-318h334v318z" />
    <glyph glyph-name="hcircumflex" unicode="&#x125;" horiz-adv-x="563" 
d="M198 770l-76 92l-76 -92h-89l124 148h82l124 -148h-89zM319 482q78 0 124 -49t46 -136v-297h-88v263q0 76 -26.5 108.5t-79.5 32.5q-60 0 -94.5 -37.5t-34.5 -110.5v-256h-88v700h88v-293h3q49 75 150 75z" />
    <glyph glyph-name="Hbar" unicode="&#x126;" horiz-adv-x="740" 
d="M720 564v-70h-91v-494h-92v298h-334v-298h-92v494h-91v70h91v136h92v-136h334v136h92v-136h91zM537 382v112h-334v-112h334z" />
    <glyph glyph-name="hbar" unicode="&#x127;" horiz-adv-x="563" 
d="M319 482q78 0 124 -49t46 -136v-297h-88v263q0 76 -26.5 108.5t-79.5 32.5q-60 0 -94.5 -37.5t-34.5 -110.5v-256h-88v543h-99v66h99v91h88v-91h147v-66h-147v-136h3q49 75 150 75z" />
    <glyph glyph-name="Itilde" unicode="&#x128;" horiz-adv-x="284" 
d="M214 768q-45 0 -92 53q-32 35 -50 35q-35 0 -35 -80h-65q0 71 27 108t72 37q46 0 92 -53q31 -35 50 -35q35 0 35 80h65q0 -71 -27 -108t-72 -37zM96 0v700h92v-700h-92z" />
    <glyph glyph-name="itilde" unicode="&#x129;" horiz-adv-x="244" 
d="M187 542q-40 0 -84 50q-29 33 -45 33q-30 0 -30 -75h-58q0 67 24 102t63 35q42 0 85 -50q28 -33 44 -33q30 0 30 75h58q0 -67 -24 -102t-63 -35zM78 0v470h88v-470h-88z" />
    <glyph glyph-name="Imacron" unicode="&#x12a;" horiz-adv-x="284" 
d="M3 803v72h278v-72h-278zM96 0v700h92v-700h-92z" />
    <glyph glyph-name="imacron" unicode="&#x12b;" horiz-adv-x="244" 
d="M0 575v68h244v-68h-244zM78 0v470h88v-470h-88z" />
    <glyph glyph-name="Ibreve" unicode="&#x12c;" horiz-adv-x="284" 
d="M142 770q-67 0 -105 37t-38 102v5h76q0 -82 67 -82t67 82h76v-5q0 -65 -38 -102t-105 -37zM96 0v700h92v-700h-92z" />
    <glyph glyph-name="ibreve" unicode="&#x12d;" horiz-adv-x="244" 
d="M122 544q-61 0 -94 35t-33 96v5h67q0 -77 60 -77t60 77h67v-5q0 -61 -33 -96t-94 -35zM78 0v470h88v-470h-88z" />
    <glyph glyph-name="Iogonek" unicode="&#x12e;" horiz-adv-x="284" 
d="M188 700v-700q-64 -64 -64 -104t39 -40q12 0 25 4v-69q-20 -5 -39 -5q-46 0 -74 25t-28 65q0 35 21.5 69t59.5 55h-32v700h92z" />
    <glyph glyph-name="iogonek" unicode="&#x12f;" horiz-adv-x="244" 
d="M122 554q-25 0 -42.5 17.5t-17.5 42.5t17.5 42.5t42.5 17.5t42.5 -17.5t17.5 -42.5t-17.5 -42.5t-42.5 -17.5zM78 0v470h88v-470q-64 -64 -64 -104t39 -40q12 0 25 4v-69q-20 -5 -39 -5q-46 0 -74 25t-28 65q0 35 21.5 69t59.5 55h-28z" />
    <glyph glyph-name="Idotaccent" unicode="&#x130;" horiz-adv-x="284" 
d="M142 780q-26 0 -45 18.5t-19 45.5t19 45.5t45 18.5t45 -18.5t19 -45.5t-19 -45.5t-45 -18.5zM96 0v700h92v-700h-92z" />
    <glyph glyph-name="dotlessi" unicode="&#x131;" horiz-adv-x="244" 
d="M78 0v470h88v-470h-88z" />
    <glyph glyph-name="Jcircumflex" unicode="&#x134;" horiz-adv-x="604" 
d="M321 862l-76 -92h-89l124 148h82l124 -148h-89zM130 700h388v-461q0 -124 -62 -187.5t-176 -63.5t-176 63.5t-62 187.5v77h92v-71q0 -173 146 -173t146 173v371h-296v84z" />
    <glyph glyph-name="jcircumflex" unicode="&#x135;" horiz-adv-x="244" 
d="M157 684l107 -140h-80l-62 84l-62 -84h-80l107 140h70zM78 -84v554h88v-554q0 -80 -32.5 -116t-102.5 -36q-27 0 -49 5v73q16 -2 30 -2q36 0 51 16.5t15 59.5z" />
    <glyph glyph-name="uni0136" unicode="&#x136;" horiz-adv-x="629" 
d="M282 352l335 -352h-122l-304 319h-3v-319h-92v700h92v-325h3l304 325h114zM330 -79q31 0 51 -24.5t20 -66.5q0 -63 -46 -110h-54q42 48 41 88q-10 -2 -16 -2q-25 0 -41 16.5t-16 41.5q0 24 17.5 40.5t43.5 16.5z" />
    <glyph glyph-name="uni0137" unicode="&#x137;" horiz-adv-x="505" 
d="M259 248l237 -248h-115l-212 223h-3v-223h-88v700h88v-431h2l209 201h113zM259 -79q31 0 51 -24.5t20 -66.5q0 -63 -46 -110h-54q42 48 41 88q-10 -2 -16 -2q-25 0 -41 16.5t-16 41.5q0 24 17.5 40.5t43.5 16.5z" />
    <glyph glyph-name="Lacute" unicode="&#x139;" horiz-adv-x="540" 
d="M268 918l-105 -148h-81l71 148h115zM188 84h320v-84h-412v700h92v-616z" />
    <glyph glyph-name="lacute" unicode="&#x13a;" horiz-adv-x="244" 
d="M62 770l71 148h115l-105 -148h-81zM78 0v700h88v-700h-88z" />
    <glyph glyph-name="uni013B" unicode="&#x13b;" horiz-adv-x="540" 
d="M188 84h320v-84h-412v700h92v-616zM304 -79q31 0 51 -24.5t20 -66.5q0 -63 -46 -110h-54q42 48 41 88q-10 -2 -16 -2q-25 0 -41 16.5t-16 41.5q0 24 17.5 40.5t43.5 16.5z" />
    <glyph glyph-name="uni013C" unicode="&#x13c;" horiz-adv-x="244" 
d="M166 700v-700h-88v700h88zM117 -79q31 0 51 -24.5t20 -66.5q0 -63 -46 -110h-54q42 48 41 88q-10 -2 -16 -2q-25 0 -41 16.5t-16 41.5q0 24 17.5 40.5t43.5 16.5z" />
    <glyph glyph-name="Lcaron" unicode="&#x13d;" horiz-adv-x="540" 
d="M349 597q-25 0 -41 16.5t-16 41.5q0 24 17.5 40.5t43.5 16.5q31 0 51 -24.5t20 -66.5q0 -88 -87 -153l-31 33q60 53 59 98q-10 -2 -16 -2zM188 84h320v-84h-412v700h92v-616z" />
    <glyph glyph-name="lcaron" unicode="&#x13e;" horiz-adv-x="322" 
d="M301 712q31 0 51 -24.5t20 -66.5q0 -88 -87 -153l-31 33q60 53 59 98q-10 -2 -16 -2q-25 0 -41 16.5t-16 41.5q0 24 17.5 40.5t43.5 16.5zM78 0v700h88v-700h-88z" />
    <glyph glyph-name="Ldot" unicode="&#x13f;" horiz-adv-x="560" 
d="M188 84h320v-84h-412v700h92v-616zM378 239q-27 0 -45 18t-18 45t18 45t45 18t45 -18t18 -45t-18 -45t-45 -18z" />
    <glyph glyph-name="ldot" unicode="&#x140;" horiz-adv-x="418" 
d="M78 0v700h88v-700h-88zM325 182q-27 0 -45 18t-18 45t18 45t45 18t45 -18t18 -45t-18 -45t-45 -18z" />
    <glyph glyph-name="Lslash" unicode="&#x141;" horiz-adv-x="558" 
d="M206 84h320v-84h-412v242l-119 -86v80l119 86v378h92v-311l179 130v-80l-179 -130v-225z" />
    <glyph glyph-name="lslash" unicode="&#x142;" horiz-adv-x="332" 
d="M318 487v-80l-108 -78v-329h-88v265l-108 -78v80l108 78v355h88v-291z" />
    <glyph glyph-name="Nacute" unicode="&#x143;" horiz-adv-x="747" 
d="M500 918l-105 -148h-81l71 148h115zM559 700h92v-700h-97l-363 551h-3v-551h-92v700h97l363 -551h3v551z" />
    <glyph glyph-name="nacute" unicode="&#x144;" horiz-adv-x="563" 
d="M406 684l-99 -140h-77l67 140h109zM319 482q78 0 124 -49t46 -136v-297h-88v263q0 76 -26.5 108.5t-79.5 32.5q-60 0 -94.5 -37.5t-34.5 -110.5v-256h-88v470h79l6 -63h3q48 75 153 75z" />
    <glyph glyph-name="uni0145" unicode="&#x145;" horiz-adv-x="747" 
d="M559 700h92v-700h-97l-363 551h-3v-551h-92v700h97l363 -551h3v551zM369 -79q31 0 51 -24.5t20 -66.5q0 -63 -46 -110h-54q42 48 41 88q-10 -2 -16 -2q-25 0 -41 16.5t-16 41.5q0 24 17.5 40.5t43.5 16.5z" />
    <glyph glyph-name="uni0146" unicode="&#x146;" horiz-adv-x="563" 
d="M319 482q78 0 124 -49t46 -136v-297h-88v263q0 76 -26.5 108.5t-79.5 32.5q-60 0 -94.5 -37.5t-34.5 -110.5v-256h-88v470h79l6 -63h3q48 75 153 75zM277 -79q31 0 51 -24.5t20 -66.5q0 -63 -46 -110h-54q42 48 41 88q-10 -2 -16 -2q-25 0 -41 16.5t-16 41.5
q0 24 17.5 40.5t43.5 16.5z" />
    <glyph glyph-name="Ncaron" unicode="&#x147;" horiz-adv-x="747" 
d="M415 770h-82l-124 148h89l76 -92l76 92h89zM559 700h92v-700h-97l-363 551h-3v-551h-92v700h97l363 -551h3v551z" />
    <glyph glyph-name="ncaron" unicode="&#x148;" horiz-adv-x="563" 
d="M324 544h-78l-117 140h84l72 -87l72 87h84zM319 482q78 0 124 -49t46 -136v-297h-88v263q0 76 -26.5 108.5t-79.5 32.5q-60 0 -94.5 -37.5t-34.5 -110.5v-256h-88v470h79l6 -63h3q48 75 153 75z" />
    <glyph glyph-name="Eng" unicode="&#x14a;" horiz-adv-x="747" 
d="M559 700h92v-731q0 -79 -33 -115.5t-102 -36.5q-27 0 -49 5v82q16 -2 30 -2q29 0 43 15.5t14 51.5v31l-363 551h-3v-551h-92v700h97l363 -551h3v551z" />
    <glyph glyph-name="eng" unicode="&#x14b;" horiz-adv-x="563" 
d="M319 482q78 0 124 -49t46 -136v-304q0 -80 -32.5 -116t-102.5 -36q-27 0 -49 5v73q16 -2 30 -2q36 0 51 16.5t15 59.5v270q0 76 -26.5 108.5t-79.5 32.5q-60 0 -94.5 -37.5t-34.5 -110.5v-256h-88v470h79l6 -63h3q48 75 153 75z" />
    <glyph glyph-name="Omacron" unicode="&#x14c;" horiz-adv-x="796" 
d="M259 803v72h278v-72h-278zM398 -12q-149 0 -247 102t-98 260t98 260t247 102t247 -102t98 -260t-98 -260t-247 -102zM398 72q110 0 180.5 76t70.5 202t-70.5 202t-180.5 76t-180.5 -76t-70.5 -202t70.5 -202t180.5 -76z" />
    <glyph glyph-name="omacron" unicode="&#x14d;" horiz-adv-x="580" 
d="M159 575v68h262v-68h-262zM290 -12q-105 0 -173.5 69.5t-68.5 177.5t68.5 177.5t173.5 69.5t173.5 -69.5t68.5 -177.5t-68.5 -177.5t-173.5 -69.5zM290 64q67 0 109.5 47t42.5 124t-42.5 124t-109.5 47t-109.5 -47t-42.5 -124t42.5 -124t109.5 -47z" />
    <glyph glyph-name="Obreve" unicode="&#x14e;" horiz-adv-x="796" 
d="M398 770q-67 0 -105 37t-38 102v5h76q0 -82 67 -82t67 82h76v-5q0 -65 -38 -102t-105 -37zM398 -12q-149 0 -247 102t-98 260t98 260t247 102t247 -102t98 -260t-98 -260t-247 -102zM398 72q110 0 180.5 76t70.5 202t-70.5 202t-180.5 76t-180.5 -76t-70.5 -202
t70.5 -202t180.5 -76z" />
    <glyph glyph-name="obreve" unicode="&#x14f;" horiz-adv-x="580" 
d="M290 544q-63 0 -99 35t-36 96v5h72q0 -77 63 -77t63 77h72v-5q0 -61 -36 -96t-99 -35zM290 -12q-105 0 -173.5 69.5t-68.5 177.5t68.5 177.5t173.5 69.5t173.5 -69.5t68.5 -177.5t-68.5 -177.5t-173.5 -69.5zM290 64q67 0 109.5 47t42.5 124t-42.5 124t-109.5 47
t-109.5 -47t-42.5 -124t42.5 -124t109.5 -47z" />
    <glyph glyph-name="Ohungarumlaut" unicode="&#x150;" horiz-adv-x="796" 
d="M255 770l62 148h96l-88 -148h-70zM421 770l63 148h95l-88 -148h-70zM398 -12q-149 0 -247 102t-98 260t98 260t247 102t247 -102t98 -260t-98 -260t-247 -102zM398 72q110 0 180.5 76t70.5 202t-70.5 202t-180.5 76t-180.5 -76t-70.5 -202t70.5 -202t180.5 -76z" />
    <glyph glyph-name="ohungarumlaut" unicode="&#x151;" horiz-adv-x="580" 
d="M156 544l59 140h90l-83 -140h-66zM313 544l59 140h90l-83 -140h-66zM290 -12q-105 0 -173.5 69.5t-68.5 177.5t68.5 177.5t173.5 69.5t173.5 -69.5t68.5 -177.5t-68.5 -177.5t-173.5 -69.5zM290 64q67 0 109.5 47t42.5 124t-42.5 124t-109.5 47t-109.5 -47t-42.5 -124
t42.5 -124t109.5 -47z" />
    <glyph glyph-name="OE" unicode="&#x152;" horiz-adv-x="998" 
d="M932 616h-334v-222h306v-84h-306v-226h334v-84h-506q-168 0 -270 95t-102 255t102 255t270 95h506v-84zM422 84h84v532h-84q-125 0 -199.5 -69.5t-74.5 -196.5t74.5 -196.5t199.5 -69.5z" />
    <glyph glyph-name="oe" unicode="&#x153;" horiz-adv-x="953" 
d="M907 252q0 -18 -3 -38h-372q5 -72 46.5 -111t105.5 -39q96 0 133 74h83q-19 -69 -78 -109.5t-140 -40.5q-130 0 -194 98h-4q-67 -98 -194 -98q-105 0 -173.5 69.5t-68.5 177.5t68.5 177.5t173.5 69.5q128 0 196 -99h4q66 99 194 99q98 0 160.5 -63.5t62.5 -166.5z
M684 409q-57 0 -96.5 -33t-51.5 -93h282q-8 62 -43.5 94t-90.5 32zM290 64q67 0 109.5 47t42.5 124t-42.5 124t-109.5 47t-109.5 -47t-42.5 -124t42.5 -124t109.5 -47z" />
    <glyph glyph-name="Racute" unicode="&#x154;" horiz-adv-x="649" 
d="M427 918l-105 -148h-81l71 148h115zM482 0l-181 244h-113v-244h-92v700h223q123 0 195 -62t72 -166q0 -84 -48 -141.5t-133 -77.5l190 -253h-113zM188 616v-288h131q84 0 128.5 37.5t44.5 106.5t-44.5 106.5t-128.5 37.5h-131z" />
    <glyph glyph-name="racute" unicode="&#x155;" horiz-adv-x="367" 
d="M325 684l-99 -140h-77l67 140h109zM296 479q26 0 47 -8v-76q-21 3 -41 3q-136 0 -136 -152v-246h-88v470h78l7 -72h3q16 37 51 59t79 22z" />
    <glyph glyph-name="uni0156" unicode="&#x156;" horiz-adv-x="649" 
d="M405 253l190 -253h-113l-181 244h-113v-244h-92v700h223q123 0 195 -62t72 -166q0 -84 -48 -141.5t-133 -77.5zM188 616v-288h131q84 0 128.5 37.5t44.5 106.5t-44.5 106.5t-128.5 37.5h-131zM320 -79q31 0 51 -24.5t20 -66.5q0 -63 -46 -110h-54q42 48 41 88
q-10 -2 -16 -2q-25 0 -41 16.5t-16 41.5q0 24 17.5 40.5t43.5 16.5z" />
    <glyph glyph-name="uni0157" unicode="&#x157;" horiz-adv-x="367" 
d="M296 479q26 0 47 -8v-76q-21 3 -41 3q-136 0 -136 -152v-246h-88v470h78l7 -72h3q16 37 51 59t79 22zM117 -79q31 0 51 -24.5t20 -66.5q0 -63 -46 -110h-54q42 48 41 88q-10 -2 -16 -2q-25 0 -41 16.5t-16 41.5q0 24 17.5 40.5t43.5 16.5z" />
    <glyph glyph-name="Rcaron" unicode="&#x158;" horiz-adv-x="649" 
d="M342 770h-82l-124 148h89l76 -92l76 92h89zM482 0l-181 244h-113v-244h-92v700h223q123 0 195 -62t72 -166q0 -84 -48 -141.5t-133 -77.5l190 -253h-113zM188 616v-288h131q84 0 128.5 37.5t44.5 106.5t-44.5 106.5t-128.5 37.5h-131z" />
    <glyph glyph-name="rcaron" unicode="&#x159;" horiz-adv-x="367" 
d="M239 544h-70l-107 140h80l62 -84l62 84h80zM166 398q16 37 51 59t79 22q26 0 47 -8v-76q-21 3 -41 3q-136 0 -136 -152v-246h-88v470h78l7 -72h3z" />
    <glyph glyph-name="Sacute" unicode="&#x15a;" horiz-adv-x="596" 
d="M233 770l71 148h115l-105 -148h-81zM303 -12q-111 0 -182.5 63t-74.5 169h94q7 -72 51.5 -110.5t114.5 -38.5q69 0 111 34.5t42 89.5q0 43 -33.5 70t-116.5 45l-64 14q-189 41 -189 184q0 89 67.5 146.5t173.5 57.5q104 0 170 -56.5t75 -155.5h-94q-19 129 -153 129
q-67 0 -106.5 -32t-39.5 -85q0 -43 32.5 -68.5t116.5 -43.5l64 -14q99 -22 144.5 -67t45.5 -116q0 -95 -69.5 -155t-179.5 -60z" />
    <glyph glyph-name="sacute" unicode="&#x15b;" horiz-adv-x="462" 
d="M176 544l67 140h109l-99 -140h-77zM237 -12q-85 0 -137.5 41.5t-57.5 112.5h88q5 -40 33.5 -61.5t74.5 -21.5q45 0 72.5 20t27.5 52q0 26 -21.5 42t-73.5 26l-57 11q-137 27 -137 128q0 63 50 103.5t135 40.5q80 0 127.5 -37t53.5 -104h-88q-8 70 -98 70q-45 0 -70 -18.5
t-25 -49.5q0 -23 19.5 -37t74.5 -25l57 -11q71 -13 104.5 -45.5t33.5 -86.5q0 -67 -50 -108.5t-136 -41.5z" />
    <glyph glyph-name="Scircumflex" unicode="&#x15c;" horiz-adv-x="596" 
d="M293 862l-76 -92h-89l124 148h82l124 -148h-89zM362 386q99 -22 144.5 -67t45.5 -116q0 -95 -69.5 -155t-179.5 -60q-111 0 -182.5 63t-74.5 169h94q7 -72 51.5 -110.5t114.5 -38.5q69 0 111 34.5t42 89.5q0 43 -33.5 70t-116.5 45l-64 14q-189 41 -189 184
q0 89 67.5 146.5t173.5 57.5q104 0 170 -56.5t75 -155.5h-94q-19 129 -153 129q-67 0 -106.5 -32t-39.5 -85q0 -43 32.5 -68.5t116.5 -43.5z" />
    <glyph glyph-name="scircumflex" unicode="&#x15d;" horiz-adv-x="462" 
d="M231 631l-72 -87h-84l117 140h78l117 -140h-84zM285 270q71 -13 104.5 -45.5t33.5 -86.5q0 -67 -50 -108.5t-136 -41.5q-85 0 -137.5 41.5t-57.5 112.5h88q5 -40 33.5 -61.5t74.5 -21.5q45 0 72.5 20t27.5 52q0 26 -21.5 42t-73.5 26l-57 11q-137 27 -137 128
q0 63 50 103.5t135 40.5q80 0 127.5 -37t53.5 -104h-88q-8 70 -98 70q-45 0 -70 -18.5t-25 -49.5q0 -23 19.5 -37t74.5 -25z" />
    <glyph glyph-name="Scedilla" unicode="&#x15e;" horiz-adv-x="596" 
d="M552 203q0 -90 -63 -149t-165 -65l-1 -42q42 -5 64.5 -26t22.5 -56q0 -42 -32.5 -66.5t-93.5 -24.5q-20 0 -43 3v63q14 -2 37 -2q60 0 60 33q0 14 -17 21t-67 7l7 92q-94 11 -153 72.5t-62 156.5h94q7 -72 51.5 -110.5t114.5 -38.5q69 0 111 34.5t42 89.5q0 43 -33.5 70
t-116.5 45l-64 14q-189 41 -189 184q0 89 67.5 146.5t173.5 57.5q104 0 170 -56.5t75 -155.5h-94q-19 129 -153 129q-67 0 -106.5 -32t-39.5 -85q0 -43 32.5 -68.5t116.5 -43.5l64 -14q99 -22 144.5 -67t45.5 -116z" />
    <glyph glyph-name="scedilla" unicode="&#x15f;" horiz-adv-x="462" 
d="M423 138q0 -63 -45 -104.5t-123 -45.5l-1 -41q42 -5 64.5 -26t22.5 -56q0 -42 -32.5 -66.5t-93.5 -24.5q-21 0 -43 3v63q14 -2 37 -2q60 0 60 33q0 14 -17 21t-67 7l7 92q-66 11 -106 50.5t-44 100.5h88q5 -40 33.5 -61.5t74.5 -21.5q45 0 72.5 20t27.5 52q0 26 -21.5 42
t-73.5 26l-57 11q-137 27 -137 128q0 63 50 103.5t135 40.5q80 0 127.5 -37t53.5 -104h-88q-8 70 -98 70q-45 0 -70 -18.5t-25 -49.5q0 -23 19.5 -37t74.5 -25l57 -11q71 -13 104.5 -45.5t33.5 -86.5z" />
    <glyph glyph-name="Scaron" unicode="&#x160;" horiz-adv-x="596" 
d="M334 770h-82l-124 148h89l76 -92l76 92h89zM362 386q99 -22 144.5 -67t45.5 -116q0 -95 -69.5 -155t-179.5 -60q-111 0 -182.5 63t-74.5 169h94q7 -72 51.5 -110.5t114.5 -38.5q69 0 111 34.5t42 89.5q0 43 -33.5 70t-116.5 45l-64 14q-189 41 -189 184q0 89 67.5 146.5
t173.5 57.5q104 0 170 -56.5t75 -155.5h-94q-19 129 -153 129q-67 0 -106.5 -32t-39.5 -85q0 -43 32.5 -68.5t116.5 -43.5z" />
    <glyph glyph-name="scaron" unicode="&#x161;" horiz-adv-x="462" 
d="M270 544h-78l-117 140h84l72 -87l72 87h84zM285 270q71 -13 104.5 -45.5t33.5 -86.5q0 -67 -50 -108.5t-136 -41.5q-85 0 -137.5 41.5t-57.5 112.5h88q5 -40 33.5 -61.5t74.5 -21.5q45 0 72.5 20t27.5 52q0 26 -21.5 42t-73.5 26l-57 11q-137 27 -137 128q0 63 50 103.5
t135 40.5q80 0 127.5 -37t53.5 -104h-88q-8 70 -98 70q-45 0 -70 -18.5t-25 -49.5q0 -23 19.5 -37t74.5 -25z" />
    <glyph glyph-name="uni0162" unicode="&#x162;" horiz-adv-x="564" 
d="M22 700h520v-84h-214v-616h-92v616h-214v84zM277 -79q31 0 51 -24.5t20 -66.5q0 -63 -46 -110h-54q42 48 41 88q-10 -2 -16 -2q-25 0 -41 16.5t-16 41.5q0 24 17.5 40.5t43.5 16.5z" />
    <glyph glyph-name="uni0163" unicode="&#x163;" horiz-adv-x="361" 
d="M282 63q25 0 45 4v-72q-26 -7 -63 -7q-83 0 -122.5 41t-39.5 135v231h-86v75h86v119h88v-119h133v-75h-133v-231q0 -58 20.5 -79.5t71.5 -21.5zM214 -79q31 0 51 -24.5t20 -66.5q0 -63 -46 -110h-54q42 48 41 88q-10 -2 -16 -2q-25 0 -41 16.5t-16 41.5q0 24 17.5 40.5
t43.5 16.5z" />
    <glyph glyph-name="Tcaron" unicode="&#x164;" horiz-adv-x="564" 
d="M323 770h-82l-124 148h89l76 -92l76 92h89zM542 700v-84h-214v-616h-92v616h-214v84h520z" />
    <glyph glyph-name="tcaron" unicode="&#x165;" horiz-adv-x="361" 
d="M283 622q-25 0 -41 16.5t-16 41.5q0 24 17.5 40.5t43.5 16.5q31 0 51 -24.5t20 -66.5q0 -63 -46 -110h-54q42 48 41 88q-10 -2 -16 -2zM190 164q0 -58 20.5 -79.5t71.5 -21.5q25 0 45 4v-72q-26 -7 -63 -7q-83 0 -122.5 41t-39.5 135v231h-86v75h86v119h88v-119h133v-75
h-133v-231z" />
    <glyph glyph-name="Tbar" unicode="&#x166;" horiz-adv-x="564" 
d="M542 616h-214v-262h131v-74h-131v-280h-92v280h-131v74h131v262h-214v84h520v-84z" />
    <glyph glyph-name="tbar" unicode="&#x167;" horiz-adv-x="373" 
d="M288 63q25 0 45 4v-72q-26 -7 -63 -7q-83 0 -122.5 41t-39.5 135v42h-86v64h86v125h-86v75h86v119h88v-119h133v-75h-133v-125h133v-64h-133v-42q0 -58 20.5 -79.5t71.5 -21.5z" />
    <glyph glyph-name="Utilde" unicode="&#x168;" horiz-adv-x="706" 
d="M425 768q-45 0 -92 53q-32 35 -50 35q-35 0 -35 -80h-65q0 71 27 108t72 37q46 0 92 -53q31 -35 50 -35q35 0 35 80h65q0 -71 -27 -108t-72 -37zM353 -12q-122 0 -194.5 77t-72.5 209v426h92v-430q0 -95 47 -146.5t128 -51.5t128 51.5t47 146.5v430h92v-426
q0 -132 -72.5 -209t-194.5 -77z" />
    <glyph glyph-name="utilde" unicode="&#x169;" horiz-adv-x="557" 
d="M213 625q-33 0 -33 -75h-61q0 67 25.5 102t67.5 35q44 0 87 -50q28 -33 47 -33q33 0 33 75h61q0 -67 -25.5 -102t-67.5 -35q-43 0 -87 50q-29 33 -47 33zM391 470h88v-470h-79l-6 63h-3q-22 -35 -62.5 -55t-87.5 -20q-75 0 -121 49t-46 136v297h88v-263q0 -75 26 -108
t77 -33q58 0 92 38t34 110v256z" />
    <glyph glyph-name="Umacron" unicode="&#x16a;" horiz-adv-x="706" 
d="M214 803v72h278v-72h-278zM353 -12q-122 0 -194.5 77t-72.5 209v426h92v-430q0 -95 47 -146.5t128 -51.5t128 51.5t47 146.5v430h92v-426q0 -132 -72.5 -209t-194.5 -77z" />
    <glyph glyph-name="umacron" unicode="&#x16b;" horiz-adv-x="557" 
d="M410 643v-68h-262v68h262zM391 470h88v-470h-79l-6 63h-3q-22 -35 -62.5 -55t-87.5 -20q-75 0 -121 49t-46 136v297h88v-263q0 -75 26 -108t77 -33q58 0 92 38t34 110v256z" />
    <glyph glyph-name="Ubreve" unicode="&#x16c;" horiz-adv-x="706" 
d="M353 770q-67 0 -105 37t-38 102v5h76q0 -82 67 -82t67 82h76v-5q0 -65 -38 -102t-105 -37zM353 -12q-122 0 -194.5 77t-72.5 209v426h92v-430q0 -95 47 -146.5t128 -51.5t128 51.5t47 146.5v430h92v-426q0 -132 -72.5 -209t-194.5 -77z" />
    <glyph glyph-name="ubreve" unicode="&#x16d;" horiz-adv-x="557" 
d="M279 544q-63 0 -99 35t-36 96v5h72q0 -77 63 -77t63 77h72v-5q0 -61 -36 -96t-99 -35zM391 470h88v-470h-79l-6 63h-3q-22 -35 -62.5 -55t-87.5 -20q-75 0 -121 49t-46 136v297h88v-263q0 -75 26 -108t77 -33q58 0 92 38t34 110v256z" />
    <glyph glyph-name="Uring" unicode="&#x16e;" horiz-adv-x="706" 
d="M353 761q-48 0 -80 31t-32 76t32 76t80 31t80 -31t32 -76t-32 -76t-80 -31zM353 821q21 0 34 13.5t13 33.5t-13 33.5t-34 13.5t-34 -13.5t-13 -33.5t13 -33.5t34 -13.5zM353 -12q-122 0 -194.5 77t-72.5 209v426h92v-430q0 -95 47 -146.5t128 -51.5t128 51.5t47 146.5
v430h92v-426q0 -132 -72.5 -209t-194.5 -77z" />
    <glyph glyph-name="uring" unicode="&#x16f;" horiz-adv-x="557" 
d="M279 537q-45 0 -75.5 29t-30.5 72t30.5 72t75.5 29t75.5 -29t30.5 -72t-30.5 -72t-75.5 -29zM279 682q-20 0 -32 -12.5t-12 -31.5t12 -31.5t32 -12.5t32 12.5t12 31.5t-12 31.5t-32 12.5zM391 470h88v-470h-79l-6 63h-3q-22 -35 -62.5 -55t-87.5 -20q-75 0 -121 49
t-46 136v297h88v-263q0 -75 26 -108t77 -33q58 0 92 38t34 110v256z" />
    <glyph glyph-name="Uhungarumlaut" unicode="&#x170;" horiz-adv-x="706" 
d="M210 770l62 148h96l-88 -148h-70zM376 770l63 148h95l-88 -148h-70zM353 -12q-122 0 -194.5 77t-72.5 209v426h92v-430q0 -95 47 -146.5t128 -51.5t128 51.5t47 146.5v430h92v-426q0 -132 -72.5 -209t-194.5 -77z" />
    <glyph glyph-name="uhungarumlaut" unicode="&#x171;" horiz-adv-x="557" 
d="M294 684l-83 -140h-66l59 140h90zM451 684l-83 -140h-66l59 140h90zM391 470h88v-470h-79l-6 63h-3q-22 -35 -62.5 -55t-87.5 -20q-75 0 -121 49t-46 136v297h88v-263q0 -75 26 -108t77 -33q58 0 92 38t34 110v256z" />
    <glyph glyph-name="Uogonek" unicode="&#x172;" horiz-adv-x="706" 
d="M528 700h92v-426q0 -103 -45.5 -174.5t-127.5 -97.5q-83 -63 -83 -111q0 -42 50 -42q18 0 33 5v-74q-23 -5 -47 -5q-55 0 -87 27t-32 73q0 67 66 113q-120 2 -190.5 79t-70.5 207v426h92v-430q0 -95 47 -146.5t128 -51.5t128 51.5t47 146.5v430z" />
    <glyph glyph-name="uogonek" unicode="&#x173;" horiz-adv-x="557" 
d="M479 0q-78 -59 -78 -105q0 -39 47 -39q16 0 31 4v-69q-22 -5 -44 -5q-52 0 -82 25.5t-30 68.5q0 77 84 120h-7l-6 63h-3q-22 -35 -62.5 -55t-87.5 -20q-75 0 -121 49t-46 136v297h88v-263q0 -75 26 -108t77 -33q58 0 92 38t34 110v256h88v-470z" />
    <glyph glyph-name="Wcircumflex" unicode="&#x174;" horiz-adv-x="1001" 
d="M501 862l-76 -92h-89l124 148h82l124 -148h-89zM887 700h93l-217 -700h-92l-169 566h-3l-169 -566h-92l-217 700h93l171 -559h3l168 559h89l168 -559h3z" />
    <glyph glyph-name="wcircumflex" unicode="&#x175;" horiz-adv-x="788" 
d="M394 631l-72 -87h-84l117 140h78l117 -140h-84zM675 470h91l-157 -470h-90l-124 355h-2l-124 -355h-90l-157 470h91l113 -357h3l125 357h80l125 -357h3z" />
    <glyph glyph-name="Ycircumflex" unicode="&#x176;" horiz-adv-x="624" 
d="M312 862l-76 -92h-89l124 148h82l124 -148h-89zM512 700h104l-258 -425v-275h-92v275l-258 425h104l199 -339h2z" />
    <glyph glyph-name="ycircumflex" unicode="&#x177;" horiz-adv-x="499" 
d="M250 631l-72 -87h-84l117 140h78l117 -140h-84zM396 470h91l-285 -694h-89l92 224l-193 470h93l143 -365h3z" />
    <glyph glyph-name="Ydieresis" unicode="&#x178;" horiz-adv-x="624" 
d="M206 780q-26 0 -45 18.5t-19 45.5t19 45.5t45 18.5t45 -18.5t19 -45.5t-19 -45.5t-45 -18.5zM418 780q-26 0 -45 18.5t-19 45.5t19 45.5t45 18.5t45 -18.5t19 -45.5t-19 -45.5t-45 -18.5zM266 0v275l-258 425h104l199 -339h2l199 339h104l-258 -425v-275h-92z" />
    <glyph glyph-name="Zacute" unicode="&#x179;" horiz-adv-x="574" 
d="M411 918l-105 -148h-81l71 148h115zM161 84h363v-84h-474v70l355 546h-347v84h458v-70z" />
    <glyph glyph-name="zacute" unicode="&#x17a;" horiz-adv-x="446" 
d="M344 684l-99 -140h-77l67 140h109zM149 76h259v-76h-370v58l254 337h-250v75h360v-58z" />
    <glyph glyph-name="Zdotaccent" unicode="&#x17b;" horiz-adv-x="574" 
d="M285 780q-26 0 -45 18.5t-19 45.5t19 45.5t45 18.5t45 -18.5t19 -45.5t-19 -45.5t-45 -18.5zM161 84h363v-84h-474v70l355 546h-347v84h458v-70z" />
    <glyph glyph-name="zdotaccent" unicode="&#x17c;" horiz-adv-x="446" 
d="M223 554q-25 0 -42.5 17.5t-17.5 42.5t17.5 42.5t42.5 17.5t42.5 -17.5t17.5 -42.5t-17.5 -42.5t-42.5 -17.5zM149 76h259v-76h-370v58l254 337h-250v75h360v-58z" />
    <glyph glyph-name="Zcaron" unicode="&#x17d;" horiz-adv-x="574" 
d="M326 770h-82l-124 148h89l76 -92l76 92h89zM161 84h363v-84h-474v70l355 546h-347v84h458v-70z" />
    <glyph glyph-name="zcaron" unicode="&#x17e;" horiz-adv-x="446" 
d="M262 544h-78l-117 140h84l72 -87l72 87h84zM149 76h259v-76h-370v58l254 337h-250v75h360v-58z" />
    <glyph glyph-name="florin" unicode="&#x192;" horiz-adv-x="464" 
d="M402 632q-39 0 -60 -20.5t-31 -74.5l-21 -110h130v-70h-143l-42 -221q-28 -148 -162 -148q-26 0 -47 6v77q20 -3 36 -3q39 0 60 20.5t31 74.5l37 194h-112v70h125l26 137q28 148 162 148q26 0 47 -6v-77q-20 3 -36 3z" />
    <glyph glyph-name="uni01CD" unicode="&#x1cd;" horiz-adv-x="647" 
d="M365 770h-82l-124 148h89l76 -92l76 92h89zM538 0l-63 175h-303l-63 -175h-93l258 700h99l258 -700h-93zM200 255h247l-122 339h-3z" />
    <glyph glyph-name="uni01CE" unicode="&#x1ce;" horiz-adv-x="542" 
d="M306 544h-78l-117 140h84l72 -87l72 87h84zM274 482q93 0 143.5 -48t50.5 -135v-299h-79l-6 64h-3q-23 -34 -68 -55t-98 -21q-71 0 -114.5 37.5t-43.5 97.5q0 58 42.5 95.5t122.5 48.5l160 22v10q0 108 -110 108q-103 0 -109 -88h-90q5 76 58.5 119.5t143.5 43.5zM233 61
q65 0 106.5 40t41.5 101v20l-131 -18q-104 -14 -104 -78q0 -30 22.5 -47.5t64.5 -17.5z" />
    <glyph glyph-name="uni01E2" unicode="&#x1e2;" horiz-adv-x="1008" 
d="M814 875v-72h-278v72h278zM942 616h-334v-222h306v-84h-306v-226h334v-84h-426v183h-281l-116 -183h-107l454 700h476v-84zM286 263h230v353h-6z" />
    <glyph glyph-name="uni01E3" unicode="&#x1e3;" horiz-adv-x="894" 
d="M588 643v-68h-262v68h262zM848 252q0 -18 -3 -38h-364q5 -72 46 -111t100 -39q92 0 129 74h84q-19 -69 -78 -109.5t-138 -40.5q-62 0 -114 27.5t-80 74.5h-3q-25 -48 -77.5 -75t-121.5 -27q-81 0 -126.5 38t-45.5 101q0 70 56 110.5t164 40.5h115v15q0 59 -28 86.5
t-86 27.5q-109 0 -115 -88h-90q5 76 59.5 119.5t148.5 43.5q124 0 167 -81h3q67 81 179 81q96 0 157.5 -63.5t61.5 -166.5zM629 407q-55 0 -93.5 -32t-50.5 -92h274q-8 62 -42.5 93t-87.5 31zM237 63q69 0 111.5 40t42.5 101v4h-116q-129 0 -129 -77q0 -68 91 -68z" />
    <glyph glyph-name="Gcaron" unicode="&#x1e6;" horiz-adv-x="781" 
d="M441 770h-82l-124 148h89l76 -92l76 92h89zM410 280v82h301v-362h-73l-11 104h-3q-34 -55 -96.5 -85.5t-138.5 -30.5q-144 0 -240 101t-96 260q0 160 98 261.5t250 101.5q121 0 206 -65t104 -177h-96q-14 74 -71 116.5t-141 42.5q-113 0 -184.5 -76t-71.5 -203t70.5 -203
t180.5 -76q93 0 155.5 56t73.5 153h-217z" />
    <glyph glyph-name="gcaron" unicode="&#x1e7;" horiz-adv-x="501" 
d="M299 544h-78l-117 140h84l72 -87l72 87h84zM489 482v-54l-87 -7q40 -45 40 -111q0 -76 -52 -124t-136 -48q-45 0 -85 16q-20 -4 -32.5 -17t-12.5 -31q0 -41 58 -41h152q74 0 114.5 -36t40.5 -102q0 -77 -60 -120t-180 -43q-110 0 -167.5 37.5t-57.5 103.5q0 73 67 106
q-47 28 -47 82q0 34 19.5 59t51.5 37q-49 47 -49 121q0 76 52 124t136 48h235zM254 208q49 0 77.5 28t28.5 74q0 47 -28.5 75t-77.5 28t-77.5 -28t-28.5 -75q0 -46 28.5 -74t77.5 -28zM405 -75q0 63 -89 63h-132q-34 0 -55 -19.5t-21 -50.5q0 -79 147 -79q150 0 150 86z" />
    <glyph glyph-name="uni01E8" unicode="&#x1e8;" horiz-adv-x="629" 
d="M369 770h-82l-124 148h89l76 -92l76 92h89zM282 352l335 -352h-122l-304 319h-3v-319h-92v700h92v-325h3l304 325h114z" />
    <glyph glyph-name="uni01E9" unicode="&#x1e9;" horiz-adv-x="505" 
d="M161 774h-78l-117 140h84l72 -87l72 87h84zM496 0h-115l-212 223h-3v-223h-88v700h88v-431h2l209 201h113l-231 -222z" />
    <glyph glyph-name="AEacute" unicode="&#x1fc;" horiz-adv-x="1008" 
d="M801 918l-105 -148h-81l71 148h115zM942 616h-334v-222h306v-84h-306v-226h334v-84h-426v183h-281l-116 -183h-107l454 700h476v-84zM286 263h230v353h-6z" />
    <glyph glyph-name="aeacute" unicode="&#x1fd;" horiz-adv-x="894" 
d="M578 684l-99 -140h-77l67 140h109zM848 252q0 -18 -3 -38h-364q5 -72 46 -111t100 -39q92 0 129 74h84q-19 -69 -78 -109.5t-138 -40.5q-62 0 -114 27.5t-80 74.5h-3q-25 -48 -77.5 -75t-121.5 -27q-81 0 -126.5 38t-45.5 101q0 70 56 110.5t164 40.5h115v15
q0 59 -28 86.5t-86 27.5q-109 0 -115 -88h-90q5 76 59.5 119.5t148.5 43.5q124 0 167 -81h3q67 81 179 81q96 0 157.5 -63.5t61.5 -166.5zM629 407q-55 0 -93.5 -32t-50.5 -92h274q-8 62 -42.5 93t-87.5 31zM237 63q69 0 111.5 40t42.5 101v4h-116q-129 0 -129 -77
q0 -68 91 -68z" />
    <glyph glyph-name="Oslashacute" unicode="&#x1fe;" horiz-adv-x="810" 
d="M531 918l-105 -148h-81l71 148h115zM762 652l-79 -79q67 -96 67 -223q0 -158 -98 -260t-247 -102q-131 0 -226 81l-76 -76l-55 55l79 79q-67 96 -67 223q0 158 98 260t247 102q131 0 226 -81l76 76zM405 628q-110 0 -180.5 -76t-70.5 -202q0 -91 39 -158l376 376
q-66 60 -164 60zM405 72q110 0 180.5 76t70.5 202q0 91 -39 158l-376 -376q66 -60 164 -60z" />
    <glyph glyph-name="oslashacute" unicode="&#x1ff;" horiz-adv-x="587" 
d="M415 684l-99 -140h-77l67 140h109zM557 451l-66 -66q45 -66 45 -150q0 -108 -68.5 -177.5t-173.5 -69.5q-86 0 -151 49l-66 -66l-47 47l67 67q-45 66 -45 150q0 108 68.5 177.5t173.5 69.5q86 0 151 -49l65 65zM294 409q-68 0 -111.5 -48t-43.5 -126q0 -52 20 -92
l232 232q-40 34 -97 34zM294 61q68 0 111.5 48t43.5 126q0 52 -20 92l-232 -232q40 -34 97 -34z" />
    <glyph glyph-name="uni0218" unicode="&#x218;" horiz-adv-x="596" 
d="M362 386q99 -22 144.5 -67t45.5 -116q0 -95 -69.5 -155t-179.5 -60q-111 0 -182.5 63t-74.5 169h94q7 -72 51.5 -110.5t114.5 -38.5q69 0 111 34.5t42 89.5q0 43 -33.5 70t-116.5 45l-64 14q-189 41 -189 184q0 89 67.5 146.5t173.5 57.5q104 0 170 -56.5t75 -155.5h-94
q-19 129 -153 129q-67 0 -106.5 -32t-39.5 -85q0 -43 32.5 -68.5t116.5 -43.5zM288 -79q31 0 51 -24.5t20 -66.5q0 -63 -46 -110h-54q42 48 41 88q-10 -2 -16 -2q-25 0 -41 16.5t-16 41.5q0 24 17.5 40.5t43.5 16.5z" />
    <glyph glyph-name="uni0219" unicode="&#x219;" horiz-adv-x="462" 
d="M285 270q71 -13 104.5 -45.5t33.5 -86.5q0 -67 -50 -108.5t-136 -41.5q-85 0 -137.5 41.5t-57.5 112.5h88q5 -40 33.5 -61.5t74.5 -21.5q45 0 72.5 20t27.5 52q0 26 -21.5 42t-73.5 26l-57 11q-137 27 -137 128q0 63 50 103.5t135 40.5q80 0 127.5 -37t53.5 -104h-88
q-8 70 -98 70q-45 0 -70 -18.5t-25 -49.5q0 -23 19.5 -37t74.5 -25zM219 -79q31 0 51 -24.5t20 -66.5q0 -63 -46 -110h-54q42 48 41 88q-10 -2 -16 -2q-25 0 -41 16.5t-16 41.5q0 24 17.5 40.5t43.5 16.5z" />
    <glyph glyph-name="uni021A" unicode="&#x21a;" horiz-adv-x="564" 
d="M22 700h520v-84h-214v-616h-92v616h-214v84zM277 -79q31 0 51 -24.5t20 -66.5q0 -63 -46 -110h-54q42 48 41 88q-10 -2 -16 -2q-25 0 -41 16.5t-16 41.5q0 24 17.5 40.5t43.5 16.5z" />
    <glyph glyph-name="uni021B" unicode="&#x21b;" horiz-adv-x="361" 
d="M282 63q25 0 45 4v-72q-26 -7 -63 -7q-83 0 -122.5 41t-39.5 135v231h-86v75h86v119h88v-119h133v-75h-133v-231q0 -58 20.5 -79.5t71.5 -21.5zM214 -79q31 0 51 -24.5t20 -66.5q0 -63 -46 -110h-54q42 48 41 88q-10 -2 -16 -2q-25 0 -41 16.5t-16 41.5q0 24 17.5 40.5
t43.5 16.5z" />
    <glyph glyph-name="uni0237" unicode="&#x237;" horiz-adv-x="244" 
d="M31 -236q-27 0 -49 5v73q16 -2 30 -2q36 0 51 16.5t15 59.5v554h88v-554q0 -80 -32.5 -116t-102.5 -36z" />
    <glyph glyph-name="circumflex" unicode="&#x2c6;" horiz-adv-x="600" 
d="M456 544h-84l-72 87l-72 -87h-84l117 140h78z" />
    <glyph glyph-name="caron" unicode="&#x2c7;" horiz-adv-x="600" 
d="M372 684h84l-117 -140h-78l-117 140h84l72 -87z" />
    <glyph glyph-name="breve" unicode="&#x2d8;" horiz-adv-x="600" 
d="M300 544q-63 0 -99 35t-36 96v5h72q0 -77 63 -77t63 77h72v-5q0 -61 -36 -96t-99 -35z" />
    <glyph glyph-name="dotaccent" unicode="&#x2d9;" horiz-adv-x="600" 
d="M300 554q-25 0 -42.5 17.5t-17.5 42.5t17.5 42.5t42.5 17.5t42.5 -17.5t17.5 -42.5t-17.5 -42.5t-42.5 -17.5z" />
    <glyph glyph-name="ring" unicode="&#x2da;" horiz-adv-x="600" 
d="M300 537q-45 0 -75.5 29t-30.5 72t30.5 72t75.5 29t75.5 -29t30.5 -72t-30.5 -72t-75.5 -29zM300 594q20 0 32 12.5t12 31.5t-12 31.5t-32 12.5t-32 -12.5t-12 -31.5t12 -31.5t32 -12.5z" />
    <glyph glyph-name="ogonek" unicode="&#x2db;" horiz-adv-x="600" 
d="M334 -214q-52 0 -82 25.5t-30 68.5q0 44 32.5 81.5t91.5 54.5l32 -16q-78 -59 -78 -105q0 -39 47 -39q16 0 31 4v-69q-22 -5 -44 -5z" />
    <glyph glyph-name="tilde" unicode="&#x2dc;" horiz-adv-x="600" 
d="M368 542q-43 0 -87 50q-29 33 -47 33q-33 0 -33 -75h-61q0 67 25.5 102t67.5 35q44 0 87 -50q28 -33 47 -33q33 0 33 75h61q0 -67 -25.5 -102t-67.5 -35z" />
    <glyph glyph-name="hungarumlaut" unicode="&#x2dd;" horiz-adv-x="600" 
d="M170 544l59 140h90l-83 -140h-66zM327 544l59 140h90l-83 -140h-66z" />
    <glyph glyph-name="gravecomb" unicode="&#x300;" 
d="M-310 544l-99 140h109l67 -140h-77z" />
    <glyph glyph-name="acutecomb" unicode="&#x301;" 
d="M-375 544l67 140h109l-99 -140h-77z" />
    <glyph glyph-name="uni0302" unicode="&#x302;" 
d="M-144 544h-84l-72 87l-72 -87h-84l117 140h78z" />
    <glyph glyph-name="tildecomb" unicode="&#x303;" 
d="M-232 542q-43 0 -87 50q-29 33 -47 33q-33 0 -33 -75h-61q0 67 25.5 102t67.5 35q44 0 87 -50q28 -33 47 -33q33 0 33 75h61q0 -67 -25.5 -102t-67.5 -35z" />
    <glyph glyph-name="uni0304" unicode="&#x304;" 
d="M-431 575v68h262v-68h-262z" />
    <glyph glyph-name="uni0306" unicode="&#x306;" 
d="M-300 544q-63 0 -99 35t-36 96v5h72q0 -77 63 -77t63 77h72v-5q0 -61 -36 -96t-99 -35z" />
    <glyph glyph-name="uni0307" unicode="&#x307;" 
d="M-300 554q-25 0 -42.5 17.5t-17.5 42.5t17.5 42.5t42.5 17.5t42.5 -17.5t17.5 -42.5t-17.5 -42.5t-42.5 -17.5z" />
    <glyph glyph-name="uni0308" unicode="&#x308;" 
d="M-400 554q-25 0 -42.5 17.5t-17.5 42.5t17.5 42.5t42.5 17.5t42.5 -17.5t17.5 -42.5t-17.5 -42.5t-42.5 -17.5zM-200 554q-25 0 -42.5 17.5t-17.5 42.5t17.5 42.5t42.5 17.5t42.5 -17.5t17.5 -42.5t-17.5 -42.5t-42.5 -17.5z" />
    <glyph glyph-name="uni030A" unicode="&#x30a;" 
d="M-300 537q-45 0 -75.5 29t-30.5 72t30.5 72t75.5 29t75.5 -29t30.5 -72t-30.5 -72t-75.5 -29zM-300 594q20 0 32 12.5t12 31.5t-12 31.5t-32 12.5t-32 -12.5t-12 -31.5t12 -31.5t32 -12.5z" />
    <glyph glyph-name="uni030B" unicode="&#x30b;" 
d="M-430 544l59 140h90l-83 -140h-66zM-273 544l59 140h90l-83 -140h-66z" />
    <glyph glyph-name="uni030C" unicode="&#x30c;" 
d="M-228 684h84l-117 -140h-78l-117 140h84l72 -87z" />
    <glyph glyph-name="uni0315" unicode="&#x315;" 
d="M-305 712q31 0 51 -24.5t20 -66.5q0 -88 -87 -153l-31 33q60 53 59 98q-10 -2 -16 -2q-25 0 -41 16.5t-16 41.5q0 24 17.5 40.5t43.5 16.5z" />
    <glyph glyph-name="uni0326" unicode="&#x326;" 
d="M-305 -79q31 0 51 -24.5t20 -66.5q0 -63 -46 -110h-54q42 48 41 88q-10 -2 -16 -2q-25 0 -41 16.5t-16 41.5q0 24 17.5 40.5t43.5 16.5z" />
    <glyph glyph-name="uni0327" unicode="&#x327;" 
d="M-303 -53q42 -5 64.5 -26t22.5 -56q0 -42 -32.5 -66.5t-93.5 -24.5q-20 0 -43 3v63q14 -2 37 -2q60 0 60 33q0 14 -17 21t-67 7l8 101h62z" />
    <glyph glyph-name="uni0328" unicode="&#x328;" 
d="M-266 -214q-52 0 -82 25.5t-30 68.5q0 44 32.5 81.5t91.5 54.5l32 -16q-78 -59 -78 -105q0 -39 47 -39q16 0 31 4v-69q-22 -5 -44 -5z" />
    <glyph glyph-name="uni03BC" unicode="&#x3bc;" horiz-adv-x="561" 
d="M395 470h88v-470h-79l-6 63h-3q-48 -75 -126 -75q-65 0 -103 52v-264h-88v694h88v-266q0 -136 111 -136q54 0 86 37.5t32 108.5v256z" />
    <glyph glyph-name="pi" unicode="&#x3c0;" horiz-adv-x="564" 
d="M513 78h25v-78h-37q-132 0 -132 130v262h-203v-392h-88v470h379v-330q0 -62 56 -62z" />
    <glyph glyph-name="uni1E20" unicode="&#x1e20;" horiz-adv-x="781" 
d="M539 875v-72h-278v72h278zM410 280v82h301v-362h-73l-11 104h-3q-34 -55 -96.5 -85.5t-138.5 -30.5q-144 0 -240 101t-96 260q0 160 98 261.5t250 101.5q121 0 206 -65t104 -177h-96q-14 74 -71 116.5t-141 42.5q-113 0 -184.5 -76t-71.5 -203t70.5 -203t180.5 -76
q93 0 155.5 56t73.5 153h-217z" />
    <glyph glyph-name="uni1E21" unicode="&#x1e21;" horiz-adv-x="501" 
d="M391 643v-68h-262v68h262zM489 482v-54l-87 -7q40 -45 40 -111q0 -76 -52 -124t-136 -48q-45 0 -85 16q-20 -4 -32.5 -17t-12.5 -31q0 -41 58 -41h152q74 0 114.5 -36t40.5 -102q0 -77 -60 -120t-180 -43q-110 0 -167.5 37.5t-57.5 103.5q0 73 67 106q-47 28 -47 82
q0 34 19.5 59t51.5 37q-49 47 -49 121q0 76 52 124t136 48h235zM254 208q49 0 77.5 28t28.5 74q0 47 -28.5 75t-77.5 28t-77.5 -28t-28.5 -75q0 -46 28.5 -74t77.5 -28zM405 -75q0 63 -89 63h-132q-34 0 -55 -19.5t-21 -50.5q0 -79 147 -79q150 0 150 86z" />
    <glyph glyph-name="uni1E30" unicode="&#x1e30;" horiz-adv-x="629" 
d="M454 918l-105 -148h-81l71 148h115zM282 352l335 -352h-122l-304 319h-3v-319h-92v700h92v-325h3l304 325h114z" />
    <glyph glyph-name="uni1E31" unicode="&#x1e31;" horiz-adv-x="505" 
d="M243 914l-99 -140h-77l67 140h109zM496 0h-115l-212 223h-3v-223h-88v700h88v-431h2l209 201h113l-231 -222z" />
    <glyph glyph-name="uni1E3E" unicode="&#x1e3e;" horiz-adv-x="917" 
d="M585 918l-105 -148h-81l71 148h115zM721 700h100v-700h-90v509h-3l-234 -509h-71l-234 509h-3v-509h-90v700h100l261 -577h3z" />
    <glyph glyph-name="uni1E3F" unicode="&#x1e3f;" horiz-adv-x="858" 
d="M550 684l-99 -140h-77l67 140h109zM620 482q74 0 119 -49t45 -136v-297h-88v267q0 137 -99 137q-55 0 -88.5 -38.5t-33.5 -107.5v-258h-88v267q0 137 -98 137q-55 0 -89 -38t-34 -108v-258h-88v470h79l6 -63h3q22 35 62 55t85 20q102 0 141 -88h3q24 40 67.5 64t95.5 24z
" />
    <glyph glyph-name="uni1E40" unicode="&#x1e40;" horiz-adv-x="917" 
d="M459 780q-26 0 -45 18.5t-19 45.5t19 45.5t45 18.5t45 -18.5t19 -45.5t-19 -45.5t-45 -18.5zM721 700h100v-700h-90v509h-3l-234 -509h-71l-234 509h-3v-509h-90v700h100l261 -577h3z" />
    <glyph glyph-name="uni1E41" unicode="&#x1e41;" horiz-adv-x="858" 
d="M429 554q-25 0 -42.5 17.5t-17.5 42.5t17.5 42.5t42.5 17.5t42.5 -17.5t17.5 -42.5t-17.5 -42.5t-42.5 -17.5zM620 482q74 0 119 -49t45 -136v-297h-88v267q0 137 -99 137q-55 0 -88.5 -38.5t-33.5 -107.5v-258h-88v267q0 137 -98 137q-55 0 -89 -38t-34 -108v-258h-88
v470h79l6 -63h3q22 35 62 55t85 20q102 0 141 -88h3q24 40 67.5 64t95.5 24z" />
    <glyph glyph-name="uni1E44" unicode="&#x1e44;" horiz-adv-x="747" 
d="M374 780q-26 0 -45 18.5t-19 45.5t19 45.5t45 18.5t45 -18.5t19 -45.5t-19 -45.5t-45 -18.5zM559 700h92v-700h-97l-363 551h-3v-551h-92v700h97l363 -551h3v551z" />
    <glyph glyph-name="uni1E45" unicode="&#x1e45;" horiz-adv-x="563" 
d="M285 554q-25 0 -42.5 17.5t-17.5 42.5t17.5 42.5t42.5 17.5t42.5 -17.5t17.5 -42.5t-17.5 -42.5t-42.5 -17.5zM319 482q78 0 124 -49t46 -136v-297h-88v263q0 76 -26.5 108.5t-79.5 32.5q-60 0 -94.5 -37.5t-34.5 -110.5v-256h-88v470h79l6 -63h3q48 75 153 75z" />
    <glyph glyph-name="Wgrave" unicode="&#x1e80;" horiz-adv-x="1001" 
d="M476 770l-105 148h115l71 -148h-81zM238 0l-217 700h93l171 -559h3l168 559h89l168 -559h3l171 559h93l-217 -700h-92l-169 566h-3l-169 -566h-92z" />
    <glyph glyph-name="wgrave" unicode="&#x1e81;" horiz-adv-x="788" 
d="M368 544l-99 140h109l67 -140h-77zM179 0l-157 470h91l113 -357h3l125 357h80l125 -357h3l113 357h91l-157 -470h-90l-124 355h-2l-124 -355h-90z" />
    <glyph glyph-name="Wacute" unicode="&#x1e82;" horiz-adv-x="1001" 
d="M441 770l71 148h115l-105 -148h-81zM238 0l-217 700h93l171 -559h3l168 559h89l168 -559h3l171 559h93l-217 -700h-92l-169 566h-3l-169 -566h-92z" />
    <glyph glyph-name="wacute" unicode="&#x1e83;" horiz-adv-x="788" 
d="M339 544l67 140h109l-99 -140h-77zM179 0l-157 470h91l113 -357h3l125 357h80l125 -357h3l113 357h91l-157 -470h-90l-124 355h-2l-124 -355h-90z" />
    <glyph glyph-name="Wdieresis" unicode="&#x1e84;" horiz-adv-x="1001" 
d="M395 780q-26 0 -45 18.5t-19 45.5t19 45.5t45 18.5t45 -18.5t19 -45.5t-19 -45.5t-45 -18.5zM607 780q-26 0 -45 18.5t-19 45.5t19 45.5t45 18.5t45 -18.5t19 -45.5t-19 -45.5t-45 -18.5zM238 0l-217 700h93l171 -559h3l168 559h89l168 -559h3l171 559h93l-217 -700h-92
l-169 566h-3l-169 -566h-92z" />
    <glyph glyph-name="wdieresis" unicode="&#x1e85;" horiz-adv-x="788" 
d="M294 554q-25 0 -42.5 17.5t-17.5 42.5t17.5 42.5t42.5 17.5t42.5 -17.5t17.5 -42.5t-17.5 -42.5t-42.5 -17.5zM494 554q-25 0 -42.5 17.5t-17.5 42.5t17.5 42.5t42.5 17.5t42.5 -17.5t17.5 -42.5t-17.5 -42.5t-42.5 -17.5zM179 0l-157 470h91l113 -357h3l125 357h80
l125 -357h3l113 357h91l-157 -470h-90l-124 355h-2l-124 -355h-90z" />
    <glyph glyph-name="uni1E90" unicode="&#x1e90;" horiz-adv-x="574" 
d="M285 862l-76 -92h-89l124 148h82l124 -148h-89zM161 84h363v-84h-474v70l355 546h-347v84h458v-70z" />
    <glyph glyph-name="uni1E91" unicode="&#x1e91;" horiz-adv-x="446" 
d="M223 631l-72 -87h-84l117 140h78l117 -140h-84zM149 76h259v-76h-370v58l254 337h-250v75h360v-58z" />
    <glyph glyph-name="uni1E9E" unicode="&#x1e9e;" horiz-adv-x="694" 
d="M445 379q205 -18 205 -191q0 -94 -60.5 -147t-173.5 -53q-57 0 -108 11v84q45 -11 98 -11q150 0 150 117q0 60 -40.5 87.5t-131.5 27.5h-44v77l163 199q-50 49 -144 49q-92 0 -136.5 -45.5t-44.5 -142.5v-441h-92v441q0 134 70 202.5t198 68.5q178 0 263 -123z" />
    <glyph glyph-name="Ygrave" unicode="&#x1ef2;" horiz-adv-x="624" 
d="M287 770l-105 148h115l71 -148h-81zM266 0v275l-258 425h104l199 -339h2l199 339h104l-258 -425v-275h-92z" />
    <glyph glyph-name="ygrave" unicode="&#x1ef3;" horiz-adv-x="499" 
d="M301 544h-77l-99 140h109zM396 470h91l-285 -694h-89l92 224l-193 470h93l143 -365h3z" />
    <glyph glyph-name="uni2000" unicode="&#x2000;" horiz-adv-x="500" 
 />
    <glyph glyph-name="uni2001" unicode="&#x2001;" horiz-adv-x="1000" 
 />
    <glyph glyph-name="uni2002" unicode="&#x2002;" horiz-adv-x="500" 
 />
    <glyph glyph-name="uni2003" unicode="&#x2003;" horiz-adv-x="1000" 
 />
    <glyph glyph-name="uni2009" unicode="&#x2009;" horiz-adv-x="150" 
 />
    <glyph glyph-name="uni200A" unicode="&#x200a;" horiz-adv-x="100" 
 />
    <glyph glyph-name="uni200B" unicode="&#x200b;" 
 />
    <glyph glyph-name="endash" unicode="&#x2013;" horiz-adv-x="500" 
d="M0 238v78h500v-78h-500z" />
    <glyph glyph-name="emdash" unicode="&#x2014;" horiz-adv-x="1000" 
d="M0 238v78h1000v-78h-1000z" />
    <glyph glyph-name="quoteleft" unicode="&#x2018;" horiz-adv-x="222" 
d="M120 583q25 0 41 -16.5t16 -41.5q0 -24 -17.5 -40.5t-43.5 -16.5q-31 0 -51 24.5t-20 66.5q0 88 87 153l31 -33q-58 -52 -57 -98q8 2 14 2z" />
    <glyph glyph-name="quoteright" unicode="&#x2019;" horiz-adv-x="222" 
d="M106 712q31 0 51 -24.5t20 -66.5q0 -88 -87 -153l-31 33q58 52 57 98q-8 -2 -14 -2q-25 0 -41 16.5t-16 41.5q0 24 17.5 40.5t43.5 16.5z" />
    <glyph glyph-name="quotesinglbase" unicode="&#x201a;" horiz-adv-x="256" 
d="M123 115q31 0 51 -24.5t20 -66.5q0 -88 -87 -153l-31 33q58 52 57 98q-8 -2 -14 -2q-25 0 -41 16.5t-16 41.5q0 24 17.5 40.5t43.5 16.5z" />
    <glyph glyph-name="quotedblleft" unicode="&#x201c;" horiz-adv-x="394" 
d="M120 583q25 0 41 -16.5t16 -41.5q0 -24 -17.5 -40.5t-43.5 -16.5q-31 0 -51 24.5t-20 66.5q0 88 87 153l31 -33q-58 -52 -57 -98q8 2 14 2zM292 583q25 0 41 -16.5t16 -41.5q0 -24 -17.5 -40.5t-43.5 -16.5q-31 0 -51 24.5t-20 66.5q0 88 87 153l31 -33q-58 -52 -57 -98
q8 2 14 2z" />
    <glyph glyph-name="quotedblright" unicode="&#x201d;" horiz-adv-x="394" 
d="M106 712q31 0 51 -24.5t20 -66.5q0 -88 -87 -153l-31 33q58 52 57 98q-8 -2 -14 -2q-25 0 -41 16.5t-16 41.5q0 24 17.5 40.5t43.5 16.5zM278 712q31 0 51 -24.5t20 -66.5q0 -88 -87 -153l-31 33q58 52 57 98q-8 -2 -14 -2q-25 0 -41 16.5t-16 41.5q0 24 17.5 40.5
t43.5 16.5z" />
    <glyph glyph-name="quotedblbase" unicode="&#x201e;" horiz-adv-x="428" 
d="M123 115q31 0 51 -24.5t20 -66.5q0 -88 -87 -153l-31 33q58 52 57 98q-8 -2 -14 -2q-25 0 -41 16.5t-16 41.5q0 24 17.5 40.5t43.5 16.5zM295 115q31 0 51 -24.5t20 -66.5q0 -88 -87 -153l-31 33q58 52 57 98q-8 -2 -14 -2q-25 0 -41 16.5t-16 41.5q0 24 17.5 40.5
t43.5 16.5z" />
    <glyph glyph-name="dagger" unicode="&#x2020;" horiz-adv-x="518" 
d="M473 508v-80h-172v-556h-84v556h-172v80h172v234h84v-234h172z" />
    <glyph glyph-name="daggerdbl" unicode="&#x2021;" horiz-adv-x="538" 
d="M483 428h-172v-220h152v-80h-152v-256h-84v256h-152v80h152v220h-172v80h172v234h84v-234h172v-80z" />
    <glyph glyph-name="bullet" unicode="&#x2022;" horiz-adv-x="518" 
d="M259 201q-64 0 -106.5 43t-42.5 106t42.5 106t106.5 43t106.5 -43t42.5 -106t-42.5 -106t-106.5 -43z" />
    <glyph glyph-name="ellipsis" unicode="&#x2026;" horiz-adv-x="730" 
d="M125 -7q-27 0 -45 18t-18 45t18 45t45 18t45 -18t18 -45t-18 -45t-45 -18zM365 -7q-27 0 -45 18t-18 45t18 45t45 18t45 -18t18 -45t-18 -45t-45 -18zM605 -7q-27 0 -45 18t-18 45t18 45t45 18t45 -18t18 -45t-18 -45t-45 -18z" />
    <glyph glyph-name="perthousand" unicode="&#x2030;" horiz-adv-x="1283" 
d="M217 356q-75 0 -126 51.5t-51 126.5t51 126.5t126 51.5t126 -51.5t51 -126.5t-51 -126.5t-126 -51.5zM164 0l454 700h89l-454 -700h-89zM217 425q46 0 74 30.5t28 78.5t-28 78.5t-74 30.5t-74 -30.5t-28 -78.5t28 -78.5t74 -30.5zM654 -12q-75 0 -126 51.5t-51 126.5
t51 126.5t126 51.5t126 -51.5t51 -126.5t-51 -126.5t-126 -51.5zM1066 -12q-75 0 -126 51.5t-51 126.5t51 126.5t126 51.5t126 -51.5t51 -126.5t-51 -126.5t-126 -51.5zM654 57q46 0 74 30.5t28 78.5t-28 78.5t-74 30.5t-74 -30.5t-28 -78.5t28 -78.5t74 -30.5zM1066 57
q46 0 74 30.5t28 78.5t-28 78.5t-74 30.5t-74 -30.5t-28 -78.5t28 -78.5t74 -30.5z" />
    <glyph glyph-name="guilsinglleft" unicode="&#x2039;" horiz-adv-x="345" 
d="M295 500l-149 -214l149 -214h-100l-150 214l150 214h100z" />
    <glyph glyph-name="guilsinglright" unicode="&#x203a;" horiz-adv-x="345" 
d="M150 500l150 -214l-150 -214h-100l149 214l-149 214h100z" />
    <glyph glyph-name="fraction" unicode="&#x2044;" horiz-adv-x="543" 
d="M0 0l454 700h89l-454 -700h-89z" />
    <glyph glyph-name="uni2070" unicode="&#x2070;" horiz-adv-x="401" 
d="M200 264q-76 0 -117 43t-41 120v122q0 77 41 120t117 43t117.5 -42.5t41.5 -120.5v-122q0 -78 -41.5 -120.5t-117.5 -42.5zM200 335q81 0 81 88v130q0 88 -81 88q-80 0 -80 -88v-130q0 -88 80 -88z" />
    <glyph glyph-name="uni2074" unicode="&#x2074;" horiz-adv-x="393" 
d="M369 415v-67h-53v-82h-73v82h-209v62l189 290h93v-285h53zM114 415h129v198z" />
    <glyph glyph-name="uni2075" unicode="&#x2075;" horiz-adv-x="380" 
d="M212 549q59 0 97 -39t38 -103q0 -67 -43 -107.5t-112 -40.5q-64 0 -105.5 36t-42.5 98h78q2 -29 22.5 -46t49.5 -17q33 0 54.5 22t21.5 58q0 35 -20.5 55t-53.5 20q-45 0 -70 -33h-76l29 248h242v-71h-176l-13 -104q35 24 80 24z" />
    <glyph glyph-name="uni2076" unicode="&#x2076;" horiz-adv-x="386" 
d="M206 562q61 0 103.5 -41.5t42.5 -105.5q0 -66 -46 -111t-113 -45t-112.5 44.5t-45.5 111.5q0 54 48 125l107 160h92l-94 -139q6 1 18 1zM194 330q35 0 57.5 23.5t22.5 60.5t-22.5 60t-57.5 23t-58.5 -23.5t-23.5 -59.5t23.5 -60t58.5 -24z" />
    <glyph glyph-name="uni2077" unicode="&#x2077;" horiz-adv-x="331" 
d="M24 700h279v-71l-152 -363h-93l157 361h-191v73z" />
    <glyph glyph-name="uni2078" unicode="&#x2078;" horiz-adv-x="384" 
d="M275 496q71 -31 71 -107q0 -55 -41.5 -90t-112.5 -35t-112.5 35t-41.5 90q0 76 71 107q-64 31 -64 97q0 51 41 85t106 34t106 -34t41 -85q0 -66 -64 -97zM192 648q-31 0 -50.5 -17.5t-19.5 -45.5q0 -27 19 -44.5t51 -17.5t51 17.5t19 44.5q0 28 -19.5 45.5t-50.5 17.5z
M192 330q33 0 54.5 18.5t21.5 47.5t-21.5 47.5t-54.5 18.5t-54.5 -18.5t-21.5 -47.5t22 -47.5t54 -18.5z" />
    <glyph glyph-name="uni2079" unicode="&#x2079;" horiz-adv-x="386" 
d="M194 712q67 0 112.5 -44.5t45.5 -111.5q0 -54 -48 -125l-107 -160h-92l94 139q-6 -1 -18 -1q-61 0 -103.5 41.5t-42.5 105.5q0 66 46 111t113 45zM193 474q35 0 58.5 23.5t23.5 59.5t-23.5 60t-58.5 24t-57.5 -23.5t-22.5 -60.5t22.5 -60t57.5 -23z" />
    <glyph glyph-name="Euro" unicode="&#x20ac;" horiz-adv-x="640" 
d="M520 189h88q-14 -94 -76 -147.5t-149 -53.5q-96 0 -163.5 66.5t-87.5 189.5h-88v62h81q-1 12 -1 38q0 18 2 50h-82v62h90q23 122 93 189t165 67q85 0 143 -53.5t69 -149.5h-90q-7 63 -39.5 95.5t-81.5 32.5q-60 0 -106.5 -47t-64.5 -134h235v-62h-243q-2 -28 -2 -44
q0 -30 1 -44h244v-62h-236q17 -88 62 -133.5t104 -45.5q53 0 89.5 33t43.5 91z" />
    <glyph glyph-name="uni2116" unicode="&#x2116;" horiz-adv-x="1245" 
d="M977 289q-90 0 -149 59t-59 152t59 152.5t149 59.5t149 -59.5t59 -152.5t-59 -152t-149 -59zM559 149v551h92v-700h-97l-363 551h-3v-551h-92v700h97l363 -551h3zM977 636q-52 0 -86 -37.5t-34 -98.5t34 -98.5t86 -37.5q53 0 87 38t34 98q0 61 -34 98.5t-87 37.5z
M822 121v78h310v-78h-310z" />
    <glyph glyph-name="trademark" unicode="&#x2122;" horiz-adv-x="750" 
d="M35 635v65h248v-65h-89v-241h-70v241h-89zM620 700h75v-306h-68v209l-87 -129h-48l-87 129v-209h-67v306h74l104 -154z" />
    <glyph glyph-name="uni2126" unicode="&#x2126;" horiz-adv-x="816" 
d="M742 362q0 -186 -147 -282h147v-80h-279v80q191 83 191 280q0 123 -68.5 198.5t-177.5 75.5t-177.5 -75.5t-68.5 -198.5q0 -197 191 -280v-80h-279v80h147q-147 96 -147 282q0 152 97 251t237 99t237 -99t97 -251z" />
    <glyph glyph-name="estimated" unicode="&#x212e;" horiz-adv-x="840" 
d="M420 0q-146 0 -246 97q-101 98 -101 253q0 76 27 142.5t74 112.5q101 95 246 95t245 -95q48 -46 75 -112.5t27 -142.5v-12h-584v-151q0 -66 45 -99q83 -62 192 -62q84 0 154 36.5t113 102.5l21 -16q-47 -71 -123 -110t-165 -39zM183 362h479v146q0 67 -43 101
q-86 65 -199 65q-109 0 -192 -62q-45 -33 -45 -100v-150z" />
    <glyph glyph-name="arrowleft" unicode="&#x2190;" horiz-adv-x="710" 
d="M675 392v-84h-490l164 -161l-55 -57l-258 260l258 260l55 -57l-164 -161h490z" />
    <glyph glyph-name="arrowup" unicode="&#x2191;" horiz-adv-x="710" 
d="M615 415l-57 -55l-161 164v-490h-84v490l-161 -164l-57 55l260 258z" />
    <glyph glyph-name="arrowright" unicode="&#x2192;" horiz-adv-x="710" 
d="M416 610l258 -260l-258 -260l-55 57l164 161h-490v84h490l-164 161z" />
    <glyph glyph-name="arrowdown" unicode="&#x2193;" horiz-adv-x="710" 
d="M558 340l57 -55l-260 -258l-260 258l57 55l161 -164v490h84v-490z" />
    <glyph glyph-name="uni2196" unicode="&#x2196;" horiz-adv-x="710" 
d="M597 168l-60 -60l-347 347l3 -230l-79 -1l1 366l366 1l-1 -79l-230 3z" />
    <glyph glyph-name="uni2197" unicode="&#x2197;" horiz-adv-x="710" 
d="M596 224l-79 1l3 230l-347 -347l-60 60l347 347l-230 -3l-1 79l366 -1z" />
    <glyph glyph-name="uni2198" unicode="&#x2198;" horiz-adv-x="710" 
d="M517 475l79 1l-1 -366l-366 -1l1 79l230 -3l-347 347l60 60l347 -347z" />
    <glyph glyph-name="uni2199" unicode="&#x2199;" horiz-adv-x="710" 
d="M250 185l230 3l1 -79l-366 1l-1 366l79 -1l-3 -230l347 347l60 -60z" />
    <glyph glyph-name="partialdiff" unicode="&#x2202;" horiz-adv-x="636" 
d="M290 712q144 0 217.5 -98.5t73.5 -282.5q0 -189 -83 -270q-75 -73 -188 -73q-116 0 -188 68.5t-72 175.5q0 100 69.5 167t175.5 67q134 0 197 -101h2q-6 143 -57.5 206.5t-150.5 63.5q-73 0 -146 -38v83q69 32 150 32zM310 67q77 0 124.5 45t47.5 120q0 70 -47.5 113
t-124.5 43t-124.5 -43t-47.5 -113q0 -75 47.5 -120t124.5 -45z" />
    <glyph glyph-name="uni2206" unicode="&#x2206;" horiz-adv-x="681" 
d="M364 700l292 -651l-30 -49h-571l-30 49l292 651h47zM552 80l-211 472l-212 -472h423z" />
    <glyph glyph-name="product" unicode="&#x220f;" horiz-adv-x="680" 
d="M96 742h488v-870h-88v788h-312v-788h-88v870z" />
    <glyph glyph-name="summation" unicode="&#x2211;" horiz-adv-x="540" 
d="M510 742v-80h-359l255 -355l-255 -355h359v-80h-455v80l255 355l-255 355v80h455z" />
    <glyph glyph-name="minus" unicode="&#x2212;" horiz-adv-x="650" 
d="M105 278v78h440v-78h-440z" />
    <glyph glyph-name="radical" unicode="&#x221a;" horiz-adv-x="630" 
d="M523 742h87l-250 -870h-93l-135 373h-107v80h169l116 -331z" />
    <glyph glyph-name="infinity" unicode="&#x221e;" horiz-adv-x="764" 
d="M545 520q77 0 125.5 -50.5t48.5 -131.5t-48.5 -131.5t-125.5 -50.5q-98 0 -163 104q-65 -104 -163 -104q-77 0 -125.5 50.5t-48.5 131.5t48.5 131.5t125.5 50.5q98 0 163 -104q65 104 163 104zM216 230q41 0 68 27.5t55 80.5q-28 53 -55 80.5t-68 27.5t-66 -29.5
t-25 -78.5t25 -78.5t66 -29.5zM548 230q41 0 66 29.5t25 78.5t-25 78.5t-66 29.5t-68 -27.5t-55 -80.5q28 -53 55 -80.5t68 -27.5z" />
    <glyph glyph-name="integral" unicode="&#x222b;" horiz-adv-x="394" 
d="M25 -128v78h70q58 0 58 57v608q0 67 32 97t102 30h82v-78h-70q-58 0 -58 -57v-608q0 -67 -32 -97t-102 -30h-82z" />
    <glyph glyph-name="approxequal" unicode="&#x2248;" horiz-adv-x="650" 
d="M430 357q-36 0 -104 21.5t-105 21.5q-55 0 -116 -41v78q54 40 118 40q35 0 104 -21.5t102 -21.5q65 0 116 42v-78q-57 -41 -115 -41zM430 157q-36 0 -104 21.5t-105 21.5q-55 0 -116 -42v79q55 40 118 40q35 0 104 -21.5t102 -21.5q67 0 116 42v-79q-58 -40 -115 -40z
" />
    <glyph glyph-name="notequal" unicode="&#x2260;" horiz-adv-x="650" 
d="M545 378h-156l-58 -122h214v-79h-252l-62 -130h-71l62 130h-117v79h155l58 122h-213v79h251l62 130h71l-62 -130h118v-79z" />
    <glyph glyph-name="lessequal" unicode="&#x2264;" horiz-adv-x="650" 
d="M545 563v-84l-344 -130l344 -129v-84l-441 171v84zM104 0v78h441v-78h-441z" />
    <glyph glyph-name="greaterequal" unicode="&#x2265;" horiz-adv-x="650" 
d="M105 563l440 -172v-84l-440 -171v84l344 129l-344 130v84zM105 0v78h440v-78h-440z" />
    <glyph glyph-name="filledbox" unicode="&#x25a0;" horiz-adv-x="900" 
d="M100 0v700h700v-700h-700z" />
    <glyph glyph-name="triagup" unicode="&#x25b2;" horiz-adv-x="900" 
d="M100 0l350 700l350 -700h-700z" />
    <glyph glyph-name="triagdn" unicode="&#x25bc;" horiz-adv-x="900" 
d="M450 0l-350 700h700z" />
    <glyph glyph-name="uni25C6" unicode="&#x25c6;" horiz-adv-x="900" 
d="M449 0l-349 349l349 351l351 -351z" />
    <glyph glyph-name="lozenge" unicode="&#x25ca;" horiz-adv-x="630" 
d="M30 350l251 350h68l251 -350l-251 -350h-68zM131 349l183 -256l185 258l-183 256z" />
    <glyph glyph-name="uni25CF" unicode="&#x25cf;" horiz-adv-x="900" 
d="M450 0q-145 0 -247.5 102.5t-102.5 247.5t102.5 247.5t247.5 102.5t247.5 -102.5t102.5 -247.5t-102.5 -247.5t-247.5 -102.5z" />
    <glyph glyph-name="uni2610" unicode="&#x2610;" horiz-adv-x="900" 
d="M100 0v700h700v-700h-700zM175 70h550v560h-550v-560z" />
    <glyph glyph-name="uni2611" unicode="&#x2611;" horiz-adv-x="900" 
d="M100 700h700v-700h-700v700zM725 70v560h-550v-560h550zM638 522l-220 -381l-155 89l39 68l90 -53l181 314z" />
    <glyph glyph-name="uni2612" unicode="&#x2612;" horiz-adv-x="900" 
d="M100 700h700v-700h-700v700zM725 70v560h-550v-560h550zM297 147l-50 50l153 153l-153 153l50 50l153 -153l153 153l50 -50l-153 -153l153 -153l-50 -50l-153 153z" />
    <glyph glyph-name="heart" unicode="&#x2665;" horiz-adv-x="900" 
d="M450 48q-36 36 -87.5 72.5t-90 62t-74 57.5t-55 74t-19.5 95q0 93 53.5 145t123.5 52q58 0 100 -35.5t47 -100.5h4q5 65 47 100.5t100 35.5q70 0 123.5 -52t53.5 -145q0 -53 -19.5 -95t-55 -74t-74 -57.5t-90 -62t-87.5 -72.5z" />
    <glyph glyph-name="uni2B51" unicode="&#x2b51;" horiz-adv-x="900" 
d="M218 -3l89 272l-229 166h284l87 270l87 -271h286l-231 -167l88 -270l-230 168z" />
    <glyph glyph-name="uni00A40301" horiz-adv-x="604" 
d="M447 918l-105 -148h-81l71 148h115zM130 700h388v-461q0 -124 -62 -187.5t-176 -63.5t-176 63.5t-62 187.5v77h92v-71q0 -173 146 -173t146 173v371h-296v84z" />
    <glyph glyph-name="i.loclTRK" horiz-adv-x="244" 
d="M122 554q-25 0 -42.5 17.5t-17.5 42.5t17.5 42.5t42.5 17.5t42.5 -17.5t17.5 -42.5t-17.5 -42.5t-42.5 -17.5zM78 0v470h88v-470h-88z" />
    <glyph glyph-name="uni006A0301" horiz-adv-x="244" 
d="M67 544l47 140h109l-79 -140h-77zM31 -236q-27 0 -49 5v73q16 -2 30 -2q36 0 51 16.5t15 59.5v554h88v-554q0 -80 -32.5 -116t-102.5 -36z" />
    <glyph glyph-name="a.ss01" horiz-adv-x="599" 
d="M442 470h79v-470h-79l-6 63h-3q-21 -33 -64 -54t-95 -21q-96 0 -160.5 69.5t-64.5 177.5t64.5 177.5t160.5 69.5q52 0 95 -21t64 -54h3zM289 64q68 0 109 46t41 125t-41 125t-109 46q-67 0 -108.5 -46.5t-41.5 -124.5t41.5 -124.5t108.5 -46.5z" />
    <glyph glyph-name="aacute.ss01" horiz-adv-x="599" 
d="M423 684l-99 -140h-77l67 140h109zM442 470h79v-470h-79l-6 63h-3q-21 -33 -64 -54t-95 -21q-96 0 -160.5 69.5t-64.5 177.5t64.5 177.5t160.5 69.5q52 0 95 -21t64 -54h3zM289 64q68 0 109 46t41 125t-41 125t-109 46q-67 0 -108.5 -46.5t-41.5 -124.5t41.5 -124.5
t108.5 -46.5z" />
    <glyph glyph-name="abreve.ss01" horiz-adv-x="599" 
d="M302 544q-63 0 -99 35t-36 96v5h72q0 -77 63 -77t63 77h72v-5q0 -61 -36 -96t-99 -35zM442 470h79v-470h-79l-6 63h-3q-21 -33 -64 -54t-95 -21q-96 0 -160.5 69.5t-64.5 177.5t64.5 177.5t160.5 69.5q52 0 95 -21t64 -54h3zM289 64q68 0 109 46t41 125t-41 125t-109 46
q-67 0 -108.5 -46.5t-41.5 -124.5t41.5 -124.5t108.5 -46.5z" />
    <glyph glyph-name="uni01CE.ss01" horiz-adv-x="599" 
d="M341 544h-78l-117 140h84l72 -87l72 87h84zM442 470h79v-470h-79l-6 63h-3q-21 -33 -64 -54t-95 -21q-96 0 -160.5 69.5t-64.5 177.5t64.5 177.5t160.5 69.5q52 0 95 -21t64 -54h3zM289 64q68 0 109 46t41 125t-41 125t-109 46q-67 0 -108.5 -46.5t-41.5 -124.5
t41.5 -124.5t108.5 -46.5z" />
    <glyph glyph-name="acircumflex.ss01" horiz-adv-x="599" 
d="M302 631l-72 -87h-84l117 140h78l117 -140h-84zM442 470h79v-470h-79l-6 63h-3q-21 -33 -64 -54t-95 -21q-96 0 -160.5 69.5t-64.5 177.5t64.5 177.5t160.5 69.5q52 0 95 -21t64 -54h3zM289 64q68 0 109 46t41 125t-41 125t-109 46q-67 0 -108.5 -46.5t-41.5 -124.5
t41.5 -124.5t108.5 -46.5z" />
    <glyph glyph-name="adieresis.ss01" horiz-adv-x="599" 
d="M202 554q-25 0 -42.5 17.5t-17.5 42.5t17.5 42.5t42.5 17.5t42.5 -17.5t17.5 -42.5t-17.5 -42.5t-42.5 -17.5zM402 554q-25 0 -42.5 17.5t-17.5 42.5t17.5 42.5t42.5 17.5t42.5 -17.5t17.5 -42.5t-17.5 -42.5t-42.5 -17.5zM442 470h79v-470h-79l-6 63h-3q-21 -33 -64 -54
t-95 -21q-96 0 -160.5 69.5t-64.5 177.5t64.5 177.5t160.5 69.5q52 0 95 -21t64 -54h3zM289 64q68 0 109 46t41 125t-41 125t-109 46q-67 0 -108.5 -46.5t-41.5 -124.5t41.5 -124.5t108.5 -46.5z" />
    <glyph glyph-name="agrave.ss01" horiz-adv-x="599" 
d="M353 544h-77l-99 140h109zM442 470h79v-470h-79l-6 63h-3q-21 -33 -64 -54t-95 -21q-96 0 -160.5 69.5t-64.5 177.5t64.5 177.5t160.5 69.5q52 0 95 -21t64 -54h3zM289 64q68 0 109 46t41 125t-41 125t-109 46q-67 0 -108.5 -46.5t-41.5 -124.5t41.5 -124.5t108.5 -46.5z
" />
    <glyph glyph-name="amacron.ss01" horiz-adv-x="599" 
d="M433 643v-68h-262v68h262zM442 470h79v-470h-79l-6 63h-3q-21 -33 -64 -54t-95 -21q-96 0 -160.5 69.5t-64.5 177.5t64.5 177.5t160.5 69.5q52 0 95 -21t64 -54h3zM289 64q68 0 109 46t41 125t-41 125t-109 46q-67 0 -108.5 -46.5t-41.5 -124.5t41.5 -124.5t108.5 -46.5z
" />
    <glyph glyph-name="aogonek.ss01" horiz-adv-x="599" 
d="M521 0q-78 -59 -78 -105q0 -39 47 -39q16 0 31 4v-69q-22 -5 -44 -5q-52 0 -82 25.5t-30 68.5q0 77 84 120h-7l-6 63h-3q-21 -33 -64 -54t-95 -21q-96 0 -160.5 69.5t-64.5 177.5t64.5 177.5t160.5 69.5q52 0 95 -21t64 -54h3l6 63h79v-470zM289 64q68 0 109 46t41 125
t-41 125t-109 46q-67 0 -108.5 -46.5t-41.5 -124.5t41.5 -124.5t108.5 -46.5z" />
    <glyph glyph-name="aring.ss01" horiz-adv-x="599" 
d="M302 537q-45 0 -75.5 29t-30.5 72t30.5 72t75.5 29t75.5 -29t30.5 -72t-30.5 -72t-75.5 -29zM302 682q-20 0 -32 -12.5t-12 -31.5t12 -31.5t32 -12.5t32 12.5t12 31.5t-12 31.5t-32 12.5zM442 470h79v-470h-79l-6 63h-3q-21 -33 -64 -54t-95 -21q-96 0 -160.5 69.5
t-64.5 177.5t64.5 177.5t160.5 69.5q52 0 95 -21t64 -54h3zM289 64q68 0 109 46t41 125t-41 125t-109 46q-67 0 -108.5 -46.5t-41.5 -124.5t41.5 -124.5t108.5 -46.5z" />
    <glyph glyph-name="atilde.ss01" horiz-adv-x="599" 
d="M236 625q-33 0 -33 -75h-61q0 67 25.5 102t67.5 35q44 0 87 -50q28 -33 47 -33q33 0 33 75h61q0 -67 -25.5 -102t-67.5 -35q-43 0 -87 50q-29 33 -47 33zM442 470h79v-470h-79l-6 63h-3q-21 -33 -64 -54t-95 -21q-96 0 -160.5 69.5t-64.5 177.5t64.5 177.5t160.5 69.5
q52 0 95 -21t64 -54h3zM289 64q68 0 109 46t41 125t-41 125t-109 46q-67 0 -108.5 -46.5t-41.5 -124.5t41.5 -124.5t108.5 -46.5z" />
    <glyph glyph-name="y.ss02" horiz-adv-x="564" 
d="M398 470h88v-495q0 -98 -59 -154.5t-158 -56.5q-88 0 -143 44t-61 123h89q4 -44 35 -68t81 -24q61 0 96 35.5t35 100.5v94h-3q-22 -35 -62.5 -55t-89.5 -20q-77 0 -124 49t-47 136v291h88v-259q0 -74 26.5 -106.5t79.5 -32.5q60 0 94.5 37.5t34.5 108.5v252z" />
    <glyph glyph-name="yacute.ss02" horiz-adv-x="564" 
d="M403 684l-99 -140h-77l67 140h109zM398 470h88v-495q0 -98 -59 -154.5t-158 -56.5q-88 0 -143 44t-61 123h89q4 -44 35 -68t81 -24q61 0 96 35.5t35 100.5v94h-3q-22 -35 -62.5 -55t-89.5 -20q-77 0 -124 49t-47 136v291h88v-259q0 -74 26.5 -106.5t79.5 -32.5
q60 0 94.5 37.5t34.5 108.5v252z" />
    <glyph glyph-name="ycircumflex.ss02" horiz-adv-x="564" 
d="M282 631l-72 -87h-84l117 140h78l117 -140h-84zM398 470h88v-495q0 -98 -59 -154.5t-158 -56.5q-88 0 -143 44t-61 123h89q4 -44 35 -68t81 -24q61 0 96 35.5t35 100.5v94h-3q-22 -35 -62.5 -55t-89.5 -20q-77 0 -124 49t-47 136v291h88v-259q0 -74 26.5 -106.5
t79.5 -32.5q60 0 94.5 37.5t34.5 108.5v252z" />
    <glyph glyph-name="ydieresis.ss02" horiz-adv-x="564" 
d="M182 554q-25 0 -42.5 17.5t-17.5 42.5t17.5 42.5t42.5 17.5t42.5 -17.5t17.5 -42.5t-17.5 -42.5t-42.5 -17.5zM382 554q-25 0 -42.5 17.5t-17.5 42.5t17.5 42.5t42.5 17.5t42.5 -17.5t17.5 -42.5t-17.5 -42.5t-42.5 -17.5zM398 470h88v-495q0 -98 -59 -154.5t-158 -56.5
q-88 0 -143 44t-61 123h89q4 -44 35 -68t81 -24q61 0 96 35.5t35 100.5v94h-3q-22 -35 -62.5 -55t-89.5 -20q-77 0 -124 49t-47 136v291h88v-259q0 -74 26.5 -106.5t79.5 -32.5q60 0 94.5 37.5t34.5 108.5v252z" />
    <glyph glyph-name="ygrave.ss02" horiz-adv-x="564" 
d="M333 544h-77l-99 140h109zM398 470h88v-495q0 -98 -59 -154.5t-158 -56.5q-88 0 -143 44t-61 123h89q4 -44 35 -68t81 -24q61 0 96 35.5t35 100.5v94h-3q-22 -35 -62.5 -55t-89.5 -20q-77 0 -124 49t-47 136v291h88v-259q0 -74 26.5 -106.5t79.5 -32.5q60 0 94.5 37.5
t34.5 108.5v252z" />
    <glyph glyph-name="g.ss03" horiz-adv-x="600" 
d="M443 470h79v-472q0 -110 -64 -172t-176 -62q-98 0 -159 48t-67 132h90q7 -49 43.5 -77t95.5 -28q72 0 112 41.5t40 113.5v75h-3q-20 -33 -64 -53.5t-96 -20.5q-96 0 -160 68.5t-64 174.5t64.5 175t159.5 69q52 0 96 -21t64 -54h3zM289 70q67 0 108 45.5t41 122.5
t-41 122.5t-108 45.5t-108 -45.5t-41 -122.5t41 -122.5t108 -45.5z" />
    <glyph glyph-name="gbreve.ss03" horiz-adv-x="600" 
d="M301 544q-63 0 -99 35t-36 96v5h72q0 -77 63 -77t63 77h72v-5q0 -61 -36 -96t-99 -35zM443 470h79v-472q0 -110 -64 -172t-176 -62q-98 0 -159 48t-67 132h90q7 -49 43.5 -77t95.5 -28q72 0 112 41.5t40 113.5v75h-3q-20 -33 -64 -53.5t-96 -20.5q-96 0 -160 68.5
t-64 174.5t64.5 175t159.5 69q52 0 96 -21t64 -54h3zM289 70q67 0 108 45.5t41 122.5t-41 122.5t-108 45.5t-108 -45.5t-41 -122.5t41 -122.5t108 -45.5z" />
    <glyph glyph-name="gcaron.ss03" horiz-adv-x="600" 
d="M340 544h-78l-117 140h84l72 -87l72 87h84zM443 470h79v-472q0 -110 -64 -172t-176 -62q-98 0 -159 48t-67 132h90q7 -49 43.5 -77t95.5 -28q72 0 112 41.5t40 113.5v75h-3q-20 -33 -64 -53.5t-96 -20.5q-96 0 -160 68.5t-64 174.5t64.5 175t159.5 69q52 0 96 -21t64 -54
h3zM289 70q67 0 108 45.5t41 122.5t-41 122.5t-108 45.5t-108 -45.5t-41 -122.5t41 -122.5t108 -45.5z" />
    <glyph glyph-name="gcircumflex.ss03" horiz-adv-x="600" 
d="M301 631l-72 -87h-84l117 140h78l117 -140h-84zM443 470h79v-472q0 -110 -64 -172t-176 -62q-98 0 -159 48t-67 132h90q7 -49 43.5 -77t95.5 -28q72 0 112 41.5t40 113.5v75h-3q-20 -33 -64 -53.5t-96 -20.5q-96 0 -160 68.5t-64 174.5t64.5 175t159.5 69q52 0 96 -21
t64 -54h3zM289 70q67 0 108 45.5t41 122.5t-41 122.5t-108 45.5t-108 -45.5t-41 -122.5t41 -122.5t108 -45.5z" />
    <glyph glyph-name="uni0123.ss03" horiz-adv-x="600" 
d="M306 549q-31 0 -51 24.5t-20 66.5q0 63 46 110h54q-42 -48 -41 -88q10 2 16 2q25 0 41 -16.5t16 -41.5q0 -24 -17.5 -40.5t-43.5 -16.5zM443 470h79v-472q0 -110 -64 -172t-176 -62q-98 0 -159 48t-67 132h90q7 -49 43.5 -77t95.5 -28q72 0 112 41.5t40 113.5v75h-3
q-20 -33 -64 -53.5t-96 -20.5q-96 0 -160 68.5t-64 174.5t64.5 175t159.5 69q52 0 96 -21t64 -54h3zM289 70q67 0 108 45.5t41 122.5t-41 122.5t-108 45.5t-108 -45.5t-41 -122.5t41 -122.5t108 -45.5z" />
    <glyph glyph-name="gdotaccent.ss03" horiz-adv-x="600" 
d="M301 554q-25 0 -42.5 17.5t-17.5 42.5t17.5 42.5t42.5 17.5t42.5 -17.5t17.5 -42.5t-17.5 -42.5t-42.5 -17.5zM443 470h79v-472q0 -110 -64 -172t-176 -62q-98 0 -159 48t-67 132h90q7 -49 43.5 -77t95.5 -28q72 0 112 41.5t40 113.5v75h-3q-20 -33 -64 -53.5t-96 -20.5
q-96 0 -160 68.5t-64 174.5t64.5 175t159.5 69q52 0 96 -21t64 -54h3zM289 70q67 0 108 45.5t41 122.5t-41 122.5t-108 45.5t-108 -45.5t-41 -122.5t41 -122.5t108 -45.5z" />
    <glyph glyph-name="uni1E21.ss03" horiz-adv-x="600" 
d="M432 643v-68h-262v68h262zM443 470h79v-472q0 -110 -64 -172t-176 -62q-98 0 -159 48t-67 132h90q7 -49 43.5 -77t95.5 -28q72 0 112 41.5t40 113.5v75h-3q-20 -33 -64 -53.5t-96 -20.5q-96 0 -160 68.5t-64 174.5t64.5 175t159.5 69q52 0 96 -21t64 -54h3zM289 70
q67 0 108 45.5t41 122.5t-41 122.5t-108 45.5t-108 -45.5t-41 -122.5t41 -122.5t108 -45.5z" />
    <glyph glyph-name="zero.lf" horiz-adv-x="646" 
d="M323 -12q-118 0 -182.5 69t-64.5 192v202q0 123 64.5 192t182.5 69t182.5 -69t64.5 -192v-202q0 -123 -64.5 -192t-182.5 -69zM323 68q75 0 116 45.5t41 135.5v202q0 90 -41 135.5t-116 45.5t-116 -45.5t-41 -135.5v-202q0 -90 41 -135.5t116 -45.5z" />
    <glyph glyph-name="one.lf" horiz-adv-x="412" 
d="M237 700h70v-700h-90v548h-137v72h30q63 0 89 16.5t38 63.5z" />
    <glyph glyph-name="two.lf" horiz-adv-x="573" 
d="M154 80h363v-80h-456v42q0 84 43 144.5t159 132.5q93 58 126.5 101t33.5 92q0 57 -33.5 89t-93.5 32q-66 0 -103.5 -41t-40.5 -123h-90q2 114 67 178.5t169 64.5q96 0 155.5 -55t59.5 -149q0 -69 -41.5 -124t-148.5 -121q-91 -56 -127 -95.5t-42 -87.5z" />
    <glyph glyph-name="three.lf" horiz-adv-x="594" 
d="M292 -12q-103 0 -165.5 56t-64.5 156h90q3 -63 41.5 -97.5t102.5 -34.5q67 0 106.5 36.5t39.5 94.5t-40 90.5t-113 32.5h-61v77h61q66 0 99.5 31.5t33.5 85.5q0 55 -33 85.5t-95 30.5q-126 0 -135 -133h-90q4 99 66 156t161 57q96 0 155.5 -53.5t59.5 -139.5
q0 -106 -95 -156v-3q56 -22 86 -64.5t30 -100.5q0 -90 -66.5 -148.5t-173.5 -58.5z" />
    <glyph glyph-name="four.lf" horiz-adv-x="588" 
d="M562 212v-76h-97v-136h-85v136h-340v72l318 492h107v-488h97zM132 212h248v384z" />
    <glyph glyph-name="five.lf" horiz-adv-x="591" 
d="M320 455q96 0 159.5 -64t63.5 -165q0 -105 -68.5 -171.5t-177.5 -66.5q-97 0 -160.5 56t-68.5 154h90q7 -63 45 -96.5t97 -33.5q70 0 111.5 43.5t41.5 116.5q0 71 -39.5 111t-106.5 40q-93 0 -145 -70h-78l42 391h370v-80h-293l-24 -211q61 46 141 46z" />
    <glyph glyph-name="six.lf" horiz-adv-x="587" 
d="M307 464q98 0 166.5 -67.5t68.5 -167.5q0 -101 -71.5 -171t-177.5 -70q-104 0 -174.5 67.5t-70.5 167.5q0 94 87 223l170 254h102l-168 -247q33 11 68 11zM295 68q67 0 112 45t45 115t-45 115t-112 45t-112 -45t-45 -115t45 -115t112 -45z" />
    <glyph glyph-name="seven.lf" horiz-adv-x="522" 
d="M42 700h442v-72l-283 -628h-96l282 620h-345v80z" />
    <glyph glyph-name="eight.lf" horiz-adv-x="602" 
d="M301 -12q-107 0 -173 55t-66 143q0 60 32 106.5t86 69.5v2q-52 23 -78 64t-26 93q0 84 62.5 137.5t162.5 53.5t162.5 -53.5t62.5 -137.5q0 -52 -26 -93t-78 -64v-2q54 -23 86 -69.5t32 -106.5q0 -88 -66 -143t-173 -55zM301 400q65 0 101 31.5t36 85.5t-36 85.5
t-101 31.5t-101 -31.5t-36 -85.5t36 -85.5t101 -31.5zM301 66q68 0 109 34t41 92t-41.5 94.5t-108.5 36.5t-108.5 -36.5t-41.5 -94.5t41 -92t109 -34z" />
    <glyph glyph-name="nine.lf" horiz-adv-x="587" 
d="M294 712q104 0 174.5 -67.5t70.5 -167.5q0 -94 -87 -223l-170 -254h-102l168 247q-33 -11 -68 -11q-98 0 -166.5 67.5t-68.5 167.5q0 101 71.5 171t177.5 70zM292 312q67 0 112 45t45 115t-45 115t-112 45t-112 -45t-45 -115t45 -115t112 -45z" />
    <glyph glyph-name="zero.tf" horiz-adv-x="650" 
d="M325 -12q-118 0 -182.5 69t-64.5 192v202q0 123 64.5 192t182.5 69t182.5 -69t64.5 -192v-202q0 -123 -64.5 -192t-182.5 -69zM325 68q75 0 116 45.5t41 135.5v202q0 90 -41 135.5t-116 45.5t-116 -45.5t-41 -135.5v-202q0 -90 41 -135.5t116 -45.5z" />
    <glyph glyph-name="one.tf" horiz-adv-x="650" 
d="M409 80h166v-80h-452v80h196v468h-171v72h64q63 0 89 16.5t38 63.5h70v-620z" />
    <glyph glyph-name="two.tf" horiz-adv-x="650" 
d="M194 80h363v-80h-456v42q0 84 43 144.5t159 132.5q93 58 126.5 101t33.5 92q0 57 -33.5 89t-93.5 32q-66 0 -103.5 -41t-40.5 -123h-90q2 114 67 178.5t169 64.5q96 0 155.5 -55t59.5 -149q0 -69 -41.5 -124t-148.5 -121q-91 -56 -127 -95.5t-42 -87.5z" />
    <glyph glyph-name="three.tf" horiz-adv-x="650" 
d="M322 -12q-103 0 -165.5 56t-64.5 156h90q3 -63 41.5 -97.5t102.5 -34.5q67 0 106.5 36.5t39.5 94.5t-40 90.5t-113 32.5h-61v77h61q66 0 99.5 31.5t33.5 85.5q0 55 -33 85.5t-95 30.5q-126 0 -135 -133h-90q4 99 66 156t161 57q96 0 155.5 -53.5t59.5 -139.5
q0 -106 -95 -156v-3q56 -22 86 -64.5t30 -100.5q0 -90 -66.5 -148.5t-173.5 -58.5z" />
    <glyph glyph-name="four.tf" horiz-adv-x="650" 
d="M598 212v-76h-97v-136h-85v136h-340v72l318 492h107v-488h97zM168 212h248v384z" />
    <glyph glyph-name="five.tf" horiz-adv-x="650" 
d="M349 455q96 0 159.5 -64t63.5 -165q0 -105 -68.5 -171.5t-177.5 -66.5q-97 0 -160.5 56t-68.5 154h90q7 -63 45 -96.5t97 -33.5q70 0 111.5 43.5t41.5 116.5q0 71 -39.5 111t-106.5 40q-93 0 -145 -70h-78l42 391h370v-80h-293l-24 -211q61 46 141 46z" />
    <glyph glyph-name="six.tf" horiz-adv-x="650" 
d="M339 464q98 0 166.5 -67.5t68.5 -167.5q0 -101 -71.5 -171t-177.5 -70q-104 0 -174.5 67.5t-70.5 167.5q0 94 87 223l170 254h102l-168 -247q33 11 68 11zM327 68q67 0 112 45t45 115t-45 115t-112 45t-112 -45t-45 -115t45 -115t112 -45z" />
    <glyph glyph-name="seven.tf" horiz-adv-x="650" 
d="M93 700h459v-72l-283 -628h-96l282 620h-362v80z" />
    <glyph glyph-name="eight.tf" horiz-adv-x="650" 
d="M325 -12q-107 0 -173 55t-66 143q0 60 32 106.5t86 69.5v2q-52 23 -78 64t-26 93q0 84 62.5 137.5t162.5 53.5t162.5 -53.5t62.5 -137.5q0 -52 -26 -93t-78 -64v-2q54 -23 86 -69.5t32 -106.5q0 -88 -66 -143t-173 -55zM325 400q65 0 101 31.5t36 85.5t-36 85.5
t-101 31.5t-101 -31.5t-36 -85.5t36 -85.5t101 -31.5zM325 66q68 0 109 34t41 92t-41.5 94.5t-108.5 36.5t-108.5 -36.5t-41.5 -94.5t41 -92t109 -34z" />
    <glyph glyph-name="nine.tf" horiz-adv-x="650" 
d="M325 712q104 0 174.5 -67.5t70.5 -167.5q0 -94 -87 -223l-170 -254h-102l168 247q-33 -11 -68 -11q-98 0 -166.5 67.5t-68.5 167.5q0 101 71.5 171t177.5 70zM323 312q67 0 112 45t45 115t-45 115t-112 45t-112 -45t-45 -115t45 -115t112 -45z" />
    <glyph glyph-name="zero.tf.zero" horiz-adv-x="650" 
d="M325 712q118 0 182.5 -69t64.5 -192v-202q0 -123 -64.5 -192t-182.5 -69t-182.5 69t-64.5 192v202q0 123 64.5 192t182.5 69zM325 632q-75 0 -116 -45.5t-41 -135.5v-158l310 207q-21 132 -153 132zM325 68q75 0 116 45.5t41 135.5v159l-310 -208q21 -132 153 -132z" />
    <glyph glyph-name="zero.zero" horiz-adv-x="646" 
d="M323 712q118 0 182.5 -69t64.5 -192v-202q0 -123 -64.5 -192t-182.5 -69t-182.5 69t-64.5 192v202q0 123 64.5 192t182.5 69zM323 632q-75 0 -116 -45.5t-41 -135.5v-158l310 207q-21 132 -153 132zM323 68q75 0 116 45.5t41 135.5v159l-310 -208q21 -132 153 -132z" />
    <glyph glyph-name="colon.case" horiz-adv-x="260" 
d="M135 461q-27 0 -45 18t-18 45t18 45t45 18t45 -18t18 -45t-18 -45t-45 -18zM135 110q-27 0 -45 18t-18 45t18 45t45 18t45 -18t18 -45t-18 -45t-45 -18z" />
    <glyph glyph-name="exclamdown.case" horiz-adv-x="278" 
d="M139 707q27 0 45 -18t18 -45t-18 -45t-45 -18t-45 18t-18 45t18 45t45 18zM105 484h68l12 -484h-92z" />
    <glyph glyph-name="questiondown.case" horiz-adv-x="491" 
d="M270 710q27 0 45 -18t18 -45t-18 -45t-45 -18t-45 18t-18 45t18 45t45 18zM314 487v-46q0 -50 -15.5 -81t-62.5 -70l-49 -41q-53 -45 -53 -90q0 -41 27 -65.5t74 -24.5q55 0 87.5 33t33.5 91h89q-3 -93 -61 -147.5t-148 -54.5q-83 0 -136.5 46t-53.5 119q0 81 90 156
l49 41q26 22 33.5 38t7.5 50v46h88z" />
    <glyph glyph-name="parenleft.case" horiz-adv-x="328" 
d="M228 -89q-76 89 -117 203.5t-41 235.5t41 235.5t117 203.5l66 -48q-58 -70 -96 -177t-38 -214t38 -214t96 -177z" />
    <glyph glyph-name="parenright.case" horiz-adv-x="328" 
d="M100 -89l-66 48q58 70 96 177t38 214t-38 214t-96 177l66 48q76 -89 117 -203.5t41 -235.5t-41 -235.5t-117 -203.5z" />
    <glyph glyph-name="braceleft.case" horiz-adv-x="371" 
d="M254 -78q-73 0 -106.5 30.5t-33.5 96.5v204q0 30 -15 44t-49 14h-12v78h12q34 0 49 14t15 44v204q0 66 33.5 96.5t106.5 30.5h82v-78h-76q-58 0 -58 -57v-189q0 -79 -67 -102v-4q67 -23 67 -102v-189q0 -57 58 -57h76v-78h-82z" />
    <glyph glyph-name="braceright.case" horiz-adv-x="371" 
d="M117 -78h-82v78h76q58 0 58 57v189q0 79 67 102v4q-67 23 -67 102v189q0 57 -58 57h-76v78h82q73 0 106.5 -30.5t33.5 -96.5v-204q0 -30 15 -44t49 -14h12v-78h-12q-34 0 -49 -14t-15 -44v-204q0 -66 -33.5 -96.5t-106.5 -30.5z" />
    <glyph glyph-name="bracketleft.case" horiz-adv-x="363" 
d="M328 700h-144v-700h144v-78h-232v856h232v-78z" />
    <glyph glyph-name="bracketright.case" horiz-adv-x="363" 
d="M35 778h232v-856h-232v78h144v700h-144v78z" />
    <glyph glyph-name="hyphen.case" horiz-adv-x="414" 
d="M52 281v78h310v-78h-310z" />
    <glyph glyph-name="endash.case" horiz-adv-x="500" 
d="M0 281v78h500v-78h-500z" />
    <glyph glyph-name="emdash.case" horiz-adv-x="1000" 
d="M0 281v78h1000v-78h-1000z" />
    <glyph glyph-name="guillemotleft.case" horiz-adv-x="580" 
d="M305 564l-149 -214l149 -214h-100l-150 214l150 214h100zM520 564l-149 -214l149 -214h-100l-150 214l150 214h100z" />
    <glyph glyph-name="guillemotright.case" horiz-adv-x="580" 
d="M160 564l150 -214l-150 -214h-100l149 214l-149 214h100zM375 564l150 -214l-150 -214h-100l149 214l-149 214h100z" />
    <glyph glyph-name="guilsinglleft.case" horiz-adv-x="365" 
d="M305 564l-149 -214l149 -214h-100l-150 214l150 214h100z" />
    <glyph glyph-name="guilsinglright.case" horiz-adv-x="365" 
d="M160 564l150 -214l-150 -214h-100l149 214l-149 214h100z" />
    <glyph glyph-name="cent.tf" horiz-adv-x="650" 
d="M564 287q-9 -79 -64 -127.5t-139 -55.5v-104h-58v105q-93 11 -149.5 78.5t-56.5 166.5q0 98 57 165t149 80v105h58v-104q84 -5 137.5 -54t62.5 -129h-86q-6 46 -36 74.5t-78 34.5v-344q49 6 81.5 35t38.5 74h83zM184 350q0 -68 32.5 -113t86.5 -56v338q-54 -11 -86.5 -56
t-32.5 -113z" />
    <glyph glyph-name="currency.tf" horiz-adv-x="650" 
d="M517 350q0 -62 -32 -111l74 -75l-48 -48l-74 73q-47 -33 -112 -33q-63 0 -112 33l-73 -73l-49 48l75 75q-32 47 -32 111t32 111l-75 75l49 48l73 -73q49 33 112 33q65 0 112 -33l74 73l48 -48l-74 -75q32 -49 32 -111zM325 231q51 0 82.5 33t31.5 86t-31.5 86t-82.5 33
t-82 -33t-31 -86t31 -86t82 -33z" />
    <glyph glyph-name="dollar.tf" horiz-adv-x="650" 
d="M554 219q0 -81 -56 -134t-147 -60v-67h-56v68q-89 8 -145 62.5t-59 140.5h92q7 -106 112 -124v216l-19 4q-171 37 -171 166q0 75 53.5 126t140.5 58v67h56v-67q83 -8 134.5 -55.5t56.5 -128.5h-92q-6 93 -99 105v-206l28 -6q171 -37 171 -165zM194 494q0 -35 23 -55.5
t82 -35.5v193q-50 -6 -77.5 -33t-27.5 -69zM351 104q53 6 83.5 35.5t30.5 73.5q0 36 -25.5 58t-88.5 37v-204z" />
    <glyph glyph-name="Euro.tf" horiz-adv-x="650" 
d="M523 189h88q-14 -94 -76 -147.5t-149 -53.5q-96 0 -163.5 66.5t-87.5 189.5h-88v62h81q-1 12 -1 38q0 18 2 50h-82v62h90q23 122 93 189t165 67q85 0 143 -53.5t69 -149.5h-90q-7 63 -39.5 95.5t-81.5 32.5q-60 0 -106.5 -47t-64.5 -134h235v-62h-243q-2 -28 -2 -44
q0 -30 1 -44h244v-62h-236q17 -88 62 -133.5t104 -45.5q53 0 89.5 33t43.5 91z" />
    <glyph glyph-name="florin.tf" horiz-adv-x="650" 
d="M495 632q-39 0 -60 -20.5t-31 -74.5l-21 -110h130v-70h-143l-42 -221q-28 -148 -162 -148q-26 0 -47 6v77q19 -3 36 -3q39 0 60 20.5t31 74.5l37 194h-112v70h125l26 137q28 148 162 148q26 0 47 -6v-77q-19 3 -36 3z" />
    <glyph glyph-name="sterling.tf" horiz-adv-x="650" 
d="M248 78h314v-78h-457v61q130 65 130 169q0 26 -9 60h-117v70h87q-1 1 -7.5 14.5t-7.5 16t-7 15t-7.5 16t-6 15t-6 17t-4.5 16t-4 18t-2 17t-1 18.5q0 82 58.5 135.5t153.5 53.5t150.5 -56t55.5 -157h-87q-3 140 -119 140q-57 0 -91 -33t-34 -85q0 -15 2.5 -30t10 -35.5
t11 -28.5t16.5 -35.5t15 -31.5h190v-70h-164q9 -38 9 -64q0 -92 -72 -148z" />
    <glyph glyph-name="yen.tf" horiz-adv-x="650" 
d="M588 700l-190 -355h150v-62h-180v-88h180v-62h-180v-133h-86v133h-180v62h180v88h-180v62h150l-190 355h95l168 -326l168 326h95z" />
    <glyph glyph-name="at.case" horiz-adv-x="955" 
d="M503 -75q-192 0 -316 117.5t-124 302.5q0 186 125.5 308t306.5 122q171 0 291 -109.5t120 -279.5q0 -110 -50.5 -178t-126.5 -68q-43 0 -74.5 23t-43.5 67h-3q-18 -44 -55.5 -67t-85.5 -23q-78 0 -129.5 57.5t-51.5 148.5t51.5 148.5t129.5 57.5q91 0 126 -73h3l6 59h67
v-248q0 -84 61 -84q46 0 72.5 45t26.5 126q0 149 -94 236.5t-238 87.5q-154 0 -253 -99.5t-99 -254.5q0 -156 100 -252.5t260 -96.5q112 0 197 44v-77q-91 -40 -199 -40zM482 213q50 0 82 35.5t32 97.5t-32 97.5t-82 35.5t-82 -35.5t-32 -97.5t32 -97.5t82 -35.5z" />
    <glyph glyph-name="uni0308.case" 
d="M-406 550q-26 0 -45 18.5t-19 45.5t19 45.5t45 18.5t45 -18.5t19 -45.5t-19 -45.5t-45 -18.5zM-194 550q-26 0 -45 18.5t-19 45.5t19 45.5t45 18.5t45 -18.5t19 -45.5t-19 -45.5t-45 -18.5z" />
    <glyph glyph-name="uni0307.case" 
d="M-300 550q-26 0 -45 18.5t-19 45.5t19 45.5t45 18.5t45 -18.5t19 -45.5t-19 -45.5t-45 -18.5z" />
    <glyph glyph-name="gravecomb.case" 
d="M-309 540l-105 148h115l71 -148h-81z" />
    <glyph glyph-name="acutecomb.case" 
d="M-380 540l71 148h115l-105 -148h-81z" />
    <glyph glyph-name="uni030B.case" 
d="M-439 540l62 148h96l-88 -148h-70zM-273 540l63 148h95l-88 -148h-70z" />
    <glyph glyph-name="uni0302.case" 
d="M-135 540h-89l-76 92l-76 -92h-89l124 148h82z" />
    <glyph glyph-name="uni030C.case" 
d="M-224 688h89l-124 -148h-82l-124 148h89l76 -92z" />
    <glyph glyph-name="uni0306.case" 
d="M-300 540q-67 0 -105 37t-38 102v5h76q0 -82 67 -82t67 82h76v-5q0 -65 -38 -102t-105 -37z" />
    <glyph glyph-name="uni030A.case" 
d="M-300 531q-48 0 -80 31t-32 76t32 76t80 31t80 -31t32 -76t-32 -76t-80 -31zM-300 591q21 0 34 13.5t13 33.5t-13 33.5t-34 13.5t-34 -13.5t-13 -33.5t13 -33.5t34 -13.5z" />
    <glyph glyph-name="tildecomb.case" 
d="M-228 538q-45 0 -92 53q-32 35 -50 35q-35 0 -35 -80h-65q0 71 27 108t72 37q46 0 92 -53q31 -35 50 -35q35 0 35 80h65q0 -71 -27 -108t-72 -37z" />
    <glyph glyph-name="uni0304.case" 
d="M-439 573v72h278v-72h-278z" />
    <glyph glyph-name="uni0315.case" 
d="M-305 712q31 0 51 -24.5t20 -66.5q0 -88 -87 -153l-31 33q60 53 59 98q-10 -2 -16 -2q-25 0 -41 16.5t-16 41.5q0 24 17.5 40.5t43.5 16.5z" />
    <glyph glyph-name="uni0326.case" 
d="M-305 -79q31 0 51 -24.5t20 -66.5q0 -63 -46 -110h-54q42 48 41 88q-10 -2 -16 -2q-25 0 -41 16.5t-16 41.5q0 24 17.5 40.5t43.5 16.5z" />
    <glyph glyph-name="uni0327.case" 
d="M-303 -53q42 -5 64.5 -26t22.5 -56q0 -42 -32.5 -66.5t-93.5 -24.5q-20 0 -43 3v63q14 -2 37 -2q60 0 60 33q0 14 -17 21t-67 7l8 101h62z" />
    <glyph glyph-name="uni0328.case" 
d="M-269 -227q-55 0 -87 27t-32 73t34.5 85.5t97.5 58.5l34 -17q-83 -63 -83 -111q0 -42 50 -42q18 0 33 5v-74q-23 -5 -47 -5z" />
    <glyph glyph-name="uni0308.narrow" 
d="M-209 554q-25 0 -42.5 17.5t-17.5 42.5t17.5 42.5t42.5 17.5t42.5 -17.5t17.5 -42.5t-17.5 -42.5t-42.5 -17.5zM-35 554q-25 0 -42.5 17.5t-17.5 42.5t17.5 42.5t42.5 17.5t42.5 -17.5t17.5 -42.5t-17.5 -42.5t-42.5 -17.5z" />
    <glyph glyph-name="gravecomb.narrow" 
d="M-148 544l-79 140h109l47 -140h-77z" />
    <glyph glyph-name="acutecomb.narrow" 
d="M-177 544l47 140h109l-79 -140h-77z" />
    <glyph glyph-name="uni0302.narrow" 
d="M20 544h-80l-62 84l-62 -84h-80l107 140h70z" />
    <glyph glyph-name="uni030C.narrow" 
d="M-60 684h80l-107 -140h-70l-107 140h80l62 -84z" />
    <glyph glyph-name="uni0306.narrow" 
d="M-122 544q-61 0 -94 35t-33 96v5h67q0 -77 60 -77t60 77h67v-5q0 -61 -33 -96t-94 -35z" />
    <glyph glyph-name="tildecomb.narrow" 
d="M-57 542q-40 0 -84 50q-29 33 -45 33q-30 0 -30 -75h-58q0 67 24 102t63 35q42 0 85 -50q28 -33 44 -33q30 0 30 75h58q0 -67 -24 -102t-63 -35z" />
    <glyph glyph-name="uni0304.narrow" 
d="M-244 575v68h244v-68h-244z" />
    <glyph glyph-name="uni0328.narrow" 
d="M-117 -214q-46 0 -74 25t-28 65q0 42 30 80.5t79 56.5l32 -13q-64 -64 -64 -104t39 -40q12 0 25 4v-69q-20 -5 -39 -5z" />
    </font>
</defs>
</svg>
